<svg xmlns="http://www.w3.org/2000/svg" width="90.492" height="77.565" viewBox="0 0 90.492 77.565">
  <g id="Сгруппировать_154" data-name="Сгруппировать 154" transform="translate(-6601.744 -4363.808)">
    <path id="Контур_583" data-name="Контур 583" d="M6681.878,4370.272h-6.06v-1.309a5.146,5.146,0,1,0-10.293,0v1.309h-37.07v-1.309a5.146,5.146,0,1,0-10.293,0v1.309h-6.06a10.369,10.369,0,0,0-10.358,10.358v59.127a1.61,1.61,0,0,0,1.616,1.616h87.26a1.61,1.61,0,0,0,1.616-1.616V4380.63A10.369,10.369,0,0,0,6681.878,4370.272Zm-13.122-1.309a1.915,1.915,0,1,1,3.83,0v5.656a1.915,1.915,0,1,1-3.83,0v-5.656Zm-47.362,0a1.915,1.915,0,1,1,3.829,0v5.656a1.915,1.915,0,1,1-3.829,0v-5.656Zm-9.292,4.541h6.06v1.115a5.146,5.146,0,1,0,10.293,0V4373.5h37.07v1.115a5.146,5.146,0,1,0,10.293,0V4373.5h6.06a7.138,7.138,0,0,1,7.126,7.126v1.867h-84.028v-1.867A7.138,7.138,0,0,1,6612.1,4373.5Zm-7.126,64.637v-52.413H6689v52.413Z" fill="#fff"/>
    <path id="Контур_584" data-name="Контур 584" d="M6631.542,4389.873a5.559,5.559,0,1,0,5.559,5.559A5.569,5.569,0,0,0,6631.542,4389.873Zm0,7.886a2.327,2.327,0,1,1,2.327-2.327A2.338,2.338,0,0,1,6631.542,4397.759Z" fill="#fff"/>
    <path id="Контур_585" data-name="Контур 585" d="M6646.99,4400.991a5.559,5.559,0,1,0-5.559-5.559A5.559,5.559,0,0,0,6646.99,4400.991Zm0-7.886a2.327,2.327,0,1,1-2.327,2.327A2.337,2.337,0,0,1,6646.99,4393.1Z" fill="#fff"/>
    <path id="Контур_586" data-name="Контур 586" d="M6662.438,4389.873a5.559,5.559,0,1,0,5.559,5.559A5.58,5.58,0,0,0,6662.438,4389.873Zm0,7.886a2.327,2.327,0,1,1,2.327-2.327A2.338,2.338,0,0,1,6662.438,4397.759Z" fill="#fff"/>
    <path id="Контур_587" data-name="Контур 587" d="M6677.886,4389.873a5.559,5.559,0,1,0,5.559,5.559A5.565,5.565,0,0,0,6677.886,4389.873Zm0,7.886a2.327,2.327,0,1,1,2.327-2.327A2.323,2.323,0,0,1,6677.886,4397.759Z" fill="#fff"/>
    <path id="Контур_588" data-name="Контур 588" d="M6616.093,4406.437a5.551,5.551,0,1,0,5.543,5.558A5.557,5.557,0,0,0,6616.093,4406.437Zm0,7.869A2.319,2.319,0,1,1,6618.4,4412,2.313,2.313,0,0,1,6616.093,4414.306Z" fill="#fff"/>
    <path id="Контур_589" data-name="Контур 589" d="M6631.542,4406.437A5.551,5.551,0,1,0,6637.1,4412,5.558,5.558,0,0,0,6631.542,4406.437Zm0,7.869a2.319,2.319,0,1,1,2.327-2.311A2.324,2.324,0,0,1,6631.542,4414.306Z" fill="#fff"/>
    <path id="Контур_590" data-name="Контур 590" d="M6662.438,4406.437A5.551,5.551,0,1,0,6668,4412,5.568,5.568,0,0,0,6662.438,4406.437Zm0,7.869a2.319,2.319,0,1,1,2.327-2.311A2.325,2.325,0,0,1,6662.438,4414.306Z" fill="#fff"/>
    <path id="Контур_591" data-name="Контур 591" d="M6677.886,4406.437a5.551,5.551,0,1,0,5.559,5.558A5.554,5.554,0,0,0,6677.886,4406.437Zm0,7.869a2.319,2.319,0,1,1,2.327-2.311A2.31,2.31,0,0,1,6677.886,4414.306Z" fill="#fff"/>
    <path id="Контур_592" data-name="Контур 592" d="M6616.093,4422.984a5.559,5.559,0,1,0,5.543,5.558A5.557,5.557,0,0,0,6616.093,4422.984Zm0,7.885a2.327,2.327,0,1,1,2.311-2.327A2.327,2.327,0,0,1,6616.093,4430.869Z" fill="#fff"/>
    <path id="Контур_593" data-name="Контур 593" d="M6631.542,4422.984a5.559,5.559,0,1,0,5.559,5.558A5.558,5.558,0,0,0,6631.542,4422.984Zm0,7.885a2.327,2.327,0,1,1,2.327-2.327A2.338,2.338,0,0,1,6631.542,4430.869Z" fill="#fff"/>
    <path id="Контур_594" data-name="Контур 594" d="M6646.99,4422.984a5.559,5.559,0,1,0,5.559,5.558A5.558,5.558,0,0,0,6646.99,4422.984Zm0,7.885a2.327,2.327,0,1,1,2.327-2.327A2.338,2.338,0,0,1,6646.99,4430.869Z" fill="#fff"/>
    <path id="Контур_595" data-name="Контур 595" d="M6662.438,4422.984a5.559,5.559,0,1,0,5.559,5.558A5.569,5.569,0,0,0,6662.438,4422.984Zm0,7.885a2.327,2.327,0,1,1,2.327-2.327A2.339,2.339,0,0,1,6662.438,4430.869Z" fill="#fff"/>
    <path id="Контур_596" data-name="Контур 596" d="M6652.624,4405.367a1.623,1.623,0,0,0-2.222.534l-4.334,7.079-3.2-3.757a1.615,1.615,0,1,0-2.46,2.095l4.646,5.454a1.618,1.618,0,0,0,1.23.568c.042,0,.084,0,.126,0a1.619,1.619,0,0,0,1.252-.767l5.5-8.979A1.617,1.617,0,0,0,6652.624,4405.367Z" fill="#69a71a"/>
  </g>
</svg>
