<svg xmlns="http://www.w3.org/2000/svg" width="84.647" height="99.788" viewBox="0 0 84.647 99.788">
  <g id="Сгруппировать_163" data-name="Сгруппировать 163" transform="translate(-6970.336 -4348.049)">
    <path id="Контур_600" data-name="Контур 600" d="M7047.607,4447.837h-69.9a7.385,7.385,0,0,1-7.376-7.376v-43.9a10.245,10.245,0,0,1,7.3-9.772,1.756,1.756,0,0,1,.993,3.37,6.711,6.711,0,0,0-4.782,6.4v43.9a3.869,3.869,0,0,0,3.864,3.863h69.9a3.868,3.868,0,0,0,3.863-3.863v-46.714a3.868,3.868,0,0,0-3.863-3.864,1.756,1.756,0,0,1,0-3.512,7.385,7.385,0,0,1,7.376,7.376v46.714A7.385,7.385,0,0,1,7047.607,4447.837Z" fill="#fff"/>
    <path id="Контур_601" data-name="Контур 601" d="M7053.227,4406.977h-72.588a10.3,10.3,0,0,1-3.009-20.159,1.756,1.756,0,1,1,1.024,3.359,6.793,6.793,0,0,0,1.985,13.288h70.831v-9.718a3.856,3.856,0,0,0-3.174-3.8,1.756,1.756,0,1,1,.618-3.457,7.363,7.363,0,0,1,6.069,7.259v11.474A1.756,1.756,0,0,1,7053.227,4406.977Z" fill="#fff"/>
    <path id="Контур_602" data-name="Контур 602" d="M7053.227,4434.314h-11.366a9.483,9.483,0,0,1,0-18.966h11.366a1.756,1.756,0,0,1,1.756,1.756v15.454A1.756,1.756,0,0,1,7053.227,4434.314Zm-11.366-15.454a5.971,5.971,0,0,0,0,11.942h9.609V4418.86Z" fill="#fff"/>
    <circle id="Эллипс_207" data-name="Эллипс 207" cx="3.073" cy="3.073" r="3.073" transform="translate(7039.929 4421.758)" fill="#fff"/>
    <g id="Сгруппировать_162" data-name="Сгруппировать 162">
      <rect id="Прямоугольник_76" data-name="Прямоугольник 76" width="39.304" height="30.763" transform="translate(6999.798 4364.155)" fill="none"/>
      <path id="Контур_603" data-name="Контур 603" d="M7046.076,4394.918h-3.462V4362.4a1.756,1.756,0,0,0-1.756-1.756h-42.816a1.756,1.756,0,0,0-1.756,1.756v32.519h-3.278v-37.061h41.06a1.756,1.756,0,1,0,0-3.512h-42.817a1.757,1.757,0,0,0-1.756,1.757v38.816h-3.278v-43.356h41.06a1.757,1.757,0,1,0,0-3.513h-42.816a1.757,1.757,0,0,0-1.757,1.757v45.112h-1.958a1.757,1.757,0,0,0,0,3.513h65.33a1.757,1.757,0,0,0,0-3.513Zm-46.278,0v-30.763h39.3v30.763Z" fill="#69a71a"/>
    </g>
  </g>
</svg>
