<?xml version="1.0" encoding="utf-8"?>
<!-- Generator: Adobe Illustrator 24.0.1, SVG Export Plug-In . SVG Version: 6.00 Build 0)  -->
<svg version="1.1" id="Layer_1" xmlns="http://www.w3.org/2000/svg" xmlns:xlink="http://www.w3.org/1999/xlink" x="0px" y="0px"
	 viewBox="0 0 113.39 113.39" style="enable-background:new 0 0 113.39 113.39;" xml:space="preserve">
<style type="text/css">
	.st0{fill:#FFFFFF;}
	.st1{fill:#6BB52D;}
</style>
<g>
	<path class="st0" d="M24.2,46.36c-6.29,0-11.4-5.11-11.4-11.4c0-6.29,5.11-11.4,11.4-11.4c6.29,0,11.4,5.11,11.4,11.4
		C35.6,41.25,30.48,46.36,24.2,46.36z M24.2,27.66c-4.03,0-7.3,3.28-7.3,7.3c0,4.03,3.28,7.3,7.3,7.3c4.03,0,7.3-3.28,7.3-7.3
		C31.5,30.93,28.23,27.66,24.2,27.66z"/>
	<path class="st0" d="M56.74,52.09c-6.29,0-11.4-5.11-11.4-11.4c0-6.29,5.11-11.4,11.4-11.4c6.29,0,11.4,5.11,11.4,11.4
		C68.14,46.98,63.02,52.09,56.74,52.09z M56.74,33.39c-4.03,0-7.3,3.28-7.3,7.3c0,4.03,3.28,7.3,7.3,7.3c4.03,0,7.3-3.28,7.3-7.3
		C64.04,36.66,60.76,33.39,56.74,33.39z"/>
	<path class="st0" d="M89.11,46.02c-6.29,0-11.4-5.11-11.4-11.4c0-6.29,5.11-11.4,11.4-11.4c6.29,0,11.4,5.11,11.4,11.4
		C100.51,40.91,95.4,46.02,89.11,46.02z M89.11,27.32c-4.03,0-7.3,3.28-7.3,7.3c0,4.03,3.28,7.3,7.3,7.3c4.03,0,7.3-3.28,7.3-7.3
		C96.42,30.6,93.14,27.32,89.11,27.32z"/>
	<g>
		<path class="st0" d="M38.59,54.15c0.35,0.24,0.75,0.35,1.15,0.35c0.66,0,1.3-0.31,1.7-0.9c0.64-0.94,0.39-2.21-0.55-2.85
			c-2.17-1.47-4.71-2.25-7.35-2.25c-0.04,0-0.09,0.01-0.13,0.01c-0.09,0.01-0.18,0.01-0.27,0.03c-0.09,0.02-0.17,0.05-0.25,0.08
			c-0.04,0.02-0.09,0.02-0.13,0.04c-0.13,0.05-0.25,0.12-0.36,0.19l-3.51,2.36c-2.84,1.92-6.52,1.91-9.37,0L16,48.86
			c-0.11-0.08-0.23-0.14-0.36-0.19c-0.04-0.02-0.09-0.03-0.14-0.04c-0.08-0.03-0.16-0.06-0.25-0.07c-0.09-0.02-0.18-0.02-0.27-0.03
			c-0.04,0-0.08-0.01-0.13-0.01c-7.23,0-13.11,5.88-13.11,13.11v17.11c0,3.5,2.85,6.34,6.34,6.34s6.34-2.85,6.34-6.34v-10.7
			c0-1.13-0.92-2.05-2.05-2.05c-1.13,0-2.05,0.92-2.05,2.05v10.7c0,1.24-1.01,2.25-2.25,2.25c-1.24,0-2.25-1.01-2.25-2.25V61.62
			c0-4.77,3.73-8.68,8.43-8.98l2.95,1.99c2.12,1.43,4.55,2.14,6.98,2.14c2.43,0,4.86-0.71,6.97-2.14l2.93-1.97
			C35.71,52.75,37.25,53.25,38.59,54.15z"/>
		<path class="st1" d="M66.09,54.24C66.08,54.24,66.08,54.24,66.09,54.24C66.08,54.24,66.08,54.24,66.09,54.24
			c-0.02,0-0.03,0-0.04,0c-0.12,0-0.25,0.01-0.37,0.04c-0.08,0.02-0.15,0.04-0.22,0.07c-0.05,0.02-0.11,0.03-0.16,0.05
			c-0.13,0.05-0.25,0.12-0.36,0.19l-3.51,2.36c-2.84,1.92-6.52,1.91-9.37,0l-3.51-2.36c-0.02-0.01-0.03-0.02-0.05-0.03
			c-0.1-0.06-0.2-0.12-0.31-0.16c-0.07-0.03-0.15-0.05-0.23-0.07c-0.05-0.02-0.1-0.04-0.16-0.05c-0.14-0.03-0.28-0.04-0.42-0.04
			c-7.22,0.01-13.09,5.89-13.09,13.11v17.11c0,3.5,2.85,6.34,6.34,6.34s6.34-2.85,6.34-6.34v-10.7c0-1.13-0.92-2.05-2.05-2.05
			c-1.13,0-2.05,0.92-2.05,2.05v10.7c0,1.24-1.01,2.25-2.25,2.25c-1.24,0-2.25-1.01-2.25-2.25V67.35c0-4.77,3.73-8.68,8.43-8.98
			l2.95,1.98c2.12,1.43,4.55,2.14,6.98,2.14c2.43,0,4.85-0.71,6.97-2.14l2.95-1.99c4.7,0.3,8.43,4.21,8.43,8.98v17.11
			c0,1.24-1.01,2.25-2.25,2.25c-1.24,0-2.25-1.01-2.25-2.25v-10.7c0-1.13-0.92-2.05-2.05-2.05c-1.13,0-2.05,0.92-2.05,2.05v10.7
			c0,3.5,2.85,6.34,6.34,6.34s6.34-2.85,6.34-6.34V67.35C79.19,60.12,73.31,54.24,66.09,54.24z"/>
		<path class="st0" d="M98.47,48.17c-0.14,0-0.28,0.01-0.41,0.04c-0.06,0.01-0.12,0.04-0.19,0.06c-0.07,0.02-0.13,0.03-0.2,0.06
			c-0.13,0.05-0.25,0.12-0.36,0.19l-3.51,2.36c-2.85,1.91-6.53,1.92-9.37,0l-3.51-2.36c-0.11-0.08-0.23-0.14-0.36-0.19
			c-0.05-0.02-0.11-0.03-0.17-0.05c-0.07-0.02-0.14-0.05-0.22-0.07c-0.11-0.02-0.21-0.03-0.32-0.03c-0.03,0-0.05-0.01-0.08-0.01
			c-2.65,0-5.21,0.79-7.4,2.29c-0.93,0.64-1.17,1.91-0.53,2.85c0.4,0.58,1.04,0.89,1.69,0.89c0.4,0,0.8-0.12,1.16-0.36
			c1.34-0.92,2.9-1.43,4.52-1.53l2.93,1.97c2.12,1.43,4.54,2.14,6.97,2.14c2.43,0,4.86-0.71,6.98-2.14l2.95-1.98
			c4.7,0.3,8.43,4.21,8.43,8.98v17.11c0,1.24-1.01,2.25-2.25,2.25c-1.24,0-2.25-1.01-2.25-2.25v-10.7c0-1.13-0.92-2.05-2.05-2.05
			c-1.13,0-2.05,0.92-2.05,2.05v10.7c0,3.5,2.85,6.34,6.34,6.34s6.34-2.85,6.34-6.34V61.28C111.56,54.06,105.69,48.18,98.47,48.17z"
			/>
	</g>
</g>
</svg>
