<?xml version="1.0" encoding="utf-8"?>
<!-- Generator: Adobe Illustrator 24.0.1, SVG Export Plug-In . SVG Version: 6.00 Build 0)  -->
<svg version="1.1" id="Layer_1" xmlns="http://www.w3.org/2000/svg" xmlns:xlink="http://www.w3.org/1999/xlink" x="0px" y="0px"
	 viewBox="0 0 113.39 113.39" style="enable-background:new 0 0 113.39 113.39;" xml:space="preserve">
<style type="text/css">
	.st0{fill:#FFFFFF;}
	.st1{fill:#6BB52D;}
</style>
<g>
	<path class="st0" d="M20.64,83.64h-0.02c0,4.01,0,8.02,0,12.03h0.02L20.64,83.64z"/>
	<path class="st0" d="M22.69,99.84c0.02,0,0.05,0,0.07-0.01c-0.04,0-0.09,0-0.13,0C22.65,99.84,22.67,99.84,22.69,99.84z"/>
	<path class="st0" d="M90.59,99.84c0.02,0,0.05,0,0.07-0.01h-0.13C90.55,99.84,90.57,99.84,90.59,99.84z"/>
	<path class="st1" d="M65.5,95.6l0-7.58c0-3.41,0-6.83,0-10.24c0-1.69-0.74-2.45-2.4-2.45c-4.34-0.01-8.69,0-13.03,0
		c-1.53,0-2.3,0.78-2.3,2.33c0,0.64,0,1.27,0,1.91h0.05l0,7.58c0,3.41,0,6.83,0,10.24c0,1.69,0.74,2.45,2.4,2.45
		c4.34,0.01,8.69,0,13.03,0c1.53,0,2.3-0.78,2.3-2.33c0-0.63,0-1.27,0-1.91H65.5z M61.3,95.62h-9.27v-0.03h-0.03V79.55h9.27v0.03
		h0.03V95.62z"/>
	<path class="st0" d="M79.06,97.37l0-39.84c0-1.82-0.71-2.54-2.52-2.54c-13.32,0-26.63-0.01-39.95,0c-1.61,0-2.39,0.77-2.39,2.34
		c0,8.83,0,17.66,0,26.48c0,1.52,0.79,2.46,2.07,2.46c0.59,0,1.09-0.19,1.44-0.54c0.42-0.42,0.66-1.09,0.66-1.89l0-24.64h36.44
		v24.43h0c0,3.99,0,7.98,0,11.96c0,0.59,0,1.19,0,1.78c0,1.5,0.77,2.43,2.02,2.46c0.02,0,0.03,0,0.05,0c0.02,0,0.04,0,0.06,0
		c0.56-0.01,1.04-0.2,1.38-0.54c0.43-0.42,0.66-1.09,0.66-1.89l0,0.14C79.01,97.55,79.04,97.38,79.06,97.37z"/>
	<path class="st0" d="M92.69,95.67l0-12.03c0,0-0.06-32.16-0.04-46.37c0-1.29-0.42-2.04-1.51-2.65c-1.12-0.63-2.25-1.32-3.26-1.94
		c-0.5-0.3-0.99-0.61-1.49-0.91l-7.36-4.41c-6.92-4.15-13.85-8.3-20.76-12.47c-1.18-0.71-2.1-0.71-3.28,0
		c-6.51,3.97-13.17,7.94-19.42,11.66c-1,0.6-1.4,1.29-1.39,2.4c0.03,2.07,0.02,4.14,0.02,6.21c0,1.78-0.01,3.56,0.01,5.34
		c0.01,1.17-0.48,1.95-1.53,2.47c-1.68,0.83-3.35,1.66-5.03,2.5l-0.12,0.06c-1.78,0.89-3.57,1.79-5.36,2.66
		c-1.14,0.56-1.56,1.24-1.56,2.51c0.02,10.77,0.02,21.55,0.02,32.32v0.61l0,12.03h-0.02c0,0.57,0,1.14,0,1.71
		c0,1.49,0.77,2.42,2.01,2.46c0.04,0,0.09,0,0.13,0c0.56-0.01,1.03-0.2,1.37-0.54c0.43-0.42,0.66-1.09,0.66-1.89l0-12.91
		c0.01,0,0.01,0,0.02,0v-2.29c0-9.61,0-19.23-0.01-28.84c0-0.83,0.16-1.86,1.45-2.5c6.38-3.16,12.75-6.35,19.12-9.53l6.5-3.25
		c0.16-0.08,0.33-0.15,0.55-0.24l2.13-0.92v6.2c0,1.54,0.77,2.47,2.06,2.48c0.61,0,1.09-0.18,1.44-0.52c0.44-0.44,0.67-1.13,0.67-2
		c0-0.91-0.01-1.83-0.02-2.74l0-0.16c-0.03-2.12-0.05-4.31,0.07-6.49c0.05-0.84-0.35-1.64-1.02-2.07c-0.7-0.45-1.6-0.44-2.47,0.01
		c-3.23,1.71-6.56,3.35-9.78,4.94l-0.08,0.04c-1.35,0.67-2.7,1.33-4.04,2c-0.21,0.1-0.42,0.2-0.68,0.32L38.38,40l0-3.67
		c0-1.86,0-3.65,0.03-5.44c0.01-0.81,0.63-1.47,1.16-1.79c6.07-3.66,11.12-6.69,15.89-9.51c0.68-0.4,1.7-0.41,2.35-0.02
		c10.99,6.56,20.63,12.35,29.48,17.7c0.91,0.55,1.15,1.76,1.15,2.32c0.02,7.24,0.02,14.48,0.02,21.73l0,36.24
		c0.02,0,0.06-4.76,0.06-0.18c0,1.49,0.77,2.42,2.01,2.46h0.13c0.56-0.01,1.03-0.2,1.37-0.54c0.43-0.42,0.66-1.09,0.66-1.89
		L92.69,95.67z"/>
</g>
</svg>
