<svg xmlns="http://www.w3.org/2000/svg" width="84.028" height="90.492"><g data-name="Сгруппировать 158"><path data-name="Контур 597" d="M58.512 76.045a6.924 6.924 0 003.749 1.083 2.414 2.414 0 00.34-.016 7.114 7.114 0 00-.34-14.22c-.258 0-.5.016-.759.032a7.117 7.117 0 00-2.99 13.121zm3.749-9.922a3.424 3.424 0 01.711.065 3.886 3.886 0 01-.711 7.708 3.571 3.571 0 01-1.018-.145 3.883 3.883 0 011.018-7.628z" fill="#fff"/><path data-name="Контур 598" d="M79.81 81.636h-.242a12.877 12.877 0 00-4.541-22.025c-.081-.016-.145-.048-.21-.064l-13.234-4.67 7.707-33.806h4.978a6.848 6.848 0 006.867-6.8V4.64a4.694 4.694 0 00-9.388 0v7.127h-12.9a4.654 4.654 0 100 9.307h.565l-7.061 30.558-23-8.112-.372-.13c-.08-.032-.177-.048-.274-.08a20.811 20.811 0 00-4.913-1.067l-4.524-9.4h2.424c3.765 0 6.819-2.537 6.819-5.639 0-2.78-2.408-5.123-5.721-5.575L7.924 19.641a7.8 7.8 0 00-6.076 1.7A5.152 5.152 0 00-.01 25.219v1.988c0 3.1 3.07 5.639 6.835 5.639h2.311l5.025 10.649a21.238 21.238 0 00-3.878 38.152H4.191a4.114 4.114 0 00-4.121 4.1v.646a4.115 4.115 0 004.121 4.1H79.8a4.112 4.112 0 004.1-4.1v-.646a4.111 4.111 0 00-4.09-4.111zm-20.958-63.8a1.422 1.422 0 110-2.844h14.511a1.611 1.611 0 001.616-1.616V4.633a1.463 1.463 0 012.924 0v9.631a3.607 3.607 0 01-3.635 3.572H58.852zm3.878 3.231h3.248l-7.45 32.723-3.118-1.1zm-59.5 6.125v-1.988a1.925 1.925 0 01.744-1.438 4.341 4.341 0 012.86-.97c.226 0 .452.017.679.033l14.85 2c1.681.211 2.925 1.229 2.925 2.36 0 1.309-1.648 2.407-3.587 2.407H6.834c-1.954.007-3.603-1.091-3.603-2.4zm9.486 5.639h2.977l4.509 9.373a18.621 18.621 0 00-2.877.388zm-9.4 30.671a18.2 18.2 0 0112.249-17.081 17.44 17.44 0 013.183-.808 18.539 18.539 0 016.755.146 17.137 17.137 0 012.408.662l.129.049 10.6 3.733 12.976 4.589 9.243 3.248 5.22 1.842 7.772 2.747c.033.016.065.016.1.032a9.7 9.7 0 01-3.021 18.971H21.725A18.287 18.287 0 013.312 63.506zm77.371 22.881a.89.89 0 01-.873.873H4.205a.893.893 0 01-.889-.873v-.646a.883.883 0 01.889-.873h75.609a.88.88 0 01.873.873z" fill="#fff"/><path data-name="Контур 599" d="M34.758 73.815a1.564 1.564 0 00.388 2.085.406.406 0 00.162.129 1.711 1.711 0 00.824.226 1.623 1.623 0 001.389-.775l1.212-2.036 1.2-1.988a1.626 1.626 0 00-.549-2.23.5.5 0 00-.162-.065 1.576 1.576 0 00-2.052.631l-.388.646-4.363-2.553a11.3 11.3 0 00.889-4.444 11.6 11.6 0 10-2.537 7.207l4.363 2.553zm-13.04-2.036a8.366 8.366 0 117.869-5.559l-7.045-4.1a1.613 1.613 0 00-2.214.582 1.6 1.6 0 00.582 2.2l7.013 4.089a8.245 8.245 0 01-6.205 2.788z" fill="#69a71a"/></g></svg>