<svg xmlns="http://www.w3.org/2000/svg" width="30.137" height="18.835"><path data-name="Контур 175" d="M15.25 18.835c4.36 0 2.806-2.76 3.142-3.553 0-.593-.01-1.163.01-1.51a6.69 6.69 0 012.274 1.717c2.078 2.1 2.609 3.346 4.288 3.346h3.09a2.041 2.041 0 001.745-.746 1.948 1.948 0 00.223-1.8c-.689-2.165-4.71-5.9-4.96-6.3.038-.072.1-.169.129-.219.794-1.049 3.822-5.587 4.268-7.4v-.011a1.806 1.806 0 00-.208-1.67A1.92 1.92 0 0027.62.005h-3.09a2.276 2.276 0 00-2.217 1.472c-.664 1.689-2.53 5.162-3.928 6.391a81.012 81.012 0 01.008-4.059c.046-1.928.191-3.8-1.809-3.8h-4.857c-1.253 0-2.452 1.369-1.154 2.994 1.135 1.424.408 2.217.653 6.167a23.1 23.1 0 01-3.852-7.319A2.262 2.262 0 005.092.01h-3.09a1.764 1.764 0 00-2 1.827c0 2.569 5.687 17.007 15.25 17.007zM5.092 1.885c.273 0 .3 0 .5.574 1.23 3.62 3.987 8.976 6 8.976 1.513 0 1.513-1.55 1.513-2.134V4.652a4.44 4.44 0 00-1.011-2.768l4.4.005c0 .021-.025 5.142.013 6.382 0 1.762 1.4 2.771 3.582.561a26.854 26.854 0 003.962-6.646c.094-.226.175-.3.472-.3h3.1v.011c-.283 1.318-3.071 5.52-4 6.824l-.043.063a1.876 1.876 0 00.056 2.454c.073.088.262.294.538.58.859.886 3.8 3.918 4.066 5.123-.173.028-.361.008-3.281.014-.621 0-1.107-.929-2.962-2.8-1.667-1.623-2.75-2.286-3.736-2.286-1.913 0-1.774 1.554-1.756 3.432.006 2.037-.006 1.393.007 1.521a3.778 3.778 0 01-1.267.132C7.278 16.954 2.09 4.308 1.89 1.891c.069-.007 1.02 0 3.2 0z" fill="#91b508"/></svg>