<svg xmlns="http://www.w3.org/2000/svg" width="23.816" height="20.21"><path data-name="Контур 176" d="M23.411.614a1.959 1.959 0 00-2.286-.438l-19.8 7.559C.152 8.183-.005 8.885.006 9.264s.207 1.072 1.429 1.46l4 1.146 2.185 6.249a2.123 2.123 0 001.974 1.545 2.311 2.311 0 001.564-.66l2.406-2.216 3.544 2.853.049.038a2.336 2.336 0 001.423.531 2.019 2.019 0 001.938-1.779L23.762 2.41a2.124 2.124 0 00-.351-1.796zM12.152 15.65l-1.795 1.652.638-2.583zm1.756-7.483l-4.1 4.356a.909.909 0 00-.218.4l-.781 3.165-1.577-4.51zm4.85-2.536a.9.9 0 00-1.061-1.413L6.035 10.176l-3.474-.994 19.2-7.331a.81.81 0 01.259-.06.859.859 0 01-.02.263l-3.244 16.021c-.044.214-.126.341-.18.341a.6.6 0 01-.317-.148l-6.484-5.221z" fill="#91b508"/></svg>