<svg xmlns="http://www.w3.org/2000/svg" width="90.492" height="87.26"><g data-name="Сгруппировать 150"><path data-name="Контур 575" d="M90.186 29.696a1.616 1.616 0 00-1.311-.671H29.436C14.772 29.025 2.241 39.748.287 53.97a29.283 29.283 0 008.116 24.749 28.438 28.438 0 0020.35 8.541 28.592 28.592 0 0027.76-21.615 30 30 0 00.963-6.873 7.862 7.862 0 017.785-7.677H82.6a1.616 1.616 0 001.533-1.1l6.275-18.837a1.613 1.613 0 00-.222-1.462zm-37.017 2.561h10.025l-2.758 6.253H53.17zm28.267 15.606H65.261a11.112 11.112 0 00-11.017 10.84 26.691 26.691 0 01-.859 6.13 25.673 25.673 0 01-21.452 19 25.292 25.292 0 01-21.228-7.384 26.081 26.081 0 01-7.217-22.041C5.224 41.78 16.379 32.256 29.436 32.256h20.5v7.868a1.615 1.615 0 001.616 1.616h9.935a1.617 1.617 0 001.479-.964l3.758-8.52h19.909z" fill="#fff"/><path data-name="Контур 576" d="M28.741 40.645a17.5 17.5 0 1017.5 17.5 17.519 17.519 0 00-17.5-17.5zm0 31.765a14.267 14.267 0 1114.267-14.266A14.282 14.282 0 0128.741 72.41z" fill="#fff"/><path data-name="Контур 577" d="M28.741 47.539a1.616 1.616 0 00-1.616 1.616v18.2a1.616 1.616 0 003.232 0v-18.2a1.616 1.616 0 00-1.616-1.616z" fill="#fff"/><path data-name="Контур 578" d="M21.115 52.22a1.616 1.616 0 00-1.616 1.616v10.073a1.616 1.616 0 003.232 0v-10.07a1.615 1.615 0 00-1.616-1.619z" fill="#fff"/><path data-name="Контур 579" d="M36.367 52.78a1.615 1.615 0 00-1.616 1.616v8.953a1.616 1.616 0 003.232 0v-8.953a1.615 1.615 0 00-1.616-1.616z" fill="#fff"/><path data-name="Контур 580" d="M58.319 16.21a1.615 1.615 0 001.616-1.616V1.616a1.616 1.616 0 10-3.232 0v12.978a1.615 1.615 0 001.616 1.616z" fill="#69a71a"/><path data-name="Контур 581" d="M45.094 22.311a1.616 1.616 0 002.3-2.27l-9.052-9.176a1.615 1.615 0 10-2.3 2.269z" fill="#69a71a"/><path data-name="Контур 582" d="M69.928 22.792a1.615 1.615 0 001.151-.481l9.051-9.177a1.616 1.616 0 10-2.3-2.269l-9.052 9.176a1.616 1.616 0 001.15 2.751z" fill="#69a71a"/></g></svg>