<svg xmlns="http://www.w3.org/2000/svg" width="90.492" height="77.565"><g data-name="Сгруппировать 154"><path data-name="Контур 583" d="M80.134 6.464h-6.06V5.155a5.146 5.146 0 10-10.293 0v1.309h-37.07V5.155a5.146 5.146 0 10-10.293 0v1.309h-6.06A10.369 10.369 0 000 16.822v59.127a1.61 1.61 0 001.616 1.616h87.26a1.61 1.61 0 001.616-1.616V16.822A10.369 10.369 0 0080.134 6.464zM67.012 5.155a1.915 1.915 0 113.83 0v5.656a1.915 1.915 0 11-3.83 0V5.155zm-47.362 0a1.915 1.915 0 113.829 0v5.656a1.915 1.915 0 11-3.829 0V5.155zm-9.292 4.541h6.06v1.115a5.146 5.146 0 1010.293 0V9.692h37.07v1.115a5.146 5.146 0 1010.293 0V9.692h6.06a7.138 7.138 0 017.126 7.126v1.867H3.232v-1.867a7.138 7.138 0 017.124-7.126zM3.232 74.333V21.92h84.024v52.413z" fill="#fff"/><path data-name="Контур 584" d="M29.798 26.065a5.559 5.559 0 105.559 5.559 5.569 5.569 0 00-5.559-5.559zm0 7.886a2.327 2.327 0 112.327-2.327 2.338 2.338 0 01-2.327 2.327z" fill="#fff"/><path data-name="Контур 585" d="M45.246 37.183a5.559 5.559 0 10-5.559-5.559 5.559 5.559 0 005.559 5.559zm0-7.886a2.327 2.327 0 11-2.327 2.327 2.337 2.337 0 012.327-2.332z" fill="#fff"/><path data-name="Контур 586" d="M60.694 26.065a5.559 5.559 0 105.559 5.559 5.58 5.58 0 00-5.559-5.559zm0 7.886a2.327 2.327 0 112.327-2.327 2.338 2.338 0 01-2.327 2.327z" fill="#fff"/><path data-name="Контур 587" d="M76.142 26.065a5.559 5.559 0 105.559 5.559 5.565 5.565 0 00-5.559-5.559zm0 7.886a2.327 2.327 0 112.327-2.327 2.323 2.323 0 01-2.327 2.327z" fill="#fff"/><path data-name="Контур 588" d="M14.349 42.629a5.551 5.551 0 105.543 5.558 5.557 5.557 0 00-5.543-5.558zm0 7.869a2.319 2.319 0 112.307-2.306 2.313 2.313 0 01-2.307 2.306z" fill="#fff"/><path data-name="Контур 589" d="M29.798 42.629a5.551 5.551 0 105.558 5.563 5.558 5.558 0 00-5.558-5.563zm0 7.869a2.319 2.319 0 112.327-2.311 2.324 2.324 0 01-2.327 2.311z" fill="#fff"/><path data-name="Контур 590" d="M60.694 42.629a5.551 5.551 0 105.562 5.563 5.568 5.568 0 00-5.562-5.563zm0 7.869a2.319 2.319 0 112.327-2.311 2.325 2.325 0 01-2.327 2.311z" fill="#fff"/><path data-name="Контур 591" d="M76.142 42.629a5.551 5.551 0 105.559 5.558 5.554 5.554 0 00-5.559-5.558zm0 7.869a2.319 2.319 0 112.327-2.311 2.31 2.31 0 01-2.327 2.311z" fill="#fff"/><path data-name="Контур 592" d="M14.349 59.176a5.559 5.559 0 105.543 5.558 5.557 5.557 0 00-5.543-5.558zm0 7.885a2.327 2.327 0 112.311-2.327 2.327 2.327 0 01-2.311 2.327z" fill="#fff"/><path data-name="Контур 593" d="M29.798 59.176a5.559 5.559 0 105.559 5.558 5.558 5.558 0 00-5.559-5.558zm0 7.885a2.327 2.327 0 112.327-2.327 2.338 2.338 0 01-2.327 2.327z" fill="#fff"/><path data-name="Контур 594" d="M45.246 59.176a5.559 5.559 0 105.559 5.558 5.558 5.558 0 00-5.559-5.558zm0 7.885a2.327 2.327 0 112.327-2.327 2.338 2.338 0 01-2.327 2.327z" fill="#fff"/><path data-name="Контур 595" d="M60.694 59.176a5.559 5.559 0 105.559 5.558 5.569 5.569 0 00-5.559-5.558zm0 7.885a2.327 2.327 0 112.327-2.327 2.339 2.339 0 01-2.327 2.327z" fill="#fff"/><path data-name="Контур 596" d="M50.88 41.559a1.623 1.623 0 00-2.222.534l-4.334 7.079-3.2-3.757a1.616 1.616 0 10-2.46 2.095l4.646 5.454a1.618 1.618 0 001.23.568h.126a1.619 1.619 0 001.252-.767l5.5-8.979a1.617 1.617 0 00-.538-2.227z" fill="#69a71a"/></g></svg>