<svg xmlns="http://www.w3.org/2000/svg" width="19.681" height="19.681"><g data-name="Сгруппировать 60" fill="#91b508"><path data-name="Контур 177" d="M14.563 11.309c-.038-.018-1.473-.725-1.728-.817a1 1 0 00-.334-.073.565.565 0 00-.483.286c-.144.213-.578.72-.712.871-.017.02-.041.044-.055.044s-.235-.091-.3-.12a7.545 7.545 0 01-2.868-2.548.149.149 0 01-.024-.056.451.451 0 01.084-.1 3.96 3.96 0 00.245-.278l.115-.137a1.578 1.578 0 00.234-.37l.032-.065a.666.666 0 00-.02-.63c-.034-.067-.64-1.53-.7-1.683-.155-.371-.36-.544-.644-.544-.026 0 0 0-.111.005a3.438 3.438 0 00-1.193.307 2.5 2.5 0 00-.926 2.125 4.584 4.584 0 00.993 2.521l.041.059a9.338 9.338 0 004.009 3.48 6.516 6.516 0 002.421.619 3.758 3.758 0 00.394-.023l.071-.007a2.545 2.545 0 001.775-1.256 1.983 1.983 0 00.113-1.307.909.909 0 00-.429-.303z"/><path data-name="Контур 178" d="M10.015 0A9.641 9.641 0 00.349 9.594a9.526 9.526 0 001.325 4.852l-1.66 4.9a.257.257 0 00.059.261.261.261 0 00.183.076.254.254 0 00.077-.012l5.107-1.623A9.616 9.616 0 1010.015.002zm0 17.189a7.662 7.662 0 01-4.213-1.256.253.253 0 00-.14-.042.268.268 0 00-.078.012l-2.558.813.826-2.436a.257.257 0 00-.036-.233 7.5 7.5 0 01-1.458-4.453 7.657 7.657 0 117.657 7.595z"/></g></svg>