<svg xmlns="http://www.w3.org/2000/svg" width="84.647" height="99.788"><g data-name="Сгруппировать 163" transform="translate(-6970.336 -4348.049)"><path data-name="Контур 600" d="M7047.607 4447.837h-69.9a7.385 7.385 0 01-7.376-7.376v-43.9a10.245 10.245 0 017.3-9.772 1.756 1.756 0 01.993 3.37 6.711 6.711 0 00-4.782 6.4v43.9a3.869 3.869 0 003.864 3.863h69.9a3.868 3.868 0 003.863-3.863v-46.714a3.868 3.868 0 00-3.863-3.864 1.756 1.756 0 010-3.512 7.385 7.385 0 017.376 7.376v46.714a7.385 7.385 0 01-7.375 7.378z" fill="#fff"/><path data-name="Контур 601" d="M7053.227 4406.977h-72.588a10.3 10.3 0 01-3.009-20.159 1.756 1.756 0 111.024 3.359 6.793 6.793 0 001.985 13.288h70.831v-9.718a3.856 3.856 0 00-3.174-3.8 1.756 1.756 0 11.618-3.457 7.363 7.363 0 016.069 7.259v11.474a1.756 1.756 0 01-1.756 1.754z" fill="#fff"/><path data-name="Контур 602" d="M7053.227 4434.314h-11.366a9.483 9.483 0 010-18.966h11.366a1.756 1.756 0 011.756 1.756v15.454a1.756 1.756 0 01-1.756 1.756zm-11.366-15.454a5.971 5.971 0 000 11.942h9.609v-11.942z" fill="#fff"/><circle data-name="Эллипс 207" cx="3.073" cy="3.073" r="3.073" transform="translate(7039.929 4421.758)" fill="#fff"/><g data-name="Сгруппировать 162"><path data-name="Прямоугольник 76" fill="none" d="M6999.798 4364.155h39.304v30.763h-39.304z"/><path data-name="Контур 603" d="M7046.076 4394.918h-3.462V4362.4a1.756 1.756 0 00-1.756-1.756h-42.816a1.756 1.756 0 00-1.756 1.756v32.519h-3.278v-37.061h41.06a1.756 1.756 0 100-3.512h-42.817a1.757 1.757 0 00-1.756 1.757v38.816h-3.278v-43.356h41.06a1.757 1.757 0 100-3.513h-42.816a1.757 1.757 0 00-1.757 1.757v45.112h-1.958a1.757 1.757 0 000 3.513h65.33a1.757 1.757 0 000-3.513zm-46.278 0v-30.763h39.3v30.763z" fill="#69a71a"/></g></g></svg>