<svg xmlns="http://www.w3.org/2000/svg" width="19.179" height="19.183"><g data-name="Сгруппировать 59" fill="#91b508"><path data-name="Контур 172" d="M19.13 5.64a7.014 7.014 0 00-.446-2.327 4.675 4.675 0 00-1.109-1.7 4.736 4.736 0 00-1.7-1.106 7.031 7.031 0 00-2.327-.446c-1.027-.048-1.353-.06-3.957-.06s-2.93.012-3.953.057a7 7 0 00-2.327.446 4.673 4.673 0 00-1.7 1.109 4.723 4.723 0 00-1.1 1.7A7.038 7.038 0 00.065 5.64C.016 6.667.005 6.993.005 9.597s.011 2.931.056 3.954a7.013 7.013 0 00.446 2.327 4.913 4.913 0 002.807 2.807 7.033 7.033 0 002.327.446c1.023.045 1.349.056 3.953.056s2.931-.011 3.954-.056a7.012 7.012 0 002.327-.446 4.911 4.911 0 002.807-2.807 7.037 7.037 0 00.445-2.327c.045-1.023.057-1.349.057-3.954s-.009-2.934-.054-3.957zm-1.728 7.832a5.262 5.262 0 01-.329 1.78 3.181 3.181 0 01-1.822 1.821 5.273 5.273 0 01-1.779.33c-1.012.045-1.316.056-3.875.056s-2.867-.011-3.875-.056a5.254 5.254 0 01-1.78-.33 3.16 3.16 0 01-1.817-1.817 5.27 5.27 0 01-.33-1.78c-.045-1.012-.056-1.316-.056-3.875s.011-2.867.056-3.875a5.254 5.254 0 01.33-1.78 2.9 2.9 0 01.719-1.1 2.968 2.968 0 011.1-.716 5.272 5.272 0 011.78-.33c1.012-.045 1.315-.056 3.875-.056s2.866.011 3.874.056a5.25 5.25 0 011.78.33 2.937 2.937 0 011.1.716 2.987 2.987 0 01.716 1.1 5.292 5.292 0 01.329 1.78c.045 1.012.057 1.316.057 3.875s-.008 2.859-.057 3.871z"/><path data-name="Контур 173" d="M9.593 4.666a4.928 4.928 0 104.928 4.927 4.929 4.929 0 00-4.928-4.927zm0 8.124a3.2 3.2 0 113.2-3.2 3.2 3.2 0 01-3.2 3.198z"/><path data-name="Контур 174" d="M15.866 4.471a1.15 1.15 0 11-1.15-1.15 1.15 1.15 0 011.15 1.15z"/></g></svg>