<?xml version="1.0" encoding="utf-8"?>
<!-- Generator: Adobe Illustrator 24.0.1, SVG Export Plug-In . SVG Version: 6.00 Build 0)  -->
<svg version="1.1" id="Layer_1" xmlns="http://www.w3.org/2000/svg" xmlns:xlink="http://www.w3.org/1999/xlink" x="0px" y="0px"
	 viewBox="0 0 113.39 113.39" style="enable-background:new 0 0 113.39 113.39;" xml:space="preserve">
<style type="text/css">
	.st0{fill:#FFFFFF;}
	.st1{fill:#6BB52D;}
</style>
<g>
	<path class="st0" d="M80.36,48.95c-1.01-0.17-1.88,0.57-2.11,1.81l-0.09,0.47c-0.12,0.64-0.24,1.29-0.41,1.92
		c-1.21,4.38-3.56,8.07-6.99,10.95c-3.07,2.58-4.82,5.67-5.21,9.18c-0.17,1.54-0.15,3.12-0.13,4.65c0.01,0.71,0.02,1.43,0.01,2.14
		c-0.03,1.96-1.16,3.08-3.1,3.09c-3.78,0.01-7.55,0.01-11.33,0c-1.96,0-3.09-1.13-3.11-3.08l0-0.28c-0.01-1.34-0.03-2.73,0.01-4.09
		c0.12-4.68-1.64-8.5-5.38-11.67c-4.64-3.93-7.21-9.02-7.64-15.1c-0.67-9.46,4.74-18.18,13.48-21.72c1.19-0.48,2.49-0.8,3.75-1.11
		c0.5-0.12,1-0.24,1.49-0.38c0.95-0.25,1.45-0.8,1.51-1.66c0.06-0.88-0.4-1.55-1.23-1.81c-0.41-0.13-0.94-0.12-1.42,0.01
		c-0.49,0.14-0.99,0.27-1.49,0.4c-1.42,0.37-2.89,0.75-4.27,1.32c-10.97,4.52-17.42,16.75-14.99,28.45
		c1.21,5.85,4.2,10.8,8.88,14.72c2.14,1.79,3.33,3.95,3.56,6.41c0.16,1.73,0.16,3.52,0.16,5.24c0,0.49,0,0.99,0.01,1.48
		c0.02,2.01,0.76,3.65,2.2,4.87c0.36,0.31,0.48,0.59,0.48,1.11c-0.02,2.24-0.02,4.69-0.01,7.72c0.01,2.16,1,3.82,2.86,4.81
		c0.65,0.35,0.83,0.65,0.84,1.43c0.03,2.04,0.91,3.71,2.54,4.81c0.47,0.32,0.99,0.55,1.49,0.77c0.22,0.1,0.44,0.19,0.66,0.3
		l2.5,0.03l0.05-0.02c3.22-1.08,4.84-3.32,4.79-6.65c0.02-0.08,0.24-0.32,0.47-0.45c2.09-1.14,3.16-2.87,3.17-5.13
		c0.01-2.54,0.02-5.08-0.01-7.63c0-0.51,0.12-0.8,0.48-1.11c1.46-1.25,2.2-2.89,2.19-4.88c0-0.69,0-1.39,0-2.08
		c0-0.89,0-1.79,0-2.68c-0.03-3.46,1.25-6.24,3.9-8.49c4.93-4.2,7.92-9.46,8.9-15.65C82.01,50.06,81.46,49.13,80.36,48.95z
		 M62.79,93.03c0,0.07,0,0.14,0,0.21c0,0.37-0.01,0.72-0.07,1.04c-0.2,1.06-0.96,1.64-2.12,1.65c-1.74,0.02-3.47,0.01-5.21,0.01
		l-1.92,0c-1.23,0-2-0.21-2.41-0.66c-0.39-0.42-0.55-1.15-0.49-2.25H62.79z M50.56,89.23v-2.46h12.17v2.46H50.56z M58.08,102.07
		c-0.82,0.61-1.67,0.68-2.54,0.19c-0.94-0.53-1.32-1.34-1.22-2.61h4.67C59.13,100.72,58.84,101.49,58.08,102.07z"/>
	<path class="st1" d="M63,58.24c0.65-0.37,0.98-0.48,1.63-0.04c1.13,0.77,2.51,1.03,3.88,0.74c1.44-0.3,2.72-1.2,3.5-2.45
		c0.8-1.29,1.05-2.86,0.66-4.31c-0.35-1.34-1.2-2.43-2.38-3.07c-1.08-0.58-1.22-1.21-1.1-2.16c0.03-0.21,0.02-0.43,0.01-0.63
		l0.17-0.08c0.27-0.12,0.51-0.24,0.74-0.37c2.57-1.46,3.48-4.74,2.04-7.33c-0.73-1.31-1.98-2.27-3.44-2.64
		c-1.38-0.35-2.78-0.13-3.95,0.61c-0.78,0.5-1.25,0.49-1.92-0.05c-0.16-0.12-0.35-0.24-0.57-0.33c-0.24-0.1-0.33-0.18-0.28-0.6
		c0.19-1.46-0.22-2.88-1.16-4.01c-0.96-1.16-2.4-1.88-3.95-1.97c-1.51-0.09-3.03,0.5-4.14,1.62c-1.03,1.04-1.57,2.42-1.48,3.8
		c0.06,0.91-0.22,1.16-0.97,1.59c-0.63,0.37-0.97,0.48-1.63,0.03c-1.65-1.13-3.57-1.17-5.41-0.15c-1.8,1.01-2.76,2.61-2.78,4.65
		c-0.02,2.4,1.18,4.15,3.58,5.21v2.19l-0.12,0.06c-0.23,0.11-0.45,0.21-0.67,0.33c-1.28,0.7-2.21,1.85-2.61,3.24
		s-0.24,2.86,0.47,4.13c0.73,1.31,1.98,2.27,3.42,2.64c1.38,0.35,2.78,0.13,3.95-0.61c0.77-0.49,1.26-0.47,1.93,0.05
		c0.17,0.13,0.37,0.24,0.57,0.33c0.24,0.1,0.33,0.18,0.27,0.59c-0.19,1.44,0.22,2.86,1.15,4c0.95,1.16,2.36,1.87,3.87,1.97
		c0.12,0.01,0.23,0.01,0.35,0.01c1.46,0,2.88-0.58,3.91-1.62c1.03-1.04,1.55-2.38,1.46-3.79C61.97,58.91,62.25,58.67,63,58.24z
		 M62.05,54c0.01,0.19,0.04,0.5,0,0.57C61.61,55,61,55.3,60.41,55.58l-0.15,0.09c-0.05,0-0.19-0.06-0.37-0.17
		c-1.1-0.73-2.16-1.09-3.23-1.09s-2.14,0.36-3.26,1.09c-0.13,0.08-0.53,0.03-0.66,0.01c-0.03,0-0.12-0.06-0.17-0.1
		c-0.09-0.07-0.2-0.14-0.33-0.19c-0.78-0.29-1.04-0.72-0.99-1.64c0.11-2.17-1.14-3.96-3.54-5.06V46.3c1.87-0.78,3.03-2.11,3.45-3.96
		c0.06-0.28,0.08-0.56,0.1-0.83c0.01-0.11,0.02-0.22,0.03-0.34c0.01-0.15,0.01-0.31,0.01-0.48c0-0.17-0.01-0.46,0.03-0.52
		c0.47-0.41,1.08-0.71,1.67-0.99l0.14-0.07c0.09,0.04,0.23,0.13,0.29,0.18c2.22,1.47,4.22,1.47,6.49,0.01
		c0.13-0.09,0.54-0.03,0.67-0.01c0.03,0.01,0.12,0.06,0.17,0.1c0.09,0.07,0.2,0.14,0.33,0.19c0.75,0.28,1,0.7,0.99,1.66
		c-0.03,2.31,1.17,4.01,3.55,5.06v2.19c-1.87,0.77-3.04,2.1-3.47,3.96c-0.07,0.32-0.1,0.64-0.12,1C62.02,53.62,62.03,53.81,62.05,54
		z M67.42,51.83C67.42,51.83,67.43,51.83,67.42,51.83c0.51,0,0.97,0.19,1.32,0.54c0.34,0.34,0.52,0.78,0.52,1.25
		c0,0.47-0.19,0.91-0.53,1.24c-0.35,0.35-0.84,0.55-1.33,0.53c-0.5-0.01-0.98-0.21-1.32-0.57c-0.33-0.34-0.5-0.79-0.48-1.25
		C65.64,52.6,66.44,51.83,67.42,51.83z M67.4,42.97c-0.48-0.01-0.95-0.22-1.29-0.58c-0.33-0.35-0.51-0.81-0.5-1.26
		c0.04-0.97,0.84-1.73,1.82-1.74c0,0,0.01,0,0.01,0c0.48,0,0.95,0.2,1.3,0.55c0.34,0.34,0.53,0.79,0.52,1.25
		c-0.01,0.47-0.2,0.92-0.54,1.25C68.36,42.79,67.86,42.94,67.4,42.97z M56.66,36.73c-0.54,0.03-0.97-0.18-1.29-0.5
		c-0.33-0.33-0.5-0.79-0.5-1.31c0.01-1.01,0.76-1.75,1.77-1.75c0,0,0,0,0.01,0c0.5,0,0.95,0.18,1.28,0.51
		c0.33,0.33,0.51,0.8,0.5,1.31C58.42,35.99,57.68,36.72,56.66,36.73z M47.15,42.45c-0.36,0.34-0.84,0.54-1.31,0.52
		c-0.49-0.01-0.95-0.21-1.3-0.58c-0.33-0.35-0.51-0.8-0.49-1.27c0.03-0.96,0.85-1.74,1.82-1.74h0c0.49,0,0.97,0.2,1.32,0.56
		c0.34,0.34,0.52,0.79,0.51,1.25C47.69,41.66,47.5,42.11,47.15,42.45z M45.89,51.83c0.01,0,0.01,0,0.02,0
		c0.98,0.01,1.77,0.78,1.79,1.76c0.01,0.47-0.16,0.91-0.49,1.25c-0.35,0.36-0.81,0.55-1.32,0.55c0,0,0,0,0,0
		c-0.5,0-0.97-0.19-1.32-0.54c-0.33-0.33-0.51-0.78-0.51-1.24c0-0.47,0.19-0.92,0.53-1.25C44.93,52.01,45.39,51.83,45.89,51.83z
		 M58.43,59.88c-0.01,0.5-0.2,0.95-0.54,1.27c-0.34,0.33-0.8,0.49-1.3,0.49c-0.98-0.03-1.72-0.8-1.72-1.79
		c0-0.5,0.18-0.96,0.51-1.29c0.32-0.32,0.77-0.5,1.27-0.5c0.01,0,0.01,0,0.02,0c0.5,0,0.95,0.19,1.27,0.52
		C58.27,58.91,58.44,59.37,58.43,59.88z"/>
	<path class="st0" d="M59.94,25.75c6.91,1.22,12.2,4.87,15.72,10.85c1.33,2.26,2.21,4.77,2.6,7.44c0.1,0.66,0.39,1.19,0.83,1.51
		c0.29,0.21,0.62,0.31,0.97,0.31c0.1,0,0.21-0.01,0.32-0.03c1.08-0.19,1.65-1.11,1.44-2.34c-1.24-7.5-5.15-13.44-11.6-17.64
		c-2.94-1.92-6.23-3.15-9.76-3.65l-0.04,0c-1.22-0.05-2.07,0.52-2.2,1.51C58.09,24.79,58.71,25.53,59.94,25.75z"/>
	<path class="st0" d="M56.6,17.36c0.02,0,0.04,0,0.07,0c1.08,0,1.77-0.76,1.81-2.01c0.02-0.62,0.01-1.23,0.01-1.85l0-0.82l0-0.84
		c0-0.64,0.01-1.28-0.01-1.92c-0.02-0.62-0.2-1.13-0.52-1.48c-0.33-0.36-0.81-0.55-1.36-0.53c-1.07,0.03-1.75,0.81-1.76,2.02
		c-0.03,1.83-0.03,3.66,0,5.42C54.85,16.56,55.53,17.33,56.6,17.36z"/>
	<path class="st0" d="M29.03,22.32c1.24,1.25,2.47,2.5,3.73,3.73c0.45,0.44,0.95,0.66,1.44,0.66c0.45,0,0.88-0.18,1.23-0.54
		c0.75-0.77,0.69-1.82-0.15-2.68c-1.48-1.52-2.73-2.75-3.91-3.89c-0.23-0.23-0.51-0.37-0.84-0.54c-0.15-0.08-0.31-0.16-0.49-0.26
		l-0.21-0.12l-0.19,0.16c-0.13,0.11-0.26,0.21-0.4,0.31c-0.31,0.23-0.63,0.47-0.84,0.8c-0.44,0.68-0.3,1.46,0.38,2.15L29.03,22.32z"
		/>
	<path class="st0" d="M84.94,20.06c-0.22-0.34-0.46-0.73-0.85-0.88c-0.56-0.21-1.47-0.17-1.91,0.22c-1.66,1.51-3.22,3.13-4.4,4.37
		c-0.65,0.69-0.63,1.59,0.06,2.36c0.33,0.36,0.76,0.57,1.23,0.59c0.02,0,0.04,0,0.07,0c0.43,0,0.84-0.17,1.17-0.48
		c1.51-1.44,2.99-2.95,4.37-4.37c0.18-0.19,0.27-0.43,0.37-0.7c0.05-0.12,0.1-0.26,0.16-0.41l0.09-0.19l-0.13-0.17
		C85.09,20.3,85.02,20.18,84.94,20.06z"/>
	<path class="st0" d="M34.82,68.25c-0.11-0.07-0.23-0.13-0.32-0.2l-0.16-0.12L34.16,68c-0.14,0.06-0.28,0.1-0.39,0.13
		c-0.26,0.08-0.49,0.15-0.67,0.33l-0.4,0.39c-1.38,1.35-2.81,2.75-4.16,4.2c-0.6,0.64-0.52,1.58,0.19,2.29
		c0.38,0.38,0.83,0.57,1.26,0.57c0.34,0,0.68-0.13,0.95-0.38c1.72-1.61,3.24-3.13,4.64-4.65c0.39-0.43,0.3-1.37,0.09-1.85
		C35.52,68.66,35.15,68.44,34.82,68.25z"/>
	<path class="st0" d="M85.07,73.65c-0.1-0.28-0.18-0.52-0.37-0.71l-0.12-0.12c-1.4-1.44-2.84-2.92-4.33-4.32
		c-0.7-0.65-1.65-0.6-2.37,0.13c-0.72,0.73-0.76,1.68-0.11,2.37c1.62,1.72,3.08,3.17,4.46,4.43c0.25,0.22,0.66,0.33,1.07,0.33
		c0.28,0,0.55-0.05,0.77-0.14c0.39-0.16,0.64-0.53,0.86-0.86c0.08-0.12,0.16-0.24,0.24-0.34l0.13-0.16l-0.08-0.2
		C85.16,73.92,85.11,73.78,85.07,73.65z"/>
	<path class="st0" d="M24.84,45.63c-0.67-0.02-1.33-0.02-2-0.01l-0.86,0l-0.91,0c-0.71-0.01-1.43-0.01-2.14,0.01
		c-1.03,0.03-1.81,0.79-1.8,1.78c0.01,0.99,0.79,1.75,1.83,1.76c0.99,0.01,1.98,0.02,2.95,0.02c1,0,1.99-0.01,2.95-0.02
		c1.02-0.01,1.82-0.8,1.81-1.78C26.66,46.41,25.88,45.66,24.84,45.63z"/>
	<path class="st0" d="M95.72,46.2c-0.34-0.36-0.84-0.57-1.41-0.58c-0.68-0.02-1.35-0.01-2.03-0.01l-0.83,0l-0.88,0
		c-0.69,0-1.39-0.01-2.08,0.01c-1.06,0.03-1.82,0.74-1.85,1.72c-0.01,0.47,0.15,0.92,0.48,1.25c0.35,0.36,0.85,0.57,1.4,0.57
		c0.96,0.01,1.93,0.01,2.9,0.01c0.97,0,1.94,0,2.9-0.01c1.04-0.01,1.82-0.74,1.85-1.73C96.19,46.97,96.03,46.53,95.72,46.2z"/>
</g>
</svg>
