<svg xmlns="http://www.w3.org/2000/svg" width="383" height="82.083"><g data-name="Сгруппировать 361"><path data-name="Контур 1026" d="M218.13 6.334c-.735-.647-1.3-1.343-.828-2.14.425-.712 1.235-.316 2-.143-.269-.325-.486-.556-.667-.813a.806.806 0 01-.147-.828c.15-.313.471-.283.733-.243a3.753 3.753 0 013.03 1.7c.311.551.126.848-.521.835a4.494 4.494 0 01-.716-.1c-.216-.039-.429-.1-.718-.163a8.779 8.779 0 01.733.978c.352.733.013 1.34-.79 1.36-.342.008-.684 0-1.065 0a3.2 3.2 0 01.891 1.517c.181 1.117-.178 1.681-1.294 1.747a3.858 3.858 0 01-2.556-.658 2.361 2.361 0 01-.88-2.347 1.022 1.022 0 01.762-.706 2.459 2.459 0 011.179-.062c.23.036.467.038.853.066" fill="#68bd45"/><path data-name="Контур 1027" d="M212.763 29.248a2.68 2.68 0 01-.373 1.622 2.721 2.721 0 01-2.793 1.2 3.051 3.051 0 01-2.235-4.88 2.136 2.136 0 011.1-.819 3.751 3.751 0 013.157.2 2.653 2.653 0 011.143 2.676" fill="#68bd45"/><path data-name="Контур 1028" d="M203.251 28.701a2.56 2.56 0 01-2.893-2.879 2.757 2.757 0 013.127-2.968c2.041.059 2.676 1.169 2.683 2.955.009 1.754-.707 2.985-2.917 2.9" fill="#68bd45"/><path data-name="Контур 1029" d="M211.265 22.721a2.425 2.425 0 011.127-2.484 2.989 2.989 0 014.509 2.3 4.079 4.079 0 01-.085 1.389 2.167 2.167 0 01-1.954 1.658 4.207 4.207 0 01-2.2-.161 2.48 2.48 0 01-1.4-2.705" fill="#68bd45"/><path data-name="Контур 1030" d="M207.132 22.95a2.729 2.729 0 01-2.052-.906 3.155 3.155 0 01-.27-3.423c.538-1.106 1.613-1.258 2.7-1.236a2.962 2.962 0 011.65.352 2.724 2.724 0 011.217 2.482 2.434 2.434 0 01-1.228 2.342 3.755 3.755 0 01-2.016.385" fill="#68bd45"/><path data-name="Контур 1031" d="M213.866 31.759a4.088 4.088 0 01.151-1.151 2.172 2.172 0 012.263-1.664c.328 0 .659-.022.984.009a2.088 2.088 0 011.845 1.3 3.629 3.629 0 010 2.964 2.166 2.166 0 01-1.288 1.2c-1.008.381-2.954.358-3.592-.748a3.245 3.245 0 01-.364-1.914" fill="#68bd45"/><path data-name="Контур 1032" d="M200.605 21.393c-.2 2.024-1.076 3.129-3.345 2.985a2.049 2.049 0 01-1.942-1.141c-.484-1.037-.243-3.488 1.427-4.151 1.3-.517 2.843-.291 3.436.75a4.22 4.22 0 01.424 1.557" fill="#68bd45"/><path data-name="Контур 1033" d="M205.907 37.725a3.2 3.2 0 01-.835-.065 2.47 2.47 0 01-1.853-2.657 2.391 2.391 0 011.377-2.409c1.265-.5 3.409-.425 4.022 1.305a2.9 2.9 0 01-1.195 3.636 3.286 3.286 0 01-1.517.19" fill="#68bd45"/><path data-name="Контур 1034" d="M202.284 32.232a2.318 2.318 0 01-1.151 2.371 3.042 3.042 0 01-3.233-.267 2.727 2.727 0 01-.926-2.8c.261-2.061 1.9-2.474 3.548-2.05 1.3.334 1.76 1.186 1.762 2.747" fill="#68bd45"/><path data-name="Контур 1035" d="M220.189 22.837a2.4 2.4 0 012.677 2.432 3.88 3.88 0 01-.326 2.2 2.458 2.458 0 01-2.553 1c-1.871-.347-2.258-1.868-2.217-3.428a2.146 2.146 0 012.419-2.208" fill="#68bd45"/><path data-name="Контур 1036" d="M212.46 34.86a2.3 2.3 0 012.352 1.113c.471.907.406 3.058-.776 3.7a3.32 3.32 0 01-3.266.138 2.36 2.36 0 01-1.109-2.434 2.376 2.376 0 012.8-2.521" fill="#68bd45"/><path data-name="Контур 1037" d="M201.965 18.717c-2.426.109-2.822-1.625-2.369-3.293a2.153 2.153 0 011.321-1.5 4 4 0 012.832-.148 2.337 2.337 0 011.147 3.021c-.506 1.43-1.249 1.918-2.93 1.92" fill="#68bd45"/><path data-name="Контур 1038" d="M219.68 35.783a2.669 2.669 0 012.9-3.107 1.95 1.95 0 012.048 1.778 3.523 3.523 0 01-.384 2.353 3.075 3.075 0 01-3.576 1.031 1.782 1.782 0 01-.982-1.534 3.882 3.882 0 010-.521" fill="#68bd45"/><path data-name="Контур 1039" d="M196.577 28.423c-.014 1.149-.156 2.118-1.156 2.536-1.624.681-3.449.287-3.7-1.886a4.689 4.689 0 01.027-1.287 2.263 2.263 0 011.653-1.81 2.462 2.462 0 012.773.881 2.579 2.579 0 01.4 1.561" fill="#68bd45"/><path data-name="Контур 1040" d="M192.352 16.973c.029-2.244 1.665-3.05 3.378-2.964a1.488 1.488 0 011.489 1.272c.356 2.141-.894 4.074-3.565 3.732-.9-.116-1.37-.889-1.3-2.041" fill="#68bd45"/><path data-name="Контур 1041" d="M227.706 29.17a2.65 2.65 0 01-.729 2.23 2.323 2.323 0 01-2.483.346 2.052 2.052 0 01-1.252-1.825 3.74 3.74 0 01.287-2.279 2.146 2.146 0 012.395-1.023 2 2 0 011.777 1.931 3.415 3.415 0 01.005.621" fill="#68bd45"/><path data-name="Контур 1042" d="M192.323 23.677a3.226 3.226 0 01-.33 1.808 1.82 1.82 0 01-1.721 1.031c-.19-.005-.38 0-.571 0a1.575 1.575 0 01-1.671-1.262 3.931 3.931 0 01.335-2.919 2.223 2.223 0 012.2-1.082 1.63 1.63 0 011.587.948 3.383 3.383 0 01.169 1.478" fill="#68bd45"/><path data-name="Контур 1043" d="M214.999 41.153c-.034-2.427 2.611-3.162 4.1-2.44a1.733 1.733 0 01.9 1.749c-.066 2.5-1.994 3.115-3.753 2.663-.875-.224-1.256-.9-1.251-1.971" fill="#68bd45"/><path data-name="Контур 1044" d="M200.848 12.995a2.292 2.292 0 01-1.227-.2 1.286 1.286 0 01-.822-1.152 2.394 2.394 0 01.879-2.445 3.375 3.375 0 013.293-.407 1.613 1.613 0 011.031 1.491 2.378 2.378 0 01-1.806 2.513 3.138 3.138 0 01-1.348.2" fill="#68bd45"/><path data-name="Контур 1045" d="M201.848 3.18a3.6 3.6 0 012.213-.4 1.055 1.055 0 011.156.767 1.134 1.134 0 01-.4 1.305 3.373 3.373 0 01-2.945.571 1.075 1.075 0 01-.559-1.8c.079-.108.173-.207.348-.416-.478.127-.846.209-1.205.322a3.64 3.64 0 01-1.734.139.7.7 0 01-.5-1.152 3.3 3.3 0 012.547-1.287 4.657 4.657 0 01.673-.017c.352.007.709.026.887.4.191.41-.036.731-.246 1.049-.088.134-.289.2-.235.51" fill="#68bd45"/><path data-name="Контур 1046" d="M226.585 40.123a2.984 2.984 0 01-3.045 3.067 1.352 1.352 0 01-1.528-1.353c-.048-1.568.507-3.1 2.481-3.454a1.616 1.616 0 012.092 1.741" fill="#68bd45"/><path data-name="Контур 1047" d="M188.51 21.208c-1.054-.007-1.473-.393-1.56-1.373a3.028 3.028 0 011.351-3.136 2.494 2.494 0 011.526-.4 1.183 1.183 0 011.065.706 3.4 3.4 0 01-1.388 3.97 2.343 2.343 0 01-.993.241" fill="#68bd45"/><path data-name="Контур 1048" d="M196.244 9.008c1.255 0 1.715.69 1.411 1.938a3.08 3.08 0 01-3.1 2.339c-1.078.068-1.637-.562-1.555-1.639.125-1.651 1.339-2.638 3.246-2.638" fill="#68bd45"/><path data-name="Контур 1049" d="M228.901 31.104c1.1-.061 1.654.41 1.733 1.366a4.364 4.364 0 01-.377 2.617 2.071 2.071 0 01-2.62.783 1.313 1.313 0 01-.694-.917 4.061 4.061 0 01.343-2.917 1.579 1.579 0 011.615-.932" fill="#68bd45"/><path data-name="Контур 1050" d="M214.223 2.282a1.821 1.821 0 01-.593-.774c-.142-.376-.026-.7.363-.767a3.812 3.812 0 013.379.84 1.28 1.28 0 01.269.376.555.555 0 01-.524.881 8.064 8.064 0 01-1.66-.071c0 .27.212.374.322.538a.947.947 0 01-.742 1.596 4.021 4.021 0 01-2.539-.476 1.258 1.258 0 01-.56-1.485c.2-.545.69-.628 1.188-.653.342-.016.685 0 1.1 0" fill="#68bd45"/><path data-name="Контур 1051" d="M193.885 51.973a9.646 9.646 0 01-.8-1.009 1.472 1.472 0 01-.182-.9.567.567 0 01.568-.559 3.8 3.8 0 012.546.679 2.117 2.117 0 01.828 1.331.88.88 0 01-.823 1.043 4.081 4.081 0 01-1.331-.208c.251.514.714.82.792 1.359.06.407-.137.746-.517.673a4.513 4.513 0 01-2.85-1.421 2 2 0 01-.152-.209c-.185-.3-.393-.625-.161-.957.22-.315.564-.234.9-.15a7.227 7.227 0 011.182.325" fill="#68bd45"/><path data-name="Контур 1052" d="M193.871 44.867c.056 1.037-.528 1.45-1.489 1.4a2.879 2.879 0 01-2.887-2.722c-.2-1.317.5-1.99 1.806-1.738a3.084 3.084 0 012.57 3.064" fill="#68bd45"/><path data-name="Контур 1053" d="M205.73 8.771c-.987-.017-1.756.025-2.288-.7a1.657 1.657 0 01.165-2.124 3.31 3.31 0 012.98-.72 2.775 2.775 0 01.9.224 1.655 1.655 0 01.7 1.858 1.67 1.67 0 01-1.295 1.336 5.092 5.092 0 01-1.162.126" fill="#68bd45"/><path data-name="Контур 1054" d="M221.733 9.632a3.077 3.077 0 013.171 3.257 1.057 1.057 0 01-.972 1.036 3.167 3.167 0 01-3.6-2.65c-.14-.9.246-1.755 1.4-1.643" fill="#68bd45"/><path data-name="Контур 1055" d="M212.412 8.222a4.029 4.029 0 01-2.482-.7 1.685 1.685 0 01-.463-1.8 1.358 1.358 0 011.292-1.024 4.463 4.463 0 012.576.358 1.848 1.848 0 011.066 1.542 1.378 1.378 0 01-1.169 1.524c-.27.046-.546.066-.82.1" fill="#68bd45"/><path data-name="Контур 1056" d="M217.298 48.52c-1.667.15-1.879-1.258-1.482-2.4a2.3 2.3 0 012.085-1.459 2.145 2.145 0 011.659.144 1.008 1.008 0 01.5.738c.252 1.771-.842 2.958-2.757 2.973" fill="#68bd45"/><path data-name="Контур 1057" d="M224.153 44.18a1.185 1.185 0 011.353 1.513 3.262 3.262 0 01-3.368 2.62 1.122 1.122 0 01-1.058-1.285 2.947 2.947 0 011.8-2.626 4.193 4.193 0 011.27-.221" fill="#68bd45"/><path data-name="Контур 1058" d="M213.988 48.568h.261c.7-.026 1.374.031 1.668.818a1.941 1.941 0 01-.706 2.076 3.455 3.455 0 01-3.111.43 1.138 1.138 0 01-.854-1.157 1.774 1.774 0 01.945-1.8 3.239 3.239 0 011.8-.364" fill="#68bd45"/><path data-name="Контур 1059" d="M202.106 52.243a2.842 2.842 0 01-2.38-.878c-.424-.507-.637-1.793.016-2.265a1.9 1.9 0 011-.377 3.875 3.875 0 012.416.571 1.957 1.957 0 01.861 1.78 1.248 1.248 0 01-1.183 1.165 6.724 6.724 0 01-.724 0" fill="#68bd45"/><path data-name="Контур 1060" d="M198.26 8.654c-.143.013-.178.017-.212.018-.638.017-1.266-.023-1.625-.658a1.906 1.906 0 01.438-1.919 3.85 3.85 0 013.348-.967c.749.1 1.044.926.738 1.8a2.3 2.3 0 01-1.494 1.469 2.345 2.345 0 01-1.193.259" fill="#68bd45"/><path data-name="Контур 1061" d="M195.347 46.086a2.959 2.959 0 012.665 1.377 2.543 2.543 0 01.3 1.244 1.028 1.028 0 01-.714 1.039c-1.235.447-3.433-.308-3.734-2.037-.19-1.093.216-1.63 1.483-1.622" fill="#68bd45"/><path data-name="Контур 1062" d="M207.557 52.985a4.961 4.961 0 01-1.442-.275 1.5 1.5 0 01-.958-1.651 1.484 1.484 0 011.261-1.249 4.248 4.248 0 012.2-.012 1.537 1.537 0 011.336 1.58 1.51 1.51 0 01-1.39 1.486c-.338.065-.684.087-1 .125" fill="#68bd45"/><path data-name="Контур 1063" d="M191.697 12.386a3.02 3.02 0 01-2.6 3.075 1.159 1.159 0 01-1.443-1.137 3.094 3.094 0 012.715-3.151c.987-.1 1.34.233 1.331 1.213" fill="#68bd45"/><path data-name="Контур 1064" d="M227.775 39.619a3.219 3.219 0 01.735-2.395 2.092 2.092 0 011.825-.792.885.885 0 01.884.742 4.033 4.033 0 01-.577 3.023 2.238 2.238 0 01-1.927.92.908.908 0 01-.937-.913c-.017-.207 0-.415 0-.586" fill="#68bd45"/><path data-name="Контур 1065" d="M220.591 48.698a1.109 1.109 0 011.2.478 1.434 1.434 0 01-.088 1.431 3.356 3.356 0 01-3.194 1.617c-.742.012-1.041-.387-1.015-1.132a2.44 2.44 0 011.911-2.18 2.893 2.893 0 011.188-.215" fill="#68bd45"/><path data-name="Контур 1066" d="M230.502 42.869a3.4 3.4 0 01-2.642 3.183.771.771 0 01-1-.852 3.371 3.371 0 012.228-3.285.973.973 0 011.414.954" fill="#68bd45"/><path data-name="Контур 1067" d="M192.793 6.937c.966-.009 1.325.482 1 1.457a3 3 0 01-2.4 2.1c-.458.09-.988.308-1.349-.176a1.372 1.372 0 01.033-1.419 2.977 2.977 0 012.718-1.962" fill="#68bd45"/><path data-name="Контур 1068" d="M191.342 49.566a3.294 3.294 0 01-2.81-2.25c-.085-.372-.312-.737-.057-1.147a.661.661 0 01.623-.382 3.249 3.249 0 013.173 2.556c.172.8-.177 1.226-.932 1.226" fill="#68bd45"/><path data-name="Контур 1069" d="M225.962 9.355c0 .657-.17.833-.819.844a3.177 3.177 0 01-3.154-2.56c-.117-.644.173-1.028.831-.995a3.4 3.4 0 013.03 2 1.711 1.711 0 01.107.712" fill="#68bd45"/><path data-name="Контур 1070" d="M196.456 3.59c.9-.042 1.265.424 1.018 1.209a2.218 2.218 0 01-1.103 1.241 3.659 3.659 0 01-2.4.569c-.625-.092-.814-.5-.559-1.1a3.279 3.279 0 012.553-1.864 4.435 4.435 0 01.491-.056" fill="#68bd45"/><path data-name="Контур 1071" d="M214.169 54.738a1.954 1.954 0 01-.949-.254c-.593-.338-.736-.844-.257-1.577a1.681 1.681 0 01.887-.678 4.141 4.141 0 012.405-.225.833.833 0 01.616 1.119 1.631 1.631 0 01-.592.887 4.993 4.993 0 01-2.111.731" fill="#68bd45"/><path data-name="Контур 1072" d="M208.365 4.696a3.358 3.358 0 01-1.3-.256 1.077 1.077 0 01-.762-1.208 1.228 1.228 0 011.1-1.067 6.368 6.368 0 011.944 0 1.4 1.4 0 011.151 1.112 1.183 1.183 0 01-.764 1.17 2.949 2.949 0 01-1.369.25" fill="#68bd45"/><path data-name="Контур 1073" d="M227.447 46.705c.555 0 .811.309.659.894a3.684 3.684 0 01-2.259 2.578 3.063 3.063 0 01-.439.148.777.777 0 01-1.009-.874 3.262 3.262 0 013.048-2.746" fill="#68bd45"/><path data-name="Контур 1074" d="M221.442 53.616c-.712 0-.993-.432-.714-1.092a3.062 3.062 0 012.085-1.719 3.356 3.356 0 011.049-.256c.668.01.945.4.694 1.022a4.107 4.107 0 01-3.114 2.045" fill="#68bd45"/><path data-name="Контур 1075" d="M204.407 53.074a2.794 2.794 0 011.417.225 1.049 1.049 0 01-.091 2.058 3.014 3.014 0 01-2.163-.218 1.316 1.316 0 01-.693-.737.935.935 0 01.862-1.322 4.408 4.408 0 01.668-.005" fill="#68bd45"/><path data-name="Контур 1076" d="M209.611 53.246a2.369 2.369 0 011.234.189.968.968 0 01.113 1.663 3.186 3.186 0 01-2.874.224.833.833 0 01-.572-.887.917.917 0 01.568-.898 2.969 2.969 0 011.53-.3" fill="#68bd45"/><path data-name="Контур 1077" d="M212.679 57.239a2.115 2.115 0 01-.759-.138c-.644-.272-.77-.69-.342-1.238a1.077 1.077 0 01.3-.285 4.316 4.316 0 013.32-.441.615.615 0 01.348.957 1.483 1.483 0 01-.632.594 6.563 6.563 0 01-2.231.55" fill="#68bd45"/><path data-name="Контур 1078" d="M205.004 2.19a2.467 2.467 0 01-1.074-.114.8.8 0 01-.216-1.463A2.717 2.717 0 01204.97.18a3.433 3.433 0 012.184.147.753.753 0 01.161 1.284 3.082 3.082 0 01-1.845.576 4.655 4.655 0 01-.467 0" fill="#68bd45"/><path data-name="Контур 1079" d="M217.26 56.004c-.3-.014-.458-.005-.61-.031-.5-.085-.638-.365-.468-.848a1.953 1.953 0 01.868-1.048 3.863 3.863 0 012.614-.543c.53.075.638.367.441.855a1.652 1.652 0 01-.6.758 4.6 4.6 0 01-2.247.857" fill="#68bd45"/><path data-name="Контур 1080" d="M211.104 2.096a5.736 5.736 0 01-2.106-.462.808.808 0 01-.517-.868.814.814 0 01.731-.645 4.7 4.7 0 012.894.248c.355.151.683.384.658.841s-.343.638-.736.757a2.962 2.962 0 01-.923.129" fill="#68bd45"/><path data-name="Контур 1081" d="M202.338 55.231a4.745 4.745 0 012.289.516.87.87 0 01.454.961c-.068.4-.4.482-.727.546a4.64 4.64 0 01-2.631-.309c-.533-.209-1.01-.845-.875-1.162.23-.537.737-.553 1.231-.551h.259" fill="#68bd45"/><path data-name="Контур 1082" d="M200.395 54.343a2.8 2.8 0 01-2.109-.813 1.14 1.14 0 01-.222-1.286 1.171 1.171 0 011.265-.329c.471.148 1.008.04 1.434.365.1.073.212.12.306.2a1.436 1.436 0 01.508 1.335c-.114.356-.493.532-1.182.532" fill="#68bd45"/><path data-name="Контур 1083" d="M199.514 56.305a6.255 6.255 0 01-2.751-.937 1.217 1.217 0 01-.491-.647c-.117-.417.075-.82.506-.826a4.7 4.7 0 013.1.928 1.3 1.3 0 01.289.36c.142.237.311.489.161.771a.786.786 0 01-.811.351" fill="#68bd45"/><path data-name="Контур 1084" d="M208.19 57.651a3.558 3.558 0 01-1.607-.316.674.674 0 01-.1-1.257 1.587 1.587 0 01.865-.313 30.621 30.621 0 011.964 0 1.2 1.2 0 01.707.287.71.71 0 01-.075 1.264 3.6 3.6 0 01-1.758.339" fill="#68bd45"/><path data-name="Контур 1085" d="M226.097 7.512a3.557 3.557 0 01-2.959-2.293c-.133-.53.153-.894.633-.729a4.417 4.417 0 012.587 1.759 1.711 1.711 0 01.241.673c.053.42-.1.631-.5.59" fill="#68bd45"/><path data-name="Контур 1086" d="M190.762 51.854a3.783 3.783 0 01-2.951-2.62c-.042-.41.241-.543.593-.53a3.68 3.68 0 012.833 2.618.441.441 0 01-.475.532" fill="#68bd45"/><path data-name="Контур 1087" d="M44.972 50.562h-8.093l-7.11-14.51a13.409 13.409 0 013.874-.577 12.642 12.642 0 00-4.22-.174l-.059.06a4.42 4.42 0 00-.867.114 39.355 39.355 0 00-16.473 7.284l-4.047 7.8H0l22.89-43.7 13.067 25.843a29.061 29.061 0 019.019 3.062 44.048 44.048 0 00-7.92-.924zM22.717 21.833l-5.9 11.447a9.389 9.389 0 00-3.816 3.18 10.059 10.059 0 013.179-1.967h.059a38.617 38.617 0 0111.618-2.313h.057L22.77 21.716z" fill="#fff"/><path data-name="Контур 1088" d="M65.26 14.608v.057h-4.1l4.1.81v35.086h-7.4V14.608H47.397V8.192h28.324v6.416z" fill="#fff"/><path data-name="Контур 1089" d="M121.387 50.56l-4.1-21.213 1.619-5.2-1.964 3.586-13.7 23.352-12.318-21.68-2.832-5.261 1.56 5.031-4.624 21.385h-7.86l.058-.289 10-42.426L103.41 38.19l16.706-30.344 9.074 42.714z" fill="#fff"/><path data-name="Контур 1090" d="M177.514 29.463a20.078 20.078 0 01-6.763 15.261 23.107 23.107 0 01-16.243 6.3 23.334 23.334 0 01-15.206-5.608 20.171 20.171 0 01-7.4-16.241 20.085 20.085 0 016.767-15.142 22.911 22.911 0 0116.127-6.3 22.544 22.544 0 0116.012 6.353 20.642 20.642 0 016.706 15.377m-6.07-.926a11.225 11.225 0 01-1.156 2.718 5.537 5.537 0 01-1.214 1.678c1.907-2.774.751-7.63.4-9.074a15.1 15.1 0 00-3.583-5.377 15.584 15.584 0 00-11.152-4.396 17.7 17.7 0 00-5.319.81c-8.15 2.543-10.693 10.462-11.503 14.737a11.968 11.968 0 011.273-2.716 5.26 5.26 0 01.924-1.214c-1.33 1.964-1.157 4.97-.751 7.05a14.159 14.159 0 004.339 7.635 15.8 15.8 0 0010.867 4.337 15.661 15.661 0 0011.272-4.454 16.122 16.122 0 003.061-4.159 25.279 25.279 0 002.542-7.579" fill="#fff"/><path data-name="Контур 1091" d="M248.998 15.087v8.686l-3.293.68h18.279v6.3h-14.986v19.529h-7.266V8.727h22.818v6.36z" fill="#fff"/><path data-name="Контур 1092" d="M278.174 14.974v8.742l-3.293.683h20.722v6.3h-17.429v12.6l-3.293.683h21.231v6.3h-25.2V8.673h25.2v6.3z" fill="#fff"/><path data-name="Контур 1093" d="M333.126 50.283h-8.913l-12.772-16.8h-.8v16.8h-7.262V8.673h8.175c5.9 0 10.274 1.021 12.942 3.121a11.142 11.142 0 014.428 9.2 11.292 11.292 0 01-2.781 7.664 12.429 12.429 0 01-6.925 4.03zM312.52 27.576a12.81 12.81 0 006.754-1.476c3.576-1.929 4.2-6.3 4.2-6.3a8.661 8.661 0 01-1.76 2.725 12.146 12.146 0 00.113-1.476c0-4.089-2.951-6.074-9.025-6.074h-2.158v12.6z" fill="#fff"/><path data-name="Контур 1094" d="M380.352 50.283h-7.946l-6.983-14.25a13.133 13.133 0 013.8-.567 12.439 12.439 0 00-4.143-.172l-.057.059a4.252 4.252 0 00-.852.113 38.663 38.663 0 00-16.178 7.153l-3.976 7.664h-7.833l22.488-42.916 12.829 25.376a28.516 28.516 0 018.851 3.006 43.221 43.221 0 00-7.776-.909zM358.5 22.068l-5.789 11.242a9.2 9.2 0 00-3.745 3.123 9.855 9.855 0 013.12-1.931h.057a37.921 37.921 0 0111.409-2.271h.057l-5.053-10.276z" fill="#fff"/><path data-name="Контур 1095" d="M199.647 70.261h-6.84v3.262h5.95v2.452h-5.95v5.771h-3.082V67.668h9.922z" fill="#68bd45"/><path data-name="Прямоугольник 131" fill="#68bd45" d="M206.196 67.672h3.103v14.074h-3.103z"/><path data-name="Контур 1096" d="M227.234 70.301h-4.233v11.445h-3.1V70.301h-4.23v-2.633h11.563z" fill="#68bd45"/><path data-name="Контур 1097" d="M233.601 67.668h3.144l5.792 9.429v-9.429h2.964v14.078h-3.083l-5.832-9.449v9.449h-2.985z" fill="#68bd45"/><path data-name="Контур 1098" d="M263.551 70.202h-7.489v3.066h6.88v2.431h-6.88v3.459h7.63v2.59h-10.694v-14.08h10.553z" fill="#68bd45"/><path data-name="Контур 1099" d="M278.049 71.864c-.118-1.365-1.028-2.1-2.668-2.1-1.424 0-2.274.593-2.274 1.6 0 1.225 1.5 1.323 4.308 2.115 2.51.711 4.112 1.68 4.112 4.031 0 3.322-2.926 4.548-5.792 4.548-3.816 0-6.069-1.838-6.108-5.022h3.062c.059 1.9 1.3 2.65 3.181 2.65 1.622 0 2.611-.712 2.611-1.877 0-1.108-.949-1.305-3.855-2.136-2.295-.651-4.488-1.226-4.488-4.091 0-2.551 2.135-4.211 5.416-4.211 2.965 0 5.358 1.344 5.417 4.488z" fill="#68bd45"/><path data-name="Контур 1100" d="M295.627 71.864c-.118-1.365-1.027-2.1-2.668-2.1-1.424 0-2.274.593-2.274 1.6 0 1.225 1.5 1.323 4.308 2.115 2.51.711 4.112 1.68 4.112 4.031 0 3.322-2.925 4.548-5.792 4.548-3.816 0-6.069-1.838-6.108-5.022h3.064c.059 1.9 1.3 2.65 3.181 2.65 1.621 0 2.611-.712 2.611-1.877 0-1.108-.949-1.305-3.855-2.136-2.295-.651-4.488-1.226-4.488-4.091 0-2.551 2.135-4.211 5.416-4.211 2.965 0 5.358 1.344 5.416 4.488z" fill="#68bd45"/><path data-name="Контур 1101" d="M322.221 82.084c-4.091 0-6.8-2.946-6.8-7.393 0-4.091 2.611-7.354 6.919-7.354 3.381 0 5.852 2.136 6.088 5.042h-3.024a2.954 2.954 0 00-3.123-2.452c-2.709 0-3.757 2.432-3.757 4.786 0 2.9 1.444 4.762 3.717 4.762 1.859 0 2.965-1.106 3.223-3.162h3.064c-.316 3.44-2.452 5.772-6.307 5.772" fill="#68bd45"/><path data-name="Контур 1102" d="M345.314 81.746h-9.962V67.668h3.084v11.429h6.879z" fill="#68bd45"/><path data-name="Контур 1103" d="M363.801 76.132c0 4.013-1.877 5.892-5.989 5.892-4.191 0-6.069-1.918-6.069-5.931v-8.425h3.084v8.421c0 2.154.612 3.38 3.024 3.38 2.373 0 2.867-1.3 2.867-3.38v-8.421h3.084z" fill="#68bd45"/><path data-name="Контур 1104" d="M377.861 67.668c2.47 0 4.487 1.047 4.487 3.537a3.1 3.1 0 01-1.918 2.907 3.316 3.316 0 012.57 3.44c0 2.747-2.115 4.19-4.763 4.19h-7.039V67.668zm-3.657 5.7h2.807c1.127 0 2.332-.218 2.332-1.641s-1.147-1.66-2.332-1.66h-2.807zm0 5.93h3.1c1.325 0 2.609-.257 2.609-1.916 0-1.7-1.385-1.919-2.767-1.919H374.2z" fill="#68bd45"/></g></svg>