<svg xmlns="http://www.w3.org/2000/svg" width="217.874" height="46.841"><g data-name="Сгруппировать 53"><g data-name="Сгруппировать 51" fill="#69a71a"><path data-name="Контур 91" d="M124.216 3.607c-.418-.369-.742-.765-.471-1.219.242-.406.7-.18 1.139-.081-.154-.185-.277-.317-.38-.463a.459.459 0 01-.084-.472c.085-.178.268-.161.417-.138a2.139 2.139 0 011.726.967c.177.314.072.483-.3.475a2.571 2.571 0 01-.407-.055c-.124-.022-.245-.055-.409-.093a4.964 4.964 0 01.417.557c.2.418.007.764-.45.774-.194.005-.389 0-.606 0a1.827 1.827 0 01.508.863c.1.636-.1.957-.737 1a2.2 2.2 0 01-1.455-.375 1.345 1.345 0 01-.5-1.336.582.582 0 01.434-.4 1.4 1.4 0 01.671-.036c.133.015.267.016.487.032z"/><path data-name="Контур 92" d="M121.16 16.656a1.521 1.521 0 01-.212.924 1.551 1.551 0 01-1.59.684 1.738 1.738 0 01-1.273-2.78 1.221 1.221 0 01.627-.466 2.137 2.137 0 011.8.114 1.51 1.51 0 01.648 1.524z"/><path data-name="Контур 93" d="M115.743 16.345a1.459 1.459 0 01-1.647-1.642 1.571 1.571 0 011.781-1.691c1.162.034 1.523.666 1.528 1.683.005.999-.403 1.7-1.662 1.65z"/><path data-name="Контур 94" d="M120.307 12.937a1.381 1.381 0 01.641-1.415 1.7 1.7 0 012.568 1.311 2.319 2.319 0 01-.047.792 1.232 1.232 0 01-1.113.944 2.4 2.4 0 01-1.251-.091 1.412 1.412 0 01-.798-1.541z"/><path data-name="Контур 95" d="M117.954 13.07a1.56 1.56 0 01-1.169-.516 1.8 1.8 0 01-.154-1.95 1.468 1.468 0 011.54-.7 1.678 1.678 0 01.94.2 1.551 1.551 0 01.693 1.413 1.386 1.386 0 01-.7 1.337 2.137 2.137 0 01-1.15.216z"/><path data-name="Контур 96" d="M121.788 18.086a2.344 2.344 0 01.086-.655 1.236 1.236 0 011.288-.948c.187 0 .376-.012.561.006a1.186 1.186 0 011.05.741 2.064 2.064 0 010 1.688 1.232 1.232 0 01-.733.683c-.574.217-1.683.2-2.046-.425a1.844 1.844 0 01-.206-1.09z"/><path data-name="Контур 97" d="M114.237 12.184c-.114 1.152-.613 1.781-1.906 1.7a1.165 1.165 0 01-1.1-.649 1.918 1.918 0 01.813-2.364 1.574 1.574 0 011.956.427 2.4 2.4 0 01.237.886z"/><path data-name="Контур 98" d="M117.256 21.483a1.8 1.8 0 01-.476-.037 1.4 1.4 0 01-1.054-1.513 1.358 1.358 0 01.784-1.371c.72-.283 1.94-.242 2.29.743a1.649 1.649 0 01-.681 2.07 1.855 1.855 0 01-.863.108z"/><path data-name="Контур 99" d="M115.193 18.355a1.319 1.319 0 01-.654 1.35 1.732 1.732 0 01-1.842-.152 1.554 1.554 0 01-.527-1.595c.148-1.174 1.08-1.409 2.02-1.168.741.191 1.002.675 1.003 1.565z"/><path data-name="Контур 100" d="M125.389 13.005a1.366 1.366 0 011.525 1.385 2.218 2.218 0 01-.186 1.252 1.4 1.4 0 01-1.454.572c-1.066-.2-1.286-1.064-1.262-1.953a1.221 1.221 0 011.377-1.256z"/><path data-name="Контур 101" d="M120.988 19.851a1.308 1.308 0 011.339.634c.268.517.231 1.741-.442 2.109a1.891 1.891 0 01-1.86.079 1.564 1.564 0 01.963-2.822z"/><path data-name="Контур 102" d="M115.011 10.659c-1.381.062-1.607-.925-1.349-1.876a1.228 1.228 0 01.752-.854 2.277 2.277 0 011.612-.084 1.332 1.332 0 01.654 1.721 1.463 1.463 0 01-1.669 1.093z"/><path data-name="Контур 103" d="M125.099 20.377a1.519 1.519 0 011.65-1.769 1.11 1.11 0 011.166 1.012 2.013 2.013 0 01-.218 1.34 1.752 1.752 0 01-2.038.587 1.012 1.012 0 01-.558-.873 2.266 2.266 0 01-.002-.297z"/><path data-name="Контур 104" d="M111.943 16.183c-.008.655-.089 1.206-.658 1.445-.925.387-1.964.163-2.1-1.074a2.7 2.7 0 01.016-.734 1.29 1.29 0 01.941-1.028 1.4 1.4 0 011.579.5 1.463 1.463 0 01.222.891z"/><path data-name="Контур 105" d="M109.539 9.666a1.644 1.644 0 011.924-1.688.846.846 0 01.846.724 1.711 1.711 0 01-2.03 2.126c-.515-.066-.78-.506-.74-1.162z"/><path data-name="Контур 106" d="M129.67 16.611a1.508 1.508 0 01-.415 1.27 1.319 1.319 0 01-1.414.2 1.166 1.166 0 01-.713-1.039 2.121 2.121 0 01.164-1.3 1.22 1.22 0 011.363-.583 1.137 1.137 0 011.012 1.1 1.9 1.9 0 01.003.352z"/><path data-name="Контур 107" d="M109.518 13.483a1.838 1.838 0 01-.189 1.03 1.034 1.034 0 01-.979.587h-.325a.9.9 0 01-.95-.721 2.237 2.237 0 01.192-1.662 1.266 1.266 0 011.25-.615.93.93 0 01.905.54 1.941 1.941 0 01.096.841z"/><path data-name="Контур 108" d="M122.433 23.431a1.612 1.612 0 012.337-1.39.987.987 0 01.513 1 1.547 1.547 0 01-2.137 1.516c-.499-.126-.715-.512-.713-1.126z"/><path data-name="Контур 109" d="M114.37 7.4a1.3 1.3 0 01-.7-.11.734.734 0 01-.469-.657 1.362 1.362 0 01.5-1.392 1.922 1.922 0 011.875-.232.92.92 0 01.587.849 1.354 1.354 0 01-1.028 1.432 1.783 1.783 0 01-.765.11z"/><path data-name="Контур 110" d="M114.945 1.811a2.052 2.052 0 011.26-.228.6.6 0 01.658.437.643.643 0 01-.231.743 1.917 1.917 0 01-1.676.325.612.612 0 01-.319-1.026c.046-.062.1-.118.2-.237-.273.072-.482.119-.687.183a2.066 2.066 0 01-.987.08.4.4 0 01-.284-.656 1.877 1.877 0 011.452-.729 2.614 2.614 0 01.384-.009c.2 0 .4.014.5.23.109.233-.02.415-.139.6-.048.073-.162.107-.131.287z"/><path data-name="Контур 111" d="M129.031 22.849a1.7 1.7 0 01-1.734 1.746.769.769 0 01-.869-.771 1.709 1.709 0 011.412-1.966.92.92 0 011.191.991z"/><path data-name="Контур 112" d="M107.35 12.08c-.6 0-.839-.224-.889-.782a1.722 1.722 0 01.77-1.788 1.41 1.41 0 01.868-.23.672.672 0 01.607.4 1.935 1.935 0 01-.791 2.262 1.339 1.339 0 01-.565.138z"/><path data-name="Контур 113" d="M111.754 5.131c.714 0 .976.394.8 1.1a1.754 1.754 0 01-1.766 1.332c-.614.038-.932-.32-.886-.933a1.634 1.634 0 011.852-1.499z"/><path data-name="Контур 114" d="M130.35 17.713c.627-.035.942.233.986.778a2.487 2.487 0 01-.214 1.491 1.18 1.18 0 01-1.492.445.748.748 0 01-.4-.522 2.312 2.312 0 01.195-1.661.9.9 0 01.925-.531z"/><path data-name="Контур 115" d="M121.992 1.3a1.042 1.042 0 01-.338-.44c-.081-.214-.015-.4.206-.438a2.173 2.173 0 011.924.479.7.7 0 01.154.214.316.316 0 01-.3.5 4.614 4.614 0 01-.944-.041c0 .154.121.213.184.306a.539.539 0 01-.425.907 2.293 2.293 0 01-1.446-.27.718.718 0 01-.319-.846c.114-.31.393-.358.677-.371.196-.008.392 0 .627 0z"/><path data-name="Контур 116" d="M110.41 29.594a5.448 5.448 0 01-.456-.574.844.844 0 01-.1-.512.324.324 0 01.324-.318 2.167 2.167 0 011.45.387 1.2 1.2 0 01.471.758.5.5 0 01-.468.594 2.325 2.325 0 01-.758-.119c.142.293.406.468.451.774.034.231-.078.424-.3.383a2.566 2.566 0 01-1.622-.809 1.164 1.164 0 01-.087-.119c-.1-.17-.223-.356-.091-.545s.321-.133.513-.085a4.2 4.2 0 01.673.185z"/><path data-name="Контур 117" d="M110.402 25.55c.031.591-.3.826-.848.8a1.64 1.64 0 01-1.644-1.551c-.113-.75.285-1.133 1.028-.99a1.757 1.757 0 011.464 1.741z"/><path data-name="Контур 118" d="M117.155 4.994c-.562-.01-1 .014-1.3-.4a.942.942 0 01.095-1.21 1.883 1.883 0 011.7-.41 1.565 1.565 0 01.51.127.942.942 0 01.4 1.058.953.953 0 01-.733.761 2.92 2.92 0 01-.672.074z"/><path data-name="Контур 119" d="M126.27 5.486a1.753 1.753 0 011.808 1.855.6.6 0 01-.554.589 1.8 1.8 0 01-2.053-1.508c-.081-.514.139-1 .799-.936z"/><path data-name="Контур 120" d="M120.96 4.681a2.294 2.294 0 01-1.413-.4.958.958 0 01-.264-1.023.776.776 0 01.736-.582 2.557 2.557 0 011.467.2 1.054 1.054 0 01.607.878.786.786 0 01-.665.868c-.158.028-.312.04-.468.059z"/><path data-name="Контур 121" d="M123.742 27.631c-.949.086-1.069-.716-.844-1.365a1.313 1.313 0 011.188-.831 1.223 1.223 0 01.944.083.577.577 0 01.283.42 1.419 1.419 0 01-1.571 1.693z"/><path data-name="Контур 122" d="M127.646 25.159a.675.675 0 01.771.862 1.86 1.86 0 01-1.918 1.492.639.639 0 01-.6-.733 1.678 1.678 0 011.028-1.5 2.341 2.341 0 01.719-.121z"/><path data-name="Контур 123" d="M121.858 27.657h.149c.4-.014.782.018.95.466a1.109 1.109 0 01-.4 1.183 1.97 1.97 0 01-1.772.244.648.648 0 01-.487-.658 1.01 1.01 0 01.539-1.027 1.848 1.848 0 011.021-.208z"/><path data-name="Контур 124" d="M115.091 29.751a1.619 1.619 0 01-1.355-.5c-.242-.289-.363-1.021.008-1.29a1.088 1.088 0 01.567-.215 2.2 2.2 0 011.376.326 1.111 1.111 0 01.49 1.013.71.71 0 01-.674.663 3.737 3.737 0 01-.412.003z"/><path data-name="Контур 125" d="M112.901 4.931c-.082.007-.1.01-.121.01-.363.009-.721-.013-.925-.375a1.086 1.086 0 01.249-1.093 2.192 2.192 0 011.906-.55c.427.057.595.527.421 1.024a1.312 1.312 0 01-.85.837 1.343 1.343 0 01-.68.147z"/><path data-name="Контур 126" d="M111.242 26.244a1.689 1.689 0 011.518.784 1.456 1.456 0 01.17.709.586.586 0 01-.406.592 1.707 1.707 0 01-2.127-1.161c-.108-.622.123-.928.845-.924z"/><path data-name="Контур 127" d="M118.196 30.174a2.867 2.867 0 01-.821-.154.858.858 0 01-.546-.941.844.844 0 01.718-.715 2.41 2.41 0 011.251-.007.875.875 0 01.761.9.86.86 0 01-.791.846c-.198.037-.39.049-.572.071z"/><path data-name="Контур 128" d="M109.163 7.053a1.719 1.719 0 01-1.478 1.751.659.659 0 01-.824-.65 1.762 1.762 0 011.544-1.792c.565-.057.765.133.758.691z"/><path data-name="Контур 129" d="M129.709 22.562a1.833 1.833 0 01.418-1.364 1.194 1.194 0 011.039-.451.506.506 0 01.5.424 2.3 2.3 0 01-.329 1.721 1.273 1.273 0 01-1.1.524.518.518 0 01-.534-.52c-.003-.117.006-.236.006-.334z"/><path data-name="Контур 130" d="M125.617 27.731a.632.632 0 01.683.273.82.82 0 01-.05.815 1.912 1.912 0 01-1.82.921c-.422.007-.592-.221-.578-.645a1.389 1.389 0 011.089-1.241 1.652 1.652 0 01.676-.123z"/><path data-name="Контур 131" d="M131.261 24.413a1.938 1.938 0 01-1.5 1.812.439.439 0 01-.57-.485 1.918 1.918 0 011.269-1.87.553.553 0 01.801.543z"/><path data-name="Контур 132" d="M109.788 3.951c.55-.006.754.274.57.829a1.706 1.706 0 01-1.366 1.2c-.26.051-.562.175-.768-.1a.782.782 0 01.016-.81 1.691 1.691 0 011.548-1.119z"/><path data-name="Контур 133" d="M108.962 28.231a1.878 1.878 0 01-1.6-1.283c-.048-.212-.177-.42-.032-.654a.376.376 0 01.354-.217 1.849 1.849 0 011.807 1.455c.099.453-.1.694-.529.699z"/><path data-name="Контур 134" d="M128.676 5.331c0 .373-.1.474-.466.48a1.807 1.807 0 01-1.793-1.458c-.067-.367.1-.586.472-.566a1.941 1.941 0 011.727 1.138.989.989 0 01.06.406z"/><path data-name="Контур 135" d="M111.87 2.044c.511-.024.72.242.58.689a1.267 1.267 0 01-.63.706 2.08 2.08 0 01-1.368.325c-.356-.053-.464-.287-.319-.624a1.867 1.867 0 011.457-1.064 2.311 2.311 0 01.28-.032z"/><path data-name="Контур 136" d="M121.96 31.171a1.111 1.111 0 01-.54-.144c-.338-.193-.419-.48-.147-.9a.952.952 0 01.505-.388 2.357 2.357 0 011.37-.128.473.473 0 01.351.637.929.929 0 01-.336.5 2.848 2.848 0 01-1.203.423z"/><path data-name="Контур 137" d="M118.656 2.675a1.91 1.91 0 01-.743-.147.613.613 0 01-.432-.686.7.7 0 01.628-.608 3.642 3.642 0 011.107 0 .8.8 0 01.655.633.676.676 0 01-.436.667 1.7 1.7 0 01-.779.141z"/><path data-name="Контур 138" d="M129.523 26.597c.316 0 .462.176.375.509a2.1 2.1 0 01-1.29 1.469 1.822 1.822 0 01-.25.084.443.443 0 01-.575-.5 1.859 1.859 0 011.74-1.562z"/><path data-name="Контур 139" d="M126.102 30.531c-.406 0-.566-.246-.406-.622a1.743 1.743 0 011.187-.979 1.941 1.941 0 01.6-.146c.381.007.538.229.4.582a2.337 2.337 0 01-1.781 1.165z"/><path data-name="Контур 140" d="M116.401 30.223a1.591 1.591 0 01.807.128.6.6 0 01-.052 1.172 1.715 1.715 0 01-1.232-.124.748.748 0 01-.394-.42.533.533 0 01.491-.753 2.532 2.532 0 01.38-.003z"/><path data-name="Контур 141" d="M119.365 30.321a1.354 1.354 0 01.7.107.551.551 0 01.065.947 1.809 1.809 0 01-1.637.128.474.474 0 01-.325-.505.521.521 0 01.324-.508 1.693 1.693 0 01.873-.169z"/><path data-name="Контур 142" d="M121.112 32.595a1.233 1.233 0 01-.432-.078c-.367-.155-.439-.393-.195-.7a.6.6 0 01.168-.162 2.455 2.455 0 011.891-.251.35.35 0 01.2.545.857.857 0 01-.36.338 3.757 3.757 0 01-1.272.308z"/><path data-name="Контур 143" d="M116.742 1.248a1.407 1.407 0 01-.612-.065.453.453 0 01-.122-.833 1.533 1.533 0 01.715-.246 1.95 1.95 0 011.243.083.429.429 0 01.092.732 1.756 1.756 0 01-1.05.328 2.615 2.615 0 01-.266.001z"/><path data-name="Контур 144" d="M123.721 31.892c-.171-.008-.26 0-.347-.018-.286-.048-.363-.208-.267-.482a1.114 1.114 0 01.5-.6 2.2 2.2 0 011.489-.31c.3.043.363.21.251.488a.957.957 0 01-.341.432 2.625 2.625 0 01-1.285.49z"/><path data-name="Контур 145" d="M120.216 1.194a3.252 3.252 0 01-1.2-.264.459.459 0 01-.294-.494.464.464 0 01.416-.367 2.669 2.669 0 011.648.142c.2.085.389.218.374.478s-.195.364-.419.431a1.69 1.69 0 01-.525.074z"/><path data-name="Контур 146" d="M115.223 31.452a2.708 2.708 0 011.3.294.493.493 0 01.258.547c-.038.226-.227.274-.414.311a2.651 2.651 0 01-1.5-.176c-.3-.119-.575-.482-.5-.662.131-.306.419-.314.7-.314z"/><path data-name="Контур 147" d="M114.117 30.947a1.6 1.6 0 01-1.2-.464.648.648 0 01-.127-.732.667.667 0 01.72-.188c.268.085.574.024.817.208.055.042.12.069.174.111a.818.818 0 01.289.761c-.065.203-.28.304-.673.304z"/><path data-name="Контур 148" d="M113.616 32.064a3.565 3.565 0 01-1.567-.534.7.7 0 01-.279-.368c-.067-.238.042-.467.288-.471a2.684 2.684 0 011.764.529.745.745 0 01.164.2c.08.135.177.278.092.439a.448.448 0 01-.462.205z"/><path data-name="Контур 149" d="M118.556 32.831a2.032 2.032 0 01-.916-.18.384.384 0 01-.054-.716.9.9 0 01.493-.178c.372-.014.745-.01 1.118 0a.7.7 0 01.4.163.4.4 0 01-.043.72 2.051 2.051 0 01-.998.191z"/><path data-name="Контур 150" d="M128.754 4.278a2.025 2.025 0 01-1.685-1.306c-.076-.3.087-.509.361-.415a2.513 2.513 0 011.473 1 .976.976 0 01.137.383c.03.241-.059.361-.286.338z"/><path data-name="Контур 151" d="M108.632 29.531a2.154 2.154 0 01-1.681-1.491c-.024-.234.137-.31.338-.3a2.1 2.1 0 011.613 1.492.25.25 0 01-.27.299z"/></g><g data-name="Сгруппировать 52" fill="#69a71a"><path data-name="Контур 152" d="M111.927 38.448c1.439 0 2.613.61 2.613 2.06a1.806 1.806 0 01-1.117 1.693 1.932 1.932 0 011.5 2c0 1.6-1.232 2.441-2.775 2.441h-4.1v-8.2zm-2.13 3.316h1.635c.656 0 1.358-.127 1.358-.956s-.668-.967-1.358-.967h-1.635zm0 3.453h1.808c.771 0 1.519-.149 1.519-1.116 0-.991-.806-1.117-1.612-1.117h-1.715z"/><path data-name="Контур 153" d="M125.185 39.922h-4.363v1.784h4.007v1.416h-4.007v2.015h4.444v1.508h-6.228v-8.2h6.147z"/><path data-name="Контур 154" d="M136.57 46.645h-1.888l-.644-1.831h-3.051l-.668 1.831h-1.849l3.12-8.208h1.854zm-4.052-6.194l-1.094 3.051h2.176z"/><path data-name="Контур 155" d="M147.109 43.375c0 2.337-1.093 3.431-3.488 3.431-2.441 0-3.534-1.117-3.534-3.454v-4.9h1.8v4.9c0 1.255.357 1.969 1.761 1.969 1.381 0 1.669-.76 1.669-1.969v-4.9h1.8z"/><path data-name="Контур 156" d="M157.628 39.979h-2.464v6.666h-1.808v-6.666h-2.463v-1.531h6.735z"/><path data-name="Контур 157" d="M165.383 43.49v3.155h-1.773v-3.189l-3.062-5.008h2.05l1.911 3.281 1.934-3.281h1.991z"/><path data-name="Контур 158" d="M184.304 39.818l-4.444 5.284h4.594v1.543h-6.942v-1.462l4.409-5.2h-4.1v-1.531h6.481z"/><path data-name="Контур 159" d="M196.136 42.558a4.048 4.048 0 11-8.082 0c0-2.6 1.611-4.306 4.064-4.306 2.394 0 4.018 1.739 4.018 4.306zm-6.263-.034c0 1.761.852 2.82 2.245 2.832 1.359 0 2.2-1.082 2.2-2.832 0-1.728-.852-2.8-2.222-2.8s-2.226 1.095-2.226 2.8z"/><path data-name="Контур 160" d="M200.241 38.448h1.831l3.373 5.492v-5.492h1.727v8.2h-1.8l-3.4-5.5v5.5h-1.739z"/><path data-name="Контур 161" d="M217.794 39.922h-4.364v1.784h4.007v1.416h-4.007v2.015h4.444v1.508h-6.228v-8.2h6.148z"/></g><path data-name="Контур 162" d="M25.609 28.793h-4.608l-4.049-8.263a7.609 7.609 0 012.206-.328 7.207 7.207 0 00-2.4-.1l-.033.034a2.469 2.469 0 00-.494.066 22.426 22.426 0 00-9.381 4.147l-2.3 4.444H.007L13.042 3.908l7.439 14.714a16.552 16.552 0 015.135 1.744 25.008 25.008 0 00-4.509-.527zM12.936 12.432l-3.357 6.519a5.353 5.353 0 00-2.173 1.811 5.717 5.717 0 011.811-1.12h.033a21.985 21.985 0 016.616-1.317h.033l-2.93-5.958z" fill="#fff"/><path data-name="Контур 163" d="M37.163 8.319v.033h-2.337l2.337.461v19.98H32.95V8.319h-5.958V4.665h16.129v3.654z" fill="#fff"/><path data-name="Контур 164" d="M69.125 28.793l-2.337-12.08.922-2.964-1.119 2.042-7.8 13.3-7.011-12.344-1.613-3 .889 2.865-2.633 12.179h-4.477l.033-.165 5.694-24.16 9.217 17.281 9.513-17.281 5.167 24.325z" fill="#fff"/><path data-name="Контур 165" d="M101.086 16.778a11.428 11.428 0 01-3.851 8.691 13.527 13.527 0 01-17.906.394 11.922 11.922 0 01-.362-17.873 13.041 13.041 0 019.183-3.588 12.835 12.835 0 019.118 3.62 11.75 11.75 0 013.818 8.756zm-3.456-.527a6.374 6.374 0 01-.658 1.548 3.145 3.145 0 01-.692.955c1.087-1.58.428-4.345.231-5.168a8.594 8.594 0 00-2.041-3.062 8.877 8.877 0 00-6.353-2.5 10.068 10.068 0 00-3.028.461c-4.641 1.448-6.09 5.957-6.55 8.394a6.838 6.838 0 01.724-1.547 3.006 3.006 0 01.526-.691 5.683 5.683 0 00-.428 4.015 8.076 8.076 0 002.469 4.346 9.189 9.189 0 0012.607-.067 9.172 9.172 0 001.745-2.369 14.384 14.384 0 001.448-4.315z" fill="#fff"/><path data-name="Контур 166" d="M141.795 8.592v4.946l-1.876.387h10.409v3.589h-8.533v11.117h-4.138V4.971h13v3.621z" fill="#fff"/><path data-name="Контур 167" d="M158.409 8.531v4.979l-1.875.388h11.8v3.588h-9.925v7.176l-1.875.389h12.091v3.588H154.27v-23.7h14.354v3.588z" fill="#fff"/><path data-name="Контур 168" d="M189.702 28.631h-5.076l-7.273-9.569h-.453v9.569h-4.137v-23.7h4.655c3.362 0 5.85.581 7.37 1.778a6.343 6.343 0 012.521 5.237 6.429 6.429 0 01-1.583 4.364 7.075 7.075 0 01-3.944 2.295zM177.968 15.7a7.3 7.3 0 003.846-.841 5.25 5.25 0 002.393-3.588 4.966 4.966 0 01-1 1.552 6.913 6.913 0 00.064-.841c0-2.328-1.68-3.459-5.139-3.459h-1.229V15.7z" fill="#fff"/><path data-name="Контур 169" d="M216.597 28.631h-4.527l-3.977-8.115a7.463 7.463 0 012.166-.322 7.04 7.04 0 00-2.359-.1l-.032.033a2.371 2.371 0 00-.486.065 21.992 21.992 0 00-9.212 4.073l-2.264 4.364h-4.461l12.8-24.439 7.3 14.45a16.223 16.223 0 015.043 1.713 24.641 24.641 0 00-4.428-.518zm-12.446-16.068l-3.3 6.4a5.247 5.247 0 00-2.134 1.778 5.613 5.613 0 011.778-1.1h.032a21.554 21.554 0 016.5-1.293h.033l-2.878-5.852z" fill="#fff"/></g></svg>