<svg xmlns="http://www.w3.org/2000/svg" width="236.333" height="49.619"><g data-name="Сгруппировать 360"><path data-name="Контур 958" d="M158.922 2.966c-.342-.3-.609-.631-.387-1 .2-.334.579-.148.936-.066-.126-.152-.229-.261-.312-.381a.376.376 0 01-.068-.389c.068-.145.22-.133.342-.113a1.758 1.758 0 011.419.8c.145.259.058.4-.244.391a1.977 1.977 0 01-.336-.047c-.1-.017-.2-.045-.336-.075a4.267 4.267 0 01.344.458.4.4 0 01-.372.635h-.5a1.489 1.489 0 01.417.71c.085.522-.083.787-.605.817a1.8 1.8 0 01-1.2-.308 1.106 1.106 0 01-.413-1.1.47.47 0 01.357-.329 1.145 1.145 0 01.552-.03c.107.017.218.017.4.032" fill="#76b900"/><path data-name="Контур 959" d="M156.413 13.693a1.231 1.231 0 01-1.481 1.321 1.429 1.429 0 01-1.047-2.285 1 1 0 01.515-.383 1.749 1.749 0 011.477.094 1.244 1.244 0 01.537 1.253" fill="#76b900"/><path data-name="Контур 960" d="M151.96 13.434a1.2 1.2 0 01-1.355-1.349 1.292 1.292 0 011.464-1.39c.956.028 1.253.547 1.257 1.383s-.331 1.4-1.366 1.355" fill="#76b900"/><path data-name="Контур 961" d="M155.71 10.634a1.137 1.137 0 01.528-1.163 1.4 1.4 0 012.11 1.077 1.846 1.846 0 01-.038.65 1.017 1.017 0 01-.915.778 2.016 2.016 0 01-1.026-.074 1.166 1.166 0 01-.656-1.268" fill="#76b900"/><path data-name="Контур 962" d="M153.777 10.742a1.287 1.287 0 01-.962-.423 1.479 1.479 0 01-.126-1.6 1.21 1.21 0 011.266-.579 1.4 1.4 0 01.774.165 1.28 1.28 0 01.569 1.163 1.142 1.142 0 01-.577 1.1 1.763 1.763 0 01-.943.18" fill="#76b900"/><path data-name="Контур 963" d="M156.927 14.867a1.907 1.907 0 01.071-.539 1.014 1.014 0 011.058-.78c.154 0 .31-.009.462 0a.974.974 0 01.864.611 1.705 1.705 0 010 1.387 1.017 1.017 0 01-.6.56c-.472.18-1.381.169-1.682-.351a1.51 1.51 0 01-.169-.894" fill="#76b900"/><path data-name="Контур 964" d="M150.722 10.014c-.094.947-.5 1.464-1.567 1.4a.96.96 0 01-.909-.534 1.58 1.58 0 01.667-1.943 1.3 1.3 0 011.61.351 1.994 1.994 0 01.2.729" fill="#76b900"/><path data-name="Контур 965" d="M153.202 17.658a1.53 1.53 0 01-.391-.03 1.156 1.156 0 01-.866-1.244 1.115 1.115 0 01.643-1.127c.592-.233 1.6-.2 1.883.609a1.354 1.354 0 01-.56 1.7 1.51 1.51 0 01-.71.09" fill="#76b900"/><path data-name="Контур 966" d="M151.506 15.087a1.084 1.084 0 01-.537 1.109 1.43 1.43 0 01-1.516-.124 1.278 1.278 0 01-.432-1.313c.122-.964.887-1.156 1.659-.96.611.156.825.556.825 1.287" fill="#76b900"/><path data-name="Контур 967" d="M159.892 10.689a1.123 1.123 0 011.253 1.137 1.808 1.808 0 01-.154 1.03 1.151 1.151 0 01-1.2.47c-.876-.163-1.056-.874-1.037-1.606a1 1 0 011.133-1.033" fill="#76b900"/><path data-name="Контур 968" d="M156.272 16.316a1.075 1.075 0 011.1.522c.22.425.19 1.43-.363 1.734a1.554 1.554 0 01-1.529.064 1.285 1.285 0 01.791-2.32" fill="#76b900"/><path data-name="Контур 969" d="M151.357 8.761c-1.135.051-1.321-.761-1.107-1.541a1 1 0 01.616-.7 1.874 1.874 0 011.328-.071 1.1 1.1 0 01.537 1.415 1.205 1.205 0 01-1.372.9" fill="#76b900"/><path data-name="Контур 970" d="M159.65 16.75a1.249 1.249 0 011.355-1.456.91.91 0 01.958.832 1.653 1.653 0 01-.177 1.1 1.444 1.444 0 01-1.674.483.837.837 0 01-.462-.718 1.763 1.763 0 010-.244" fill="#76b900"/><path data-name="Контур 971" d="M148.836 13.302c-.006.537-.075.992-.541 1.187-.761.319-1.616.135-1.732-.883a2.257 2.257 0 01.013-.6 1.061 1.061 0 01.774-.847 1.154 1.154 0 011.3.413 1.212 1.212 0 01.188.731" fill="#76b900"/><path data-name="Контур 972" d="M146.859 7.944a1.352 1.352 0 011.582-1.387.7.7 0 01.695.6 1.406 1.406 0 01-1.667 1.747c-.423-.053-.641-.415-.609-.956" fill="#76b900"/><path data-name="Контур 973" d="M163.405 13.652a1.244 1.244 0 01-.34 1.045 1.089 1.089 0 01-1.163.16.956.956 0 01-.586-.853 1.75 1.75 0 01.135-1.067 1 1 0 011.12-.479.934.934 0 01.832.9 1.624 1.624 0 010 .289" fill="#76b900"/><path data-name="Контур 974" d="M146.841 11.081a1.528 1.528 0 01-.154.847.856.856 0 01-.806.483h-.267a.736.736 0 01-.78-.592 1.849 1.849 0 01.156-1.366 1.041 1.041 0 011.028-.5.765.765 0 01.744.443 1.591 1.591 0 01.079.693" fill="#76b900"/><path data-name="Контур 975" d="M157.458 19.264a1.326 1.326 0 011.922-1.142.814.814 0 01.421.819 1.272 1.272 0 01-1.757 1.246c-.41-.1-.588-.421-.586-.923" fill="#76b900"/><path data-name="Контур 976" d="M150.835 6.082a1.094 1.094 0 01-.575-.09.608.608 0 01-.385-.541 1.121 1.121 0 01.41-1.144 1.582 1.582 0 011.541-.19.752.752 0 01.483.7 1.115 1.115 0 01-.844 1.178 1.494 1.494 0 01-.631.09" fill="#76b900"/><path data-name="Контур 977" d="M151.304 1.489a1.673 1.673 0 011.035-.186.492.492 0 01.541.357.531.531 0 01-.188.611 1.582 1.582 0 01-1.379.267.5.5 0 01-.261-.844c.036-.049.081-.1.162-.195-.224.06-.4.1-.564.152a1.691 1.691 0 01-.812.064.325.325 0 01-.233-.539 1.544 1.544 0 011.193-.6 2.608 2.608 0 01.316-.009c.165 0 .331.013.415.19s-.017.34-.115.492c-.041.062-.135.092-.109.237" fill="#76b900"/><path data-name="Контур 978" d="M162.882 18.78a1.4 1.4 0 01-1.426 1.434.632.632 0 01-.714-.633 1.4 1.4 0 011.161-1.616.756.756 0 01.979.815" fill="#76b900"/><path data-name="Контур 979" d="M145.059 9.928c-.492 0-.688-.184-.729-.641a1.419 1.419 0 01.633-1.471 1.147 1.147 0 01.714-.188.55.55 0 01.5.329 1.591 1.591 0 01-.65 1.86 1.108 1.108 0 01-.466.111" fill="#76b900"/><path data-name="Контур 980" d="M148.68 4.216c.586 0 .8.323.661.909a1.443 1.443 0 01-1.454 1.095.632.632 0 01-.727-.767 1.344 1.344 0 011.52-1.236" fill="#76b900"/><path data-name="Контур 981" d="M163.965 14.559c.515-.028.774.192.81.639a2.051 2.051 0 01-.175 1.225.97.97 0 01-1.227.368.611.611 0 01-.325-.43 1.9 1.9 0 01.16-1.366.741.741 0 01.757-.436" fill="#76b900"/><path data-name="Контур 982" d="M157.095 1.067a.852.852 0 01-.278-.361c-.066-.175-.013-.327.171-.359a1.793 1.793 0 011.582.393.69.69 0 01.126.175.26.26 0 01-.246.413 3.787 3.787 0 01-.776-.032c0 .126.1.175.152.25a.444.444 0 01-.351.746 1.886 1.886 0 01-1.189-.222.589.589 0 01-.261-.695c.094-.254.323-.3.556-.306.16-.006.321 0 .513 0" fill="#76b900"/><path data-name="Контур 983" d="M147.574 24.324a4.306 4.306 0 01-.374-.472.687.687 0 01-.086-.419.263.263 0 01.265-.261 1.779 1.779 0 011.193.316.991.991 0 01.387.624.41.41 0 01-.385.487 1.892 1.892 0 01-.622-.1c.115.242.333.385.37.637.028.19-.064.348-.242.314a2.112 2.112 0 01-1.334-.665.813.813 0 01-.073-.1c-.086-.141-.184-.293-.075-.449s.263-.109.421-.07a3.436 3.436 0 01.554.152" fill="#76b900"/><path data-name="Контур 984" d="M147.568 21.002c.026.485-.248.678-.7.652a1.347 1.347 0 01-1.351-1.274c-.092-.616.235-.93.844-.812a1.441 1.441 0 011.2 1.434" fill="#76b900"/><path data-name="Контур 985" d="M153.12 4.104c-.464-.009-.823.011-1.071-.327a.775.775 0 01.077-.994 1.549 1.549 0 011.394-.338 1.3 1.3 0 01.419.1.841.841 0 01-.276 1.494 2.33 2.33 0 01-.543.06" fill="#76b900"/><path data-name="Контур 986" d="M160.609 4.509a1.443 1.443 0 011.488 1.524.5.5 0 01-.455.485 1.485 1.485 0 01-1.689-1.24c-.064-.423.115-.821.656-.77" fill="#76b900"/><path data-name="Контур 987" d="M156.248 3.844a1.9 1.9 0 01-1.163-.331.789.789 0 01-.216-.84.638.638 0 01.6-.479 2.1 2.1 0 011.206.169.861.861 0 01.5.72.645.645 0 01-.545.714c-.128.021-.257.03-.385.047" fill="#76b900"/><path data-name="Контур 988" d="M158.534 22.71c-.78.071-.879-.588-.693-1.122a1.076 1.076 0 01.975-.682 1.01 1.01 0 01.778.066.479.479 0 01.231.348 1.165 1.165 0 01-1.291 1.39" fill="#76b900"/><path data-name="Контур 989" d="M161.742 20.679a.553.553 0 01.633.708 1.525 1.525 0 01-1.576 1.227.524.524 0 01-.5-.6 1.381 1.381 0 01.844-1.229 1.939 1.939 0 01.594-.1" fill="#76b900"/><path data-name="Контур 990" d="M156.985 22.733h.122c.329-.013.643.015.78.383a.909.909 0 01-.329.971 1.616 1.616 0 01-1.458.2.536.536 0 01-.4-.543.834.834 0 01.442-.844 1.525 1.525 0 01.842-.169" fill="#76b900"/><path data-name="Контур 991" d="M151.423 24.452a1.319 1.319 0 01-1.114-.41c-.2-.237-.3-.838.006-1.06a.889.889 0 01.466-.175 1.8 1.8 0 011.131.267.922.922 0 01.4.834.589.589 0 01-.554.545c-.113.011-.227 0-.34 0" fill="#76b900"/><path data-name="Контур 992" d="M149.623 4.052c-.066.006-.083.009-.1.009-.3.006-.592-.011-.759-.308a.888.888 0 01.205-.9 1.8 1.8 0 011.567-.453c.348.045.487.432.344.842a1.076 1.076 0 01-.7.686 1.1 1.1 0 01-.558.122" fill="#76b900"/><path data-name="Контур 993" d="M148.259 21.567a1.385 1.385 0 011.246.646 1.176 1.176 0 01.141.581.481.481 0 01-.333.487 1.4 1.4 0 01-1.747-.953c-.09-.513.1-.763.693-.761" fill="#76b900"/><path data-name="Контур 994" d="M153.976 24.8a2.364 2.364 0 01-.676-.126.7.7 0 01-.449-.774.7.7 0 01.592-.588 1.965 1.965 0 011.026 0 .718.718 0 01.626.738.707.707 0 01-.65.7c-.158.03-.321.041-.47.058" fill="#76b900"/><path data-name="Контур 995" d="M146.551 5.798a1.413 1.413 0 01-1.216 1.439.541.541 0 01-.675-.534 1.446 1.446 0 011.268-1.473c.462-.047.629.109.624.569" fill="#76b900"/><path data-name="Контур 996" d="M163.438 18.545a1.516 1.516 0 01.344-1.122.979.979 0 01.853-.37.411.411 0 01.415.348 1.893 1.893 0 01-.269 1.413 1.051 1.051 0 01-.9.432.426.426 0 01-.438-.427c-.009-.1 0-.195 0-.274" fill="#76b900"/><path data-name="Контур 997" d="M160.075 22.793a.521.521 0 01.562.224.672.672 0 01-.043.669 1.566 1.566 0 01-1.494.757c-.349.006-.487-.18-.475-.53a1.141 1.141 0 01.894-1.02 1.375 1.375 0 01.556-.1" fill="#76b900"/><path data-name="Контур 998" d="M164.714 20.066a1.591 1.591 0 01-1.236 1.49.36.36 0 01-.468-.4 1.577 1.577 0 011.043-1.539.455.455 0 01.661.447" fill="#76b900"/><path data-name="Контур 999" d="M147.064 3.248c.453 0 .62.224.468.682a1.4 1.4 0 01-1.122.983c-.214.043-.462.145-.631-.081a.645.645 0 01.013-.667 1.389 1.389 0 011.272-.917" fill="#76b900"/><path data-name="Контур 1000" d="M146.385 23.199a1.537 1.537 0 01-1.313-1.054c-.041-.173-.147-.344-.028-.537a.312.312 0 01.291-.18 1.524 1.524 0 011.488 1.2c.079.374-.083.573-.438.573" fill="#76b900"/><path data-name="Контур 1001" d="M162.589 4.378c0 .308-.079.391-.383.4a1.485 1.485 0 01-1.473-1.2c-.056-.3.079-.481.387-.464a1.589 1.589 0 011.419.934.779.779 0 01.049.333" fill="#76b900"/><path data-name="Контур 1002" d="M148.778 1.68c.421-.021.592.2.477.566a1.036 1.036 0 01-.517.579 1.711 1.711 0 01-1.125.267c-.293-.043-.383-.237-.263-.513a1.538 1.538 0 011.2-.874 1.585 1.585 0 01.231-.026" fill="#76b900"/><path data-name="Контур 1003" d="M157.069 25.617a.92.92 0 01-.445-.12c-.276-.158-.344-.393-.12-.738a.79.79 0 01.415-.318 1.937 1.937 0 011.127-.1.39.39 0 01.289.524.767.767 0 01-.278.415 2.33 2.33 0 01-.988.342" fill="#76b900"/><path data-name="Контур 1004" d="M154.351 2.198a1.56 1.56 0 01-.609-.12.5.5 0 01-.355-.564.573.573 0 01.515-.5 2.959 2.959 0 01.911 0 .656.656 0 01.539.52.553.553 0 01-.359.547 1.389 1.389 0 01-.641.118" fill="#76b900"/><path data-name="Контур 1005" d="M163.285 21.861c.261 0 .38.145.308.419a1.727 1.727 0 01-1.06 1.208 2.1 2.1 0 01-.205.068.364.364 0 01-.472-.411 1.529 1.529 0 011.43-1.285" fill="#76b900"/><path data-name="Контур 1006" d="M160.474 25.096c-.333 0-.466-.2-.336-.511a1.441 1.441 0 01.977-.806 1.644 1.644 0 01.492-.12c.312.006.443.188.325.479a1.921 1.921 0 01-1.458.958" fill="#76b900"/><path data-name="Контур 1007" d="M152.5 24.842a1.28 1.28 0 01.663.107.541.541 0 01.376.487.548.548 0 01-.419.475 1.412 1.412 0 01-1.013-.1.615.615 0 01-.323-.344c-.113-.323.043-.562.4-.62a2.169 2.169 0 01.312 0" fill="#76b900"/><path data-name="Контур 1008" d="M154.937 24.923a1.1 1.1 0 01.577.088.453.453 0 01.053.778 1.487 1.487 0 01-1.345.1.388.388 0 01-.267-.415.427.427 0 01.265-.417 1.393 1.393 0 01.716-.139" fill="#76b900"/><path data-name="Контур 1009" d="M156.372 26.791a.965.965 0 01-.355-.064c-.3-.128-.361-.323-.16-.579a.456.456 0 01.139-.133 2.018 2.018 0 011.554-.207.289.289 0 01.162.449.724.724 0 01-.3.278 3.1 3.1 0 01-1.045.257" fill="#76b900"/><path data-name="Контур 1010" d="M152.78 1.027a1.176 1.176 0 01-.5-.054.373.373 0 01-.1-.684 1.243 1.243 0 01.588-.2 1.6 1.6 0 011.024.068.352.352 0 01.075.6 1.433 1.433 0 01-.864.269c-.073.006-.147 0-.218 0" fill="#76b900"/><path data-name="Контур 1011" d="M158.516 26.212a2.684 2.684 0 01-.286-.015c-.233-.041-.3-.171-.218-.4a.918.918 0 01.406-.49 1.806 1.806 0 011.225-.254c.248.034.3.171.205.4a.759.759 0 01-.28.355 2.152 2.152 0 01-1.052.4" fill="#76b900"/><path data-name="Контур 1012" d="M155.635.986a2.67 2.67 0 01-.986-.218.378.378 0 01-.242-.406c.028-.19.184-.265.342-.3a2.2 2.2 0 011.355.118c.165.071.319.177.306.393s-.16.3-.342.353a1.418 1.418 0 01-.434.062" fill="#76b900"/><path data-name="Контур 1013" d="M151.532 25.853a2.194 2.194 0 011.071.242.4.4 0 01.212.449c-.03.186-.186.224-.34.257a2.188 2.188 0 01-1.231-.145c-.248-.1-.472-.4-.408-.545.107-.25.344-.259.575-.257z" fill="#76b900"/><path data-name="Контур 1014" d="M150.623 25.437a1.321 1.321 0 01-.988-.383.532.532 0 01-.1-.6.545.545 0 01.592-.154c.22.068.472.017.671.171.045.032.1.056.143.09a.667.667 0 01.237.624c-.054.169-.231.252-.552.252" fill="#76b900"/><path data-name="Контур 1015" d="M150.211 26.355a2.933 2.933 0 01-1.287-.438.569.569 0 01-.231-.3c-.056-.195.036-.385.237-.387a2.211 2.211 0 011.449.434.641.641 0 01.135.169c.066.111.145.229.077.361a.371.371 0 01-.381.165" fill="#76b900"/><path data-name="Контур 1016" d="M154.27 26.985a1.686 1.686 0 01-.753-.148.316.316 0 01-.045-.59.751.751 0 01.406-.145 12.8 12.8 0 01.919 0 .544.544 0 01.329.135.331.331 0 01-.034.59 1.672 1.672 0 01-.823.16" fill="#76b900"/><path data-name="Контур 1017" d="M162.652 3.517a1.667 1.667 0 01-1.385-1.073c-.062-.25.073-.419.3-.342a2.063 2.063 0 011.21.823.8.8 0 01.113.314c.026.2-.047.3-.235.278" fill="#76b900"/><path data-name="Контур 1018" d="M146.113 24.27a1.769 1.769 0 01-1.381-1.225c-.019-.192.113-.254.278-.248a1.718 1.718 0 011.325 1.225.205.205 0 01-.222.248" fill="#76b900"/><path data-name="Контур 1019" d="M80.236 23.665h-3.788l-3.328-6.79a6.25 6.25 0 011.813-.272 5.9 5.9 0 00-1.973-.081l-.028.028a2.036 2.036 0 00-.406.053 18.414 18.414 0 00-7.711 3.41l-1.894 3.651h-3.733L69.9 3.211l6.116 12.1a13.581 13.581 0 014.22 1.432 20.551 20.551 0 00-3.707-.432zm7.615-16.829v.028h-1.92l1.92.378v16.423h-3.463V6.837h-4.9v-3h13.258v3zm26.761 16.829l-1.92-9.928.757-2.437-.919 1.678-6.413 10.93-5.763-10.146-1.325-2.463.731 2.356-2.166 10.009h-3.679l.028-.135 4.68-19.858 7.576 14.2 7.82-14.2 4.248 19.993zm26.27-9.87a9.393 9.393 0 01-3.166 7.142 10.808 10.808 0 01-7.6 2.948A10.922 10.922 0 01123 21.258a9.8 9.8 0 01-.3-14.691 10.717 10.717 0 017.549-2.95 10.554 10.554 0 017.495 2.976 9.664 9.664 0 013.138 7.202zm-2.841-.434a5.3 5.3 0 01-.541 1.272 2.577 2.577 0 01-.569.785c.894-1.3.353-3.572.19-4.248a7.1 7.1 0 00-1.678-2.516 7.293 7.293 0 00-5.223-2.057 8.261 8.261 0 00-2.488.381c-3.814 1.189-5 4.9-5.383 6.9a5.55 5.55 0 01.594-1.272 2.5 2.5 0 01.432-.569 4.666 4.666 0 00-.351 3.3 6.649 6.649 0 002.029 3.572 7.4 7.4 0 005.088 2.029 7.322 7.322 0 005.274-2.084 7.5 7.5 0 001.434-1.945 11.852 11.852 0 001.192-3.552zM69.82 10.223l-2.762 5.357a4.408 4.408 0 00-1.785 1.488 4.716 4.716 0 011.488-.919h.028a18.046 18.046 0 015.438-1.082h.026l-2.407-4.9z" fill="#fff"/><path data-name="Контур 1020" d="M188.179 7.01v4.092l-1.541.319h9.7v2.948h-8.159v5.9l-1.541.321h9.941v2.948h-11.8V4.06h11.8v2.95zm26.538 16.525h-4.173l-5.977-7.865h-.372v7.865h-3.4V4.06h3.827c2.764 0 4.81.477 6.058 1.46a5.214 5.214 0 012.074 4.305 5.287 5.287 0 01-1.3 3.587 5.8 5.8 0 01-3.243 1.886zm-9.646-10.627a6.013 6.013 0 003.162-.69 4.321 4.321 0 001.967-2.95 4.065 4.065 0 01-.825 1.274 5.326 5.326 0 00.053-.688c0-1.915-1.381-2.843-4.224-2.843h-1.009v5.9zm31.261 10.627h-3.72l-3.267-6.67a6.141 6.141 0 011.779-.263 5.768 5.768 0 00-1.939-.081l-.026.026a1.974 1.974 0 00-.4.056 18.05 18.05 0 00-7.572 3.348l-1.86 3.585h-3.666l10.522-20.087 6 11.878a13.321 13.321 0 014.145 1.407 20.314 20.314 0 00-3.638-.425zM226.103 10.33l-2.709 5.261a4.3 4.3 0 00-1.753 1.462 4.566 4.566 0 011.46-.9h.026a17.78 17.78 0 015.342-1.062h.026l-2.364-4.81zm-52.884-3.268v4.066l-1.541.319h8.555v2.95h-7.014v9.139h-3.4V4.086h10.682v2.976z" fill="#fff"/><path data-name="Контур 1021" d="M8.453 19.921a2.465 2.465 0 001.028-2.059 2.569 2.569 0 00-.975-2.059 5.662 5.662 0 00-3.521-.812H3.467v5.689h1.868a5.024 5.024 0 003.117-.759m-4.985-7.664h.894a3.869 3.869 0 002.546-.678 2.66 2.66 0 00.787-2.087 2.411 2.411 0 00-.812-2 3.654 3.654 0 00-2.411-.706h-1zm16.089-5.419v4.173l-1.571.325h9.887v3.006h-8.316v6.014l-1.571.325h10.131v3.008H16.089V3.828h12.027v3.006zm24.54 7.313a5.223 5.223 0 011.221 3.5 5.886 5.886 0 01-1.98 4.524 7.147 7.147 0 01-4.983 1.815 6.5 6.5 0 01-6.907-5.851l-.028-.109 3.5-.7.028.135a4.564 4.564 0 00.731 2.3 3.375 3.375 0 002.79 1.246 3.427 3.427 0 002.409-.894 2.988 2.988 0 00.949-2.275v-.259a1.218 1.218 0 00-.028-.257 3.643 3.643 0 01.406.84 1.213 1.213 0 01.056.325 2 2 0 00-.041-1.109 2.983 2.983 0 00-.5-.921 3.5 3.5 0 00-.7-.678 31.112 31.112 0 00-.622-.434l-.165-.081a12.055 12.055 0 00-1.353-.65l-2.033-.785q-4.441-1.709-4.442-5.067a4.7 4.7 0 011.871-3.792 7.177 7.177 0 014.63-1.518 6.534 6.534 0 015.851 3.361l.083.081-2.845 1.544-.053-.109a4.14 4.14 0 00-1.355-1.462 3.194 3.194 0 00-1.706-.378 3.388 3.388 0 00-2.14.65 2.02 2.02 0 00-.812 1.653v.216a2.093 2.093 0 01-.366-.663 3.106 3.106 0 01-.122-.53 1.393 1.393 0 01.026-.487 1.9 1.9 0 00-.107 1.165 2.519 2.519 0 00.419.894 3.207 3.207 0 00.622.637 3.871 3.871 0 00.556.366 6.076 6.076 0 001.193.6l2.112.784a9.5 9.5 0 013.838 2.369zm16.172-7.313h-4.9v.028h-1.922l1.922.381v16.442h-3.469V6.839h-4.9V3.833h13.273zM12.461 15.75a5.49 5.49 0 01.46 2.221 5.144 5.144 0 01-1.815 3.983 6.071 6.071 0 01-2.437 1.381 15.294 15.294 0 01-3.656.378H-.001V3.828h3.333a16.193 16.193 0 013.44.3 5.522 5.522 0 012.221 1.056 5.417 5.417 0 011.462 1.924 5.486 5.486 0 01.543 2.33 4.476 4.476 0 01-1.328 3.249 3.947 3.947 0 00-.8-.026c-.244.017-.464.034-.663.053a9.154 9.154 0 01-.624.081 4.1 4.1 0 012.005.257 5.272 5.272 0 011.462.9 5.415 5.415 0 01.947 1.056 8.453 8.453 0 01.464.738z" fill="#76b900"/><path data-name="Контур 1022" d="M46.027 37.895v5.947a1.981 1.981 0 00.184 1.084 1.337 1.337 0 001.084.312v.329h-5.054v-.329a2.062 2.062 0 00.823-.135.69.69 0 00.336-.344 2.944 2.944 0 00.09-.917v-5.947h-1.248v-.9h1.248v-.631l-.009-.432a2.854 2.854 0 01.966-2.2 3.735 3.735 0 012.615-.879 2.714 2.714 0 011.674.419 1.193 1.193 0 01.545.936.94.94 0 01-.338.716 1.309 1.309 0 01-.9.3 1.1 1.1 0 01-.757-.246.731.731 0 01-.28-.552 2.39 2.39 0 01.053-.338 1.217 1.217 0 00.039-.3.362.362 0 00-.109-.284.508.508 0 00-.357-.135.549.549 0 00-.445.22 1.122 1.122 0 00-.182.7l.019 1.605v1.09h1.268v.9zm-10.471-.5a1.057 1.057 0 00-.8.353 2.438 2.438 0 00-.44 1.394q-.109 1.039-.107 2.89a12.616 12.616 0 00.128 1.832 1.787 1.787 0 00.432.99 1.021 1.021 0 00.75.34 1.045 1.045 0 00.688-.229 1.557 1.557 0 00.477-.872 21.147 21.147 0 00.184-3.519 8.708 8.708 0 00-.175-2.14 1.65 1.65 0 00-.513-.849.956.956 0 00-.624-.193zm-.039-.652a3.977 3.977 0 012.082.577 3.679 3.679 0 011.46 1.642 5.36 5.36 0 01.5 2.328 4.9 4.9 0 01-.926 3.051 3.649 3.649 0 01-3.087 1.486 3.532 3.532 0 01-2.978-1.357 5 5 0 01-1.045-3.143 5.076 5.076 0 011.067-3.213 3.512 3.512 0 012.927-1.374z" fill="#fff"/><path data-name="Контур 1023" d="M116.367 36.759l.139 2.922h-.314a4.562 4.562 0 00-1.161-1.777 1.92 1.92 0 00-1.2-.479.884.884 0 00-.639.254.774.774 0 00-.267.581.746.746 0 00.184.475 8.723 8.723 0 001.64 1.289 6.751 6.751 0 011.774 1.548 2.513 2.513 0 01.425 1.428 3 3 0 01-.357 1.4 2.515 2.515 0 01-1.007 1.056 2.892 2.892 0 01-1.439.366 4.991 4.991 0 01-1.642-.385 1.313 1.313 0 00-.376-.1c-.2 0-.37.154-.5.457h-.3l-.145-3.078h.312a3.989 3.989 0 001.133 1.813 2.162 2.162 0 001.36.605 1 1 0 00.72-.269.89.89 0 00.278-.656 1.127 1.127 0 00-.276-.761 7.086 7.086 0 00-1.225-.971 9.523 9.523 0 01-1.815-1.486 2.58 2.58 0 01-.607-1.657 2.7 2.7 0 01.684-1.794 2.451 2.451 0 011.975-.8 2.889 2.889 0 011.349.34.9.9 0 00.4.137.439.439 0 00.265-.068 1.688 1.688 0 00.323-.389zm-8.947 0l.139 2.922h-.314a4.585 4.585 0 00-1.161-1.777 1.92 1.92 0 00-1.195-.479.892.892 0 00-.641.254.779.779 0 00-.265.581.746.746 0 00.184.475 8.719 8.719 0 001.64 1.289 6.789 6.789 0 011.774 1.548 2.514 2.514 0 01.425 1.428 3.022 3.022 0 01-.357 1.4 2.528 2.528 0 01-1.007 1.056 2.9 2.9 0 01-1.441.366 5 5 0 01-1.642-.385 1.28 1.28 0 00-.376-.1c-.2 0-.368.154-.5.457h-.3l-.148-3.078h.314a3.969 3.969 0 001.131 1.813 2.162 2.162 0 001.362.605 1 1 0 00.718-.269.884.884 0 00.28-.656 1.138 1.138 0 00-.276-.761 7.126 7.126 0 00-1.227-.971 9.489 9.489 0 01-1.813-1.486 2.58 2.58 0 01-.607-1.657 2.688 2.688 0 01.684-1.794 2.448 2.448 0 011.975-.8 2.881 2.881 0 011.347.34.9.9 0 00.4.137.447.447 0 00.265-.068 1.746 1.746 0 00.323-.389zm-10.385 3.6a8.2 8.2 0 00-.165-2.029 1.657 1.657 0 00-.5-.832.774.774 0 00-.513-.165.9.9 0 00-.78.468 4.01 4.01 0 00-.541 2.234v.323zm2.251.611h-4.7a4.42 4.42 0 00.909 2.7 1.907 1.907 0 001.52.761 1.727 1.727 0 001-.308 3.928 3.928 0 00.964-1.1l.31.2a5.117 5.117 0 01-1.539 2.012 3.3 3.3 0 01-1.952.592 3.248 3.248 0 01-2.888-1.469 5.159 5.159 0 01-.789-2.931 4.883 4.883 0 011.161-3.416 3.582 3.582 0 012.719-1.268 2.947 2.947 0 012.26 1.067 4.876 4.876 0 011.021 3.158zm-15.839-3.976v1.109a5.006 5.006 0 011.268-1.039 2.656 2.656 0 011.3-.327 2.069 2.069 0 011.383.464 2.221 2.221 0 01.733 1.148 8.892 8.892 0 01.145 2.01v3.335a2.526 2.526 0 00.18 1.231 1.046 1.046 0 00.746.31v.333h-4.335v-.329a.9.9 0 00.7-.4 2.612 2.612 0 00.148-1.137V39.89a6.375 6.375 0 00-.081-1.33.817.817 0 00-.28-.425.692.692 0 00-.436-.154q-.789 0-1.466 1.131v4.59a2.581 2.581 0 00.177 1.219.915.915 0 00.667.323v.324h-4.335v-.329a1.065 1.065 0 00.77-.351 2.588 2.588 0 00.156-1.191v-4.84a2.472 2.472 0 00-.177-1.208 1.089 1.089 0 00-.748-.312v-.34zm-7.993-3.134v3.134h2.033v.909h-2.033v5.287a3.975 3.975 0 00.068.958.718.718 0 00.244.351.543.543 0 00.319.13c.4 0 .774-.3 1.131-.906l.271.2a2.5 2.5 0 01-2.409 1.757 2.12 2.12 0 01-1.379-.453 2 2 0 01-.72-1.013 8.817 8.817 0 01-.09-1.687v-4.626h-1.12v-.323a11.73 11.73 0 001.967-1.714 10.366 10.366 0 001.415-2.005zm-6.916 3.134v6.792a2.026 2.026 0 00.214 1.159 1.14 1.14 0 00.825.291v.332h-4.628v-.329a1.131 1.131 0 00.844-.331 2.056 2.056 0 00.182-1.118v-5a2.031 2.031 0 00-.212-1.161 1.133 1.133 0 00-.815-.286v-.34zm-1.281-4.149a1.365 1.365 0 011.009.415 1.39 1.39 0 01.411 1 1.353 1.353 0 01-.417 1 1.416 1.416 0 01-2-2 1.351 1.351 0 01.998-.413zm-6.2 5.047v5.947a1.981 1.981 0 00.184 1.084 1.332 1.332 0 001.082.312v.333h-5.052v-.329a2.062 2.062 0 00.823-.135.685.685 0 00.333-.344 2.923 2.923 0 00.092-.917v-5.947h-1.248v-.9h1.248v-.628l-.011-.432a2.855 2.855 0 01.966-2.2 3.737 3.737 0 012.617-.879 2.714 2.714 0 011.674.419 1.192 1.192 0 01.545.934.936.936 0 01-.34.718 1.306 1.306 0 01-.9.3 1.1 1.1 0 01-.757-.246.736.736 0 01-.278-.552 2.355 2.355 0 01.053-.338 1.211 1.211 0 00.036-.3.355.355 0 00-.109-.284.5.5 0 00-.355-.135.544.544 0 00-.445.22 1.105 1.105 0 00-.182.7l.019 1.605v1.09h1.266v.9z" fill="#fff"/><path data-name="Контур 1024" d="M128.63 38.959a2.845 2.845 0 00-1.035.661 1.739 1.739 0 00-.432 1.148 3.338 3.338 0 00.5 1.71 3.876 3.876 0 001.206 1.321 2.531 2.531 0 001.411.468 2.386 2.386 0 00.785-.152 5.277 5.277 0 00.947-.453 17.868 17.868 0 01-3.382-4.7m2.2-1.539a3.045 3.045 0 001.293-.763 1.529 1.529 0 00.331-.986 2.765 2.765 0 00-.543-1.734 1.07 1.07 0 00-.881-.466.959.959 0 00-.735.338 1.305 1.305 0 00-.31.917 3.505 3.505 0 00.148.964 15.952 15.952 0 00.697 1.727zm3.647.552h3.814v.355a2.085 2.085 0 00-1.007.383 4.789 4.789 0 00-.953 1.342 16.521 16.521 0 01-1.653 2.356 9.305 9.305 0 001.524 1.172 1.635 1.635 0 00.806.229 1.513 1.513 0 001.227-.887l.376.2a5.829 5.829 0 01-1.6 2.1 2.465 2.465 0 01-1.486.47 3.123 3.123 0 01-1.36-.308 6.9 6.9 0 01-1.571-1.15 9.409 9.409 0 01-2.155 1.114 6.472 6.472 0 01-2.1.344 3.944 3.944 0 01-2.771-.945 2.934 2.934 0 01-1.024-2.219 3.335 3.335 0 01.981-2.392 8.061 8.061 0 012.85-1.759 7.056 7.056 0 01-.357-1.163 5.221 5.221 0 01-.118-1.1 3.218 3.218 0 011.028-2.441 3.686 3.686 0 012.636-.975 3.038 3.038 0 012.048.643 1.935 1.935 0 01.757 1.509 2.354 2.354 0 01-.776 1.772 7.147 7.147 0 01-2.45 1.353 20.765 20.765 0 003.034 3.931 4.3 4.3 0 001.347-2.593.9.9 0 00-.265-.656 1.264 1.264 0 00-.78-.327z" fill="#76b900"/><path data-name="Контур 1025" d="M201.071 45.913l-2.768-6.349a8.218 8.218 0 00-.921-1.768 1.547 1.547 0 00-.718-.46v-.34h4.553v.34a1.048 1.048 0 00-.631.173.48.48 0 00-.184.376 4.4 4.4 0 00.46 1.375l1.464 3.356 1-2.593a6.521 6.521 0 00.541-1.928.688.688 0 00-.227-.541 1.246 1.246 0 00-.793-.218v-.34h2.869v.34a1.073 1.073 0 00-.686.325 8.091 8.091 0 00-.891 1.9l-2.446 6.349a13.987 13.987 0 01-1.372 2.935 1.977 1.977 0 01-1.586.77 1.742 1.742 0 01-1.234-.434 1.379 1.379 0 01-.472-1.052 1.246 1.246 0 01.325-.881 1.057 1.057 0 01.8-.346.969.969 0 01.738.291 1.3 1.3 0 01.289.911.9.9 0 00.083.447.234.234 0 00.209.1.684.684 0 00.47-.265 5.643 5.643 0 00.859-1.759zm-8.192-12.05v3.134h2.035v.909h-2.035v5.287a3.941 3.941 0 00.07.958.718.718 0 00.244.351.543.543 0 00.318.13c.4 0 .774-.3 1.129-.906l.274.2a2.5 2.5 0 01-2.409 1.757 2.116 2.116 0 01-1.379-.453 2 2 0 01-.72-1.013 8.823 8.823 0 01-.09-1.687v-4.626h-1.122v-.323a11.744 11.744 0 001.969-1.714 10.266 10.266 0 001.413-2.005zm-6.969 3.134v6.708a2.46 2.46 0 00.182 1.223 1.053 1.053 0 00.744.31v.329h-3.5v-1.144a4.344 4.344 0 01-1.225 1.067 2.846 2.846 0 01-1.377.336 2.021 2.021 0 01-1.287-.445 2.186 2.186 0 01-.757-1.041 7.65 7.65 0 01-.195-2.08v-3.4a2.447 2.447 0 00-.177-1.208 1.072 1.072 0 00-.744-.312V37h3.491v5.857a4.759 4.759 0 00.088 1.182.773.773 0 00.276.4.726.726 0 00.434.139 1.066 1.066 0 00.594-.177 3.733 3.733 0 00.879-.962v-4.583a2.446 2.446 0 00-.177-1.208 1.074 1.074 0 00-.748-.312v-.34zm-14.34 6.636v-2.87a5.382 5.382 0 00-1.65 1.394 1.692 1.692 0 00-.359 1 1.055 1.055 0 00.3.746.831.831 0 00.641.246 1.761 1.761 0 001.067-.517zm0 .671a4.523 4.523 0 01-2.818 1.381 1.648 1.648 0 01-1.216-.481 1.618 1.618 0 01-.485-1.2 2.365 2.365 0 01.842-1.766 15.926 15.926 0 013.677-2.082v-.864a4.141 4.141 0 00-.107-1.223.972.972 0 00-.4-.443 1.215 1.215 0 00-.661-.188 1.7 1.7 0 00-.981.267.469.469 0 00-.239.385.824.824 0 00.257.479 1.171 1.171 0 01.351.759 1.022 1.022 0 01-.333.767 1.239 1.239 0 01-.877.316 1.4 1.4 0 01-.966-.351 1.063 1.063 0 01-.391-.815 1.9 1.9 0 01.522-1.259 3.33 3.33 0 011.458-.924 5.938 5.938 0 011.943-.321 3.23 3.23 0 011.93.517 2.433 2.433 0 01.919 1.122 7.193 7.193 0 01.128 1.772v3.324a3.474 3.474 0 00.047.74.458.458 0 00.137.224.339.339 0 00.212.073c.158 0 .321-.113.487-.338l.271.218a3.257 3.257 0 01-.947.986 2.065 2.065 0 01-1.114.306 1.741 1.741 0 01-1.146-.344 1.529 1.529 0 01-.501-1.037zm-9.464-3.942a8.347 8.347 0 00-.162-2.029 1.659 1.659 0 00-.5-.832.77.77 0 00-.513-.165.9.9 0 00-.778.468 3.992 3.992 0 00-.541 2.234v.323zm2.251.611h-4.7a4.42 4.42 0 00.909 2.7 1.91 1.91 0 001.52.761 1.738 1.738 0 001-.308 3.925 3.925 0 00.962-1.1l.31.2a5.117 5.117 0 01-1.539 2.012 3.3 3.3 0 01-1.952.592 3.244 3.244 0 01-2.886-1.469 5.159 5.159 0 01-.789-2.931 4.873 4.873 0 011.161-3.416 3.574 3.574 0 012.717-1.268 2.941 2.941 0 012.26 1.067 4.853 4.853 0 011.027 3.16zm-15.785-2.3v3.814a12.36 12.36 0 00.053 1.481 1.542 1.542 0 00.44.877 1.338 1.338 0 001.689.068 2.037 2.037 0 00.56-1.054 11.865 11.865 0 00.227-2.841 5.193 5.193 0 00-.5-2.7 1.1 1.1 0 00-.962-.532 2 2 0 00-1.508.889zm0-5.537v4.72a3.248 3.248 0 012.364-1.118 2.955 2.955 0 011.659.517 3.437 3.437 0 011.216 1.471 5.184 5.184 0 01.443 2.2 5.712 5.712 0 01-.56 2.546 4.214 4.214 0 01-1.492 1.747 3.876 3.876 0 01-2.138.6 3.235 3.235 0 01-1.236-.22 3.4 3.4 0 01-1.065-.716l-1.419.926h-.312v-10.9a3.8 3.8 0 00-.064-.915.716.716 0 00-.289-.371 1.433 1.433 0 00-.663-.141v-.34z" fill="#fff"/><path data-name="Прямоугольник 129" fill="#76b900" d="M.001 40.983h27.446v.88H.001z"/><path data-name="Прямоугольник 130" fill="#76b900" d="M208.199 40.983h27.446v.88h-27.446z"/></g></svg>