<svg xmlns="http://www.w3.org/2000/svg" width="40.219" height="97.233" viewBox="0 0 40.219 97.233">
  <g id="Сгруппировать_1" data-name="Сгруппировать 1" transform="translate(-4319.439 -3387.789)">
    <path id="Контур_179" data-name="Контур 179" d="M4339.549,3388.054a20.115,20.115,0,0,0-19.419,25.311l19.046,71.081c.205.768.54.768.746,0l19.046-71.081a20.114,20.114,0,0,0-19.419-25.311Z" fill="#908f90"/>
    <path id="Контур_181" data-name="Контур 181" d="M4339.549,3387.789a20.119,20.119,0,0,0-19.42,25.311l19.046,71.081c.207.768.541.768.746,0l19.048-71.081a20.118,20.118,0,0,0-19.42-25.311Z" fill="#69a71a"/>
    <g id="Сгруппировать_64" data-name="Сгруппировать 64">
      <path id="Контур_182" data-name="Контур 182" d="M4344.267,3398.407c-.384-.338-.682-.7-.433-1.119.222-.372.646-.165,1.046-.074-.141-.17-.254-.291-.349-.425a.423.423,0,0,1-.077-.434c.078-.163.246-.147.383-.126a1.959,1.959,0,0,1,1.585.887c.162.288.065.443-.273.437a2.382,2.382,0,0,1-.374-.051c-.113-.021-.225-.05-.376-.085a4.47,4.47,0,0,1,.384.511c.184.384.006.7-.413.711-.179,0-.358,0-.557,0a1.68,1.68,0,0,1,.466.793c.1.584-.093.878-.676.913a2.015,2.015,0,0,1-1.336-.344,1.231,1.231,0,0,1-.461-1.226.535.535,0,0,1,.4-.37,1.3,1.3,0,0,1,.617-.033C4343.941,3398.392,4344.065,3398.392,4344.267,3398.407Z" fill="#fff"/>
      <path id="Контур_183" data-name="Контур 183" d="M4341.461,3410.388a1.4,1.4,0,0,1-.195.848,1.424,1.424,0,0,1-1.46.629,1.6,1.6,0,0,1-1.168-2.552,1.114,1.114,0,0,1,.575-.429,1.96,1.96,0,0,1,1.65.1A1.385,1.385,0,0,1,4341.461,3410.388Z" fill="#fff"/>
      <path id="Контур_184" data-name="Контур 184" d="M4336.487,3410.1a1.338,1.338,0,0,1-1.512-1.508,1.441,1.441,0,0,1,1.635-1.552c1.067.031,1.4.611,1.4,1.545C4338.017,3409.5,4337.643,3410.149,4336.487,3410.1Z" fill="#fff"/>
      <path id="Контур_185" data-name="Контур 185" d="M4340.677,3406.974a1.271,1.271,0,0,1,.589-1.3,1.563,1.563,0,0,1,2.358,1.2,2.123,2.123,0,0,1-.043.727,1.132,1.132,0,0,1-1.022.866,2.2,2.2,0,0,1-1.148-.083A1.3,1.3,0,0,1,4340.677,3406.974Z" fill="#fff"/>
      <path id="Контур_186" data-name="Контур 186" d="M4338.517,3407.095a1.429,1.429,0,0,1-1.073-.473,1.651,1.651,0,0,1-.141-1.79,1.347,1.347,0,0,1,1.414-.646,1.541,1.541,0,0,1,.862.184,1.422,1.422,0,0,1,.637,1.3,1.272,1.272,0,0,1-.645,1.227A1.954,1.954,0,0,1,4338.517,3407.095Z" fill="#fff"/>
      <path id="Контур_187" data-name="Контур 187" d="M4342.037,3411.7a2.136,2.136,0,0,1,.079-.6,1.134,1.134,0,0,1,1.183-.87c.172,0,.345-.012.515,0a1.09,1.09,0,0,1,.964.682,1.891,1.891,0,0,1,0,1.549,1.131,1.131,0,0,1-.673.627c-.527.2-1.545.188-1.878-.39A1.7,1.7,0,0,1,4342.037,3411.7Z" fill="#fff"/>
      <path id="Контур_188" data-name="Контур 188" d="M4335.1,3406.282c-.1,1.058-.563,1.636-1.749,1.56a1.069,1.069,0,0,1-1.015-.6,1.762,1.762,0,0,1,.746-2.17,1.445,1.445,0,0,1,1.8.392A2.188,2.188,0,0,1,4335.1,3406.282Z" fill="#fff"/>
      <path id="Контур_189" data-name="Контур 189" d="M4337.876,3414.821a1.706,1.706,0,0,1-.436-.034,1.292,1.292,0,0,1-.969-1.39,1.249,1.249,0,0,1,.72-1.259c.661-.26,1.782-.222,2.1.682a1.514,1.514,0,0,1-.625,1.9A1.714,1.714,0,0,1,4337.876,3414.821Z" fill="#fff"/>
      <path id="Контур_190" data-name="Контур 190" d="M4335.983,3411.948a1.214,1.214,0,0,1-.6,1.24,1.589,1.589,0,0,1-1.691-.14,1.424,1.424,0,0,1-.483-1.464c.136-1.078.991-1.294,1.854-1.072C4335.742,3410.686,4335.982,3411.131,4335.983,3411.948Z" fill="#fff"/>
      <path id="Контур_191" data-name="Контур 191" d="M4345.344,3407.036a1.253,1.253,0,0,1,1.4,1.271,2.023,2.023,0,0,1-.17,1.15,1.285,1.285,0,0,1-1.335.525c-.978-.181-1.181-.976-1.159-1.792A1.122,1.122,0,0,1,4345.344,3407.036Z" fill="#fff"/>
      <path id="Контур_192" data-name="Контур 192" d="M4341.3,3413.322a1.2,1.2,0,0,1,1.229.582c.246.475.212,1.6-.405,1.937a1.738,1.738,0,0,1-1.708.072,1.435,1.435,0,0,1,.884-2.591Z" fill="#fff"/>
      <path id="Контур_193" data-name="Контур 193" d="M4335.815,3404.882c-1.268.057-1.476-.85-1.239-1.722a1.125,1.125,0,0,1,.691-.784,2.1,2.1,0,0,1,1.48-.078,1.221,1.221,0,0,1,.6,1.58A1.343,1.343,0,0,1,4335.815,3404.882Z" fill="#fff"/>
      <path id="Контур_194" data-name="Контур 194" d="M4345.077,3413.8a1.4,1.4,0,0,1,1.515-1.625,1.02,1.02,0,0,1,1.071.93,1.842,1.842,0,0,1-.2,1.23,1.607,1.607,0,0,1-1.871.539.931.931,0,0,1-.513-.8A2.022,2.022,0,0,1,4345.077,3413.8Z" fill="#fff"/>
      <path id="Контур_195" data-name="Контур 195" d="M4333,3409.954c-.007.6-.081,1.107-.6,1.326-.849.356-1.8.151-1.932-.986a2.444,2.444,0,0,1,.014-.673,1.182,1.182,0,0,1,.864-.944,1.287,1.287,0,0,1,1.45.461A1.339,1.339,0,0,1,4333,3409.954Z" fill="#fff"/>
      <path id="Контур_196" data-name="Контур 196" d="M4330.791,3403.97a1.509,1.509,0,0,1,1.766-1.55.778.778,0,0,1,.777.666,1.571,1.571,0,0,1-1.864,1.951C4331,3404.977,4330.754,3404.572,4330.791,3403.97Z" fill="#fff"/>
      <path id="Контур_197" data-name="Контур 197" d="M4349.274,3410.347a1.382,1.382,0,0,1-.382,1.166,1.213,1.213,0,0,1-1.3.18,1.073,1.073,0,0,1-.655-.954,1.963,1.963,0,0,1,.151-1.191,1.121,1.121,0,0,1,1.252-.535,1.045,1.045,0,0,1,.929,1.009A1.76,1.76,0,0,1,4349.274,3410.347Z" fill="#fff"/>
      <path id="Контур_198" data-name="Контур 198" d="M4330.771,3407.475a1.684,1.684,0,0,1-.172.946.953.953,0,0,1-.9.539c-.1,0-.2,0-.3,0a.823.823,0,0,1-.872-.661,2.051,2.051,0,0,1,.176-1.526,1.16,1.16,0,0,1,1.148-.565.852.852,0,0,1,.83.495A1.751,1.751,0,0,1,4330.771,3407.475Z" fill="#fff"/>
      <path id="Контур_199" data-name="Контур 199" d="M4342.63,3416.613a1.48,1.48,0,0,1,2.145-1.276.908.908,0,0,1,.472.915,1.421,1.421,0,0,1-1.963,1.392C4342.826,3417.526,4342.628,3417.172,4342.63,3416.613Z" fill="#fff"/>
      <path id="Контур_200" data-name="Контур 200" d="M4335.231,3401.89a1.184,1.184,0,0,1-.641-.1.672.672,0,0,1-.43-.6,1.253,1.253,0,0,1,.459-1.279,1.768,1.768,0,0,1,1.722-.213.844.844,0,0,1,.539.78,1.242,1.242,0,0,1-.944,1.314A1.634,1.634,0,0,1,4335.231,3401.89Z" fill="#fff"/>
      <path id="Контур_201" data-name="Контур 201" d="M4335.754,3396.759a1.878,1.878,0,0,1,1.157-.21.55.55,0,0,1,.6.4.594.594,0,0,1-.211.683,1.762,1.762,0,0,1-1.54.3.562.562,0,0,1-.292-.942c.042-.057.09-.109.182-.218-.25.066-.443.109-.63.168a1.9,1.9,0,0,1-.907.073.363.363,0,0,1-.26-.6,1.724,1.724,0,0,1,1.333-.669,2.454,2.454,0,0,1,.352-.009c.185,0,.37.014.463.212s-.018.381-.128.548C4335.831,3396.562,4335.726,3396.6,4335.754,3396.759Z" fill="#fff"/>
      <path id="Контур_202" data-name="Контур 202" d="M4348.688,3416.074a1.559,1.559,0,0,1-1.592,1.6.706.706,0,0,1-.8-.707,1.57,1.57,0,0,1,1.3-1.806A.845.845,0,0,1,4348.688,3416.074Z" fill="#fff"/>
      <path id="Контур_203" data-name="Контур 203" d="M4328.781,3406.186c-.551,0-.771-.205-.816-.718a1.582,1.582,0,0,1,.706-1.641,1.3,1.3,0,0,1,.8-.211.616.616,0,0,1,.557.369,1.774,1.774,0,0,1-.726,2.076A1.235,1.235,0,0,1,4328.781,3406.186Z" fill="#fff"/>
      <path id="Контур_204" data-name="Контур 204" d="M4332.825,3399.806c.655,0,.9.361.737,1.014a1.61,1.61,0,0,1-1.622,1.222c-.563.035-.855-.293-.813-.857A1.5,1.5,0,0,1,4332.825,3399.806Z" fill="#fff"/>
      <path id="Контур_205" data-name="Контур 205" d="M4349.9,3411.359c.577-.032.865.214.906.714a2.282,2.282,0,0,1-.2,1.369,1.085,1.085,0,0,1-1.37.409.685.685,0,0,1-.363-.48,2.122,2.122,0,0,1,.179-1.525A.824.824,0,0,1,4349.9,3411.359Z" fill="#fff"/>
      <path id="Контур_206" data-name="Контур 206" d="M4342.224,3396.289a.972.972,0,0,1-.31-.4c-.074-.2-.013-.366.19-.4a2,2,0,0,1,1.766.439.682.682,0,0,1,.142.2.291.291,0,0,1-.275.461,4.2,4.2,0,0,1-.866-.037c0,.141.112.2.169.281a.5.5,0,0,1-.39.833,2.109,2.109,0,0,1-1.328-.249.658.658,0,0,1-.292-.777c.1-.284.36-.328.621-.34C4341.829,3396.282,4342.009,3396.289,4342.224,3396.289Z" fill="#fff"/>
      <path id="Контур_207" data-name="Контур 207" d="M4331.59,3422.267a5.085,5.085,0,0,1-.418-.527.77.77,0,0,1-.095-.469.3.3,0,0,1,.3-.293,1.988,1.988,0,0,1,1.331.356,1.107,1.107,0,0,1,.433.7.461.461,0,0,1-.43.546,2.131,2.131,0,0,1-.7-.109c.131.269.373.429.414.71.031.213-.072.39-.271.352a2.356,2.356,0,0,1-1.49-.743,1.039,1.039,0,0,1-.079-.109c-.1-.156-.206-.327-.085-.5s.295-.123.471-.079A3.807,3.807,0,0,1,4331.59,3422.267Z" fill="#fff"/>
      <path id="Контур_208" data-name="Контур 208" d="M4331.583,3418.555c.029.542-.276.758-.778.73a1.506,1.506,0,0,1-1.51-1.424c-.1-.688.262-1.04.944-.908A1.611,1.611,0,0,1,4331.583,3418.555Z" fill="#fff"/>
      <path id="Контур_209" data-name="Контур 209" d="M4337.784,3399.681c-.516-.009-.918.013-1.2-.365a.868.868,0,0,1,.087-1.111,1.732,1.732,0,0,1,1.558-.376,1.414,1.414,0,0,1,.468.117.864.864,0,0,1,.364.971.874.874,0,0,1-.672.7A2.692,2.692,0,0,1,4337.784,3399.681Z" fill="#fff"/>
      <path id="Контур_210" data-name="Контур 210" d="M4346.151,3400.132a1.61,1.61,0,0,1,1.66,1.7.552.552,0,0,1-.509.541,1.656,1.656,0,0,1-1.885-1.385C4345.344,3400.52,4345.546,3400.074,4346.151,3400.132Z" fill="#fff"/>
      <path id="Контур_211" data-name="Контур 211" d="M4341.277,3399.393a2.107,2.107,0,0,1-1.3-.368.881.881,0,0,1-.241-.939.711.711,0,0,1,.675-.534,2.332,2.332,0,0,1,1.347.187.966.966,0,0,1,.557.806.72.72,0,0,1-.611.8C4341.564,3399.365,4341.42,3399.376,4341.277,3399.393Z" fill="#fff"/>
      <path id="Контур_212" data-name="Контур 212" d="M4343.832,3420.464c-.872.079-.982-.658-.775-1.253a1.2,1.2,0,0,1,1.09-.763,1.124,1.124,0,0,1,.867.076.53.53,0,0,1,.26.386A1.3,1.3,0,0,1,4343.832,3420.464Z" fill="#fff"/>
      <path id="Контур_213" data-name="Контур 213" d="M4347.416,3418.2a.62.62,0,0,1,.708.791,1.706,1.706,0,0,1-1.761,1.37.586.586,0,0,1-.555-.672,1.541,1.541,0,0,1,.944-1.373A2.177,2.177,0,0,1,4347.416,3418.2Z" fill="#fff"/>
      <path id="Контур_214" data-name="Контур 214" d="M4342.1,3420.489h.136c.368-.013.719.017.872.428a1.016,1.016,0,0,1-.369,1.086,1.806,1.806,0,0,1-1.627.224.594.594,0,0,1-.446-.6.927.927,0,0,1,.494-.943A1.7,1.7,0,0,1,4342.1,3420.489Z" fill="#fff"/>
      <path id="Контур_215" data-name="Контур 215" d="M4335.889,3422.411a1.485,1.485,0,0,1-1.245-.459c-.222-.265-.333-.937.008-1.184a1,1,0,0,1,.52-.2,2.023,2.023,0,0,1,1.264.3,1.021,1.021,0,0,1,.45.93.654.654,0,0,1-.619.609A3.364,3.364,0,0,1,4335.889,3422.411Z" fill="#fff"/>
      <path id="Контур_216" data-name="Контур 216" d="M4333.878,3399.621c-.075.006-.093.009-.111.009-.334.009-.663-.012-.85-.344a.994.994,0,0,1,.229-1,2.01,2.01,0,0,1,1.75-.5c.392.051.546.483.387.94a1.209,1.209,0,0,1-.781.768A1.235,1.235,0,0,1,4333.878,3399.621Z" fill="#fff"/>
      <path id="Контур_217" data-name="Контур 217" d="M4332.355,3419.192a1.547,1.547,0,0,1,1.393.72,1.32,1.32,0,0,1,.156.65.536.536,0,0,1-.373.544,1.567,1.567,0,0,1-1.952-1.066C4331.48,3419.469,4331.692,3419.188,4332.355,3419.192Z" fill="#fff"/>
      <path id="Контур_218" data-name="Контур 218" d="M4338.739,3422.8a2.619,2.619,0,0,1-.753-.142.784.784,0,0,1-.5-.863.776.776,0,0,1,.659-.657,2.224,2.224,0,0,1,1.148-.007.8.8,0,0,1,.7.827.79.79,0,0,1-.727.776C4339.088,3422.768,4338.906,3422.779,4338.739,3422.8Z" fill="#fff"/>
      <path id="Контур_219" data-name="Контур 219" d="M4330.446,3401.572a1.578,1.578,0,0,1-1.357,1.607.606.606,0,0,1-.757-.6,1.619,1.619,0,0,1,1.418-1.646C4330.266,3400.885,4330.451,3401.059,4330.446,3401.572Z" fill="#fff"/>
      <path id="Контур_220" data-name="Контур 220" d="M4349.31,3415.811a1.685,1.685,0,0,1,.384-1.252,1.1,1.1,0,0,1,.954-.414.463.463,0,0,1,.463.388,2.115,2.115,0,0,1-.3,1.581,1.171,1.171,0,0,1-1.008.481.475.475,0,0,1-.49-.478C4349.3,3416.01,4349.31,3415.9,4349.31,3415.811Z" fill="#fff"/>
      <path id="Контур_221" data-name="Контур 221" d="M4345.553,3420.557a.581.581,0,0,1,.627.25.752.752,0,0,1-.046.749,1.754,1.754,0,0,1-1.67.845c-.388.006-.544-.2-.531-.592a1.275,1.275,0,0,1,1-1.14A1.54,1.54,0,0,1,4345.553,3420.557Z" fill="#fff"/>
      <path id="Контур_222" data-name="Контур 222" d="M4350.735,3417.51a1.778,1.778,0,0,1-1.381,1.664.4.4,0,0,1-.523-.445,1.763,1.763,0,0,1,1.165-1.718A.508.508,0,0,1,4350.735,3417.51Z" fill="#fff"/>
      <path id="Контур_223" data-name="Контур 223" d="M4331.019,3398.723c.5,0,.693.252.524.762a1.566,1.566,0,0,1-1.254,1.1c-.239.047-.517.161-.705-.092a.717.717,0,0,1,.014-.744A1.555,1.555,0,0,1,4331.019,3398.723Z" fill="#fff"/>
      <path id="Контур_224" data-name="Контур 224" d="M4330.261,3421.012a1.723,1.723,0,0,1-1.468-1.178c-.044-.194-.163-.386-.029-.6a.344.344,0,0,1,.325-.2,1.7,1.7,0,0,1,1.659,1.337C4330.838,3420.79,4330.656,3421.012,4330.261,3421.012Z" fill="#fff"/>
      <path id="Контур_225" data-name="Контур 225" d="M4348.362,3399.987c0,.343-.089.436-.429.441a1.661,1.661,0,0,1-1.646-1.338c-.061-.337.091-.538.434-.52a1.779,1.779,0,0,1,1.585,1.045A.874.874,0,0,1,4348.362,3399.987Z" fill="#fff"/>
      <path id="Контур_226" data-name="Контур 226" d="M4332.935,3396.972c.469-.022.661.222.532.633a1.163,1.163,0,0,1-.578.648,1.909,1.909,0,0,1-1.256.3c-.327-.048-.426-.264-.293-.573a1.712,1.712,0,0,1,1.338-.976A2.252,2.252,0,0,1,4332.935,3396.972Z" fill="#fff"/>
      <path id="Контур_227" data-name="Контур 227" d="M4342.2,3423.715a1.014,1.014,0,0,1-.5-.132c-.311-.177-.385-.441-.135-.825a.88.88,0,0,1,.464-.356,2.167,2.167,0,0,1,1.257-.117.434.434,0,0,1,.322.585.845.845,0,0,1-.308.463A2.608,2.608,0,0,1,4342.2,3423.715Z" fill="#fff"/>
      <path id="Контур_228" data-name="Контур 228" d="M4339.161,3397.551a1.755,1.755,0,0,1-.681-.134.562.562,0,0,1-.4-.63.643.643,0,0,1,.577-.559,3.388,3.388,0,0,1,1.016,0,.733.733,0,0,1,.6.582.621.621,0,0,1-.4.612A1.556,1.556,0,0,1,4339.161,3397.551Z" fill="#fff"/>
      <path id="Контур_229" data-name="Контур 229" d="M4349.14,3419.516c.29,0,.424.161.344.467a1.924,1.924,0,0,1-1.184,1.348,1.584,1.584,0,0,1-.23.078.407.407,0,0,1-.528-.457A1.705,1.705,0,0,1,4349.14,3419.516Z" fill="#fff"/>
      <path id="Контур_230" data-name="Контур 230" d="M4346,3423.128c-.373,0-.52-.225-.374-.571a1.6,1.6,0,0,1,1.091-.9,1.747,1.747,0,0,1,.548-.134c.35.006.495.21.363.534A2.142,2.142,0,0,1,4346,3423.128Z" fill="#fff"/>
      <path id="Контур_231" data-name="Контур 231" d="M4337.092,3422.845a1.453,1.453,0,0,1,.74.118.549.549,0,0,1-.047,1.076,1.58,1.58,0,0,1-1.131-.114.689.689,0,0,1-.362-.386.489.489,0,0,1,.45-.691A2.289,2.289,0,0,1,4337.092,3422.845Z" fill="#fff"/>
      <path id="Контур_232" data-name="Контур 232" d="M4339.813,3422.935a1.234,1.234,0,0,1,.645.1.506.506,0,0,1,.059.869,1.664,1.664,0,0,1-1.5.117.436.436,0,0,1-.3-.464.479.479,0,0,1,.3-.466A1.551,1.551,0,0,1,4339.813,3422.935Z" fill="#fff"/>
      <path id="Контур_233" data-name="Контур 233" d="M4341.417,3425.023a1.1,1.1,0,0,1-.4-.072c-.337-.143-.4-.361-.179-.647a.549.549,0,0,1,.155-.149,2.256,2.256,0,0,1,1.735-.231.322.322,0,0,1,.183.5.784.784,0,0,1-.33.31A3.452,3.452,0,0,1,4341.417,3425.023Z" fill="#fff"/>
      <path id="Контур_234" data-name="Контур 234" d="M4337.4,3396.241a1.272,1.272,0,0,1-.561-.059.416.416,0,0,1-.113-.765,1.4,1.4,0,0,1,.657-.226,1.79,1.79,0,0,1,1.142.076.394.394,0,0,1,.084.672,1.611,1.611,0,0,1-.965.3C4337.568,3396.248,4337.486,3396.241,4337.4,3396.241Z" fill="#fff"/>
      <path id="Контур_235" data-name="Контур 235" d="M4343.813,3424.377a2.984,2.984,0,0,1-.319-.016c-.263-.044-.334-.191-.245-.443a1.018,1.018,0,0,1,.454-.548,2.021,2.021,0,0,1,1.367-.284c.277.039.334.192.23.447a.867.867,0,0,1-.313.4A2.4,2.4,0,0,1,4343.813,3424.377Z" fill="#fff"/>
      <path id="Контур_236" data-name="Контур 236" d="M4340.594,3396.191a2.99,2.99,0,0,1-1.1-.241.406.406,0,0,1,.112-.791,2.454,2.454,0,0,1,1.513.13c.186.078.357.2.344.44s-.179.333-.385.4A1.544,1.544,0,0,1,4340.594,3396.191Z" fill="#fff"/>
      <path id="Контур_237" data-name="Контур 237" d="M4336.01,3423.973a2.5,2.5,0,0,1,1.2.27.454.454,0,0,1,.237.5c-.035.208-.208.252-.38.286a2.428,2.428,0,0,1-1.376-.162c-.278-.109-.528-.442-.457-.607.12-.281.385-.289.644-.289Z" fill="#fff"/>
      <path id="Контур_238" data-name="Контур 238" d="M4334.994,3423.509a1.464,1.464,0,0,1-1.1-.426.6.6,0,0,1-.116-.672.612.612,0,0,1,.661-.172c.246.078.527.022.75.191.05.038.11.063.16.1a.751.751,0,0,1,.265.7C4335.553,3423.417,4335.355,3423.51,4334.994,3423.509Z" fill="#fff"/>
      <path id="Контур_239" data-name="Контур 239" d="M4334.534,3424.535a3.264,3.264,0,0,1-1.439-.49.637.637,0,0,1-.256-.338c-.061-.219.039-.429.264-.432a2.459,2.459,0,0,1,1.62.486.662.662,0,0,1,.151.188c.074.123.163.255.085.4A.411.411,0,0,1,4334.534,3424.535Z" fill="#fff"/>
      <path id="Контур_240" data-name="Контур 240" d="M4339.07,3425.239a1.854,1.854,0,0,1-.841-.165.352.352,0,0,1-.05-.657.827.827,0,0,1,.453-.164c.341-.013.684-.009,1.026,0a.633.633,0,0,1,.371.151.372.372,0,0,1-.04.661A1.886,1.886,0,0,1,4339.07,3425.239Z" fill="#fff"/>
      <path id="Контур_241" data-name="Контур 241" d="M4348.433,3399.024a1.86,1.86,0,0,1-1.547-1.2c-.069-.277.08-.467.331-.381a2.306,2.306,0,0,1,1.353.92.888.888,0,0,1,.126.352C4348.724,3398.935,4348.642,3399.045,4348.433,3399.024Z" fill="#fff"/>
      <path id="Контур_242" data-name="Контур 242" d="M4329.958,3422.208a1.977,1.977,0,0,1-1.543-1.37c-.022-.214.126-.284.31-.277a1.924,1.924,0,0,1,1.481,1.369A.231.231,0,0,1,4329.958,3422.208Z" fill="#fff"/>
    </g>
  </g>
</svg>
