<svg xmlns="http://www.w3.org/2000/svg" width="12.431" height="15.557"><g data-name="Сгруппировать 356"><g data-name="Сгруппировать 80"><path data-name="Контур 333" d="M12.217 12.333l-1.566-2.318a1.315 1.315 0 00-2.244.069 1.346 1.346 0 01-1.687.537 6.1 6.1 0 01-2.909-4.306 1.28 1.28 0 011.128-1.364 1.317 1.317 0 00.9-2.057L4.273.576A1.412 1.412 0 002.4.213L.827 1.276C-.76 2.408-.015 6.367 2.614 10.258s6.01 6.129 7.666 5.011l1.571-1.063a1.411 1.411 0 00.366-1.873z" fill="#69a71a"/></g></g></svg>