<svg xmlns="http://www.w3.org/2000/svg" width="84.028" height="90.492" viewBox="0 0 84.028 90.492">
  <g id="Сгруппировать_158" data-name="Сгруппировать 158" transform="translate(-6239.307 -4357.345)">
    <path id="Контур_597" data-name="Контур 597" d="M6297.819,4433.39a6.924,6.924,0,0,0,3.749,1.083,2.414,2.414,0,0,0,.34-.016,7.114,7.114,0,0,0-.34-14.22c-.258,0-.5.016-.759.032a7.117,7.117,0,0,0-2.99,13.121Zm3.749-9.922a3.424,3.424,0,0,1,.711.065,3.886,3.886,0,0,1-.711,7.708,3.571,3.571,0,0,1-1.018-.145,3.883,3.883,0,0,1,1.018-7.628Z" fill="#fff"/>
    <path id="Контур_598" data-name="Контур 598" d="M6319.117,4438.981h-.242a12.877,12.877,0,0,0-4.541-22.025c-.081-.016-.145-.048-.21-.064l-13.234-4.67,7.707-33.806h4.978a6.848,6.848,0,0,0,6.867-6.8v-9.631a4.694,4.694,0,0,0-9.388,0v7.127h-12.9a4.654,4.654,0,1,0,0,9.307h.565l-7.061,30.558-23-8.112-.372-.13c-.08-.032-.177-.048-.274-.08a20.811,20.811,0,0,0-4.913-1.067l-4.524-9.4h2.424c3.765,0,6.819-2.537,6.819-5.639,0-2.78-2.408-5.123-5.721-5.575l-14.866-1.988a7.8,7.8,0,0,0-6.076,1.7,5.152,5.152,0,0,0-1.858,3.878v1.988c0,3.1,3.07,5.639,6.835,5.639h2.311l5.025,10.649a21.238,21.238,0,0,0-3.878,38.152h-6.092a4.114,4.114,0,0,0-4.121,4.1v.646a4.115,4.115,0,0,0,4.121,4.1h75.609a4.112,4.112,0,0,0,4.1-4.1v-.646A4.111,4.111,0,0,0,6319.117,4438.981Zm-20.958-63.8a1.422,1.422,0,1,1,0-2.844h14.511a1.611,1.611,0,0,0,1.616-1.616v-8.743a1.463,1.463,0,0,1,2.924,0v9.631a3.607,3.607,0,0,1-3.635,3.572h-15.416Zm3.878,3.231h3.248l-7.45,32.723-3.118-1.1Zm-59.5,6.125v-1.988a1.925,1.925,0,0,1,.744-1.438,4.341,4.341,0,0,1,2.86-.97c.226,0,.452.017.679.033l14.85,2c1.681.211,2.925,1.229,2.925,2.36,0,1.309-1.648,2.407-3.587,2.407h-14.867C6244.187,4386.948,6242.538,4385.85,6242.538,4384.541Zm9.486,5.639H6255l4.509,9.373a18.621,18.621,0,0,0-2.877.388Zm-9.4,30.671a18.2,18.2,0,0,1,12.249-17.081,17.44,17.44,0,0,1,3.183-.808,18.539,18.539,0,0,1,6.755.146,17.137,17.137,0,0,1,2.408.662l.129.049,10.6,3.733,12.976,4.589,9.243,3.248,5.22,1.842,7.772,2.747c.033.016.065.016.1.032a9.7,9.7,0,0,1-3.021,18.971h-49.205A18.287,18.287,0,0,1,6242.619,4420.851Zm77.371,22.881a.89.89,0,0,1-.873.873h-75.609a.893.893,0,0,1-.889-.873v-.646a.883.883,0,0,1,.889-.873h75.609a.88.88,0,0,1,.873.873Z" fill="#fff"/>
    <path id="Контур_599" data-name="Контур 599" d="M6274.065,4431.16a1.564,1.564,0,0,0,.388,2.085.406.406,0,0,0,.162.129,1.711,1.711,0,0,0,.824.226,1.623,1.623,0,0,0,1.389-.775l1.212-2.036,1.2-1.988a1.626,1.626,0,0,0-.549-2.23.5.5,0,0,0-.162-.065,1.576,1.576,0,0,0-2.052.631l-.388.646-4.363-2.553a11.3,11.3,0,0,0,.889-4.444,11.6,11.6,0,1,0-2.537,7.207l4.363,2.553Zm-13.04-2.036a8.366,8.366,0,1,1,7.869-5.559l-7.045-4.1a1.613,1.613,0,0,0-2.214.582,1.6,1.6,0,0,0,.582,2.2l7.013,4.089A8.245,8.245,0,0,1,6261.025,4429.124Z" fill="#69a71a"/>
  </g>
</svg>
