<?xml version="1.0" encoding="utf-8"?>
<!-- Generator: Adobe Illustrator 24.0.1, SVG Export Plug-In . SVG Version: 6.00 Build 0)  -->
<svg version="1.1" id="Layer_1" xmlns="http://www.w3.org/2000/svg" xmlns:xlink="http://www.w3.org/1999/xlink" x="0px" y="0px"
	 viewBox="0 0 226.77 56.69" style="enable-background:new 0 0 226.77 56.69;" xml:space="preserve">
<style type="text/css">
	.st0{fill:#6BB52D;}
	.st1{fill:#FFFFFF;}
</style>
<g>
	<g>
		<path class="st0" d="M130.38,9.46c-0.42-0.37-0.74-0.76-0.47-1.22c0.24-0.41,0.7-0.18,1.14-0.08c-0.15-0.18-0.28-0.32-0.38-0.46
			c-0.1-0.14-0.16-0.3-0.08-0.47c0.08-0.18,0.27-0.16,0.42-0.14c0.69,0.11,1.35,0.3,1.73,0.97c0.18,0.31,0.07,0.48-0.3,0.48
			c-0.14,0-0.27-0.03-0.41-0.06c-0.12-0.02-0.24-0.05-0.41-0.09c0.15,0.21,0.32,0.35,0.42,0.56c0.2,0.42,0.01,0.76-0.45,0.77
			c-0.19,0-0.39,0-0.61,0c0.22,0.26,0.45,0.5,0.51,0.86c0.1,0.64-0.1,0.96-0.74,0.99c-0.52,0.03-1.02-0.06-1.46-0.37
			c-0.4-0.29-0.62-0.87-0.5-1.34c0.06-0.23,0.23-0.34,0.43-0.4c0.22-0.07,0.44-0.07,0.67-0.04C130.03,9.45,130.16,9.45,130.38,9.46z
			"/>
		<path class="st0" d="M127.32,22.51c0.03,0.3-0.04,0.63-0.21,0.92c-0.36,0.61-0.97,0.73-1.59,0.68c-1.39-0.1-2.07-1.63-1.27-2.78
			c0.16-0.22,0.37-0.38,0.63-0.47c0.62-0.21,1.24-0.2,1.8,0.11C127.23,21.3,127.35,21.87,127.32,22.51z"/>
		<path class="st0" d="M121.91,22.2c-1.21,0.08-1.67-0.77-1.65-1.64c0.02-1.09,0.65-1.72,1.78-1.69c1.16,0.03,1.52,0.67,1.53,1.68
			C123.57,21.55,123.17,22.25,121.91,22.2z"/>
		<path class="st0" d="M126.47,18.79c-0.04-0.58,0.1-1.09,0.64-1.42c1.08-0.64,2.47,0.07,2.57,1.31c0.02,0.26,0.02,0.53-0.05,0.79
			c-0.14,0.54-0.56,0.89-1.11,0.94c-0.42,0.04-0.86,0.09-1.25-0.09C126.61,20.04,126.43,19.47,126.47,18.79z"/>
		<path class="st0" d="M124.12,18.92c-0.33-0.05-0.85-0.08-1.17-0.52c-0.45-0.61-0.48-1.29-0.15-1.95c0.31-0.63,0.92-0.72,1.54-0.7
			c0.32,0.01,0.65,0.01,0.94,0.2c0.51,0.34,0.7,0.83,0.69,1.41c-0.01,0.56-0.17,1.06-0.7,1.34
			C124.96,18.87,124.62,18.94,124.12,18.92z"/>
		<path class="st0" d="M127.95,23.94c0.01-0.15,0-0.4,0.09-0.65c0.23-0.65,0.61-0.94,1.29-0.95c0.19,0,0.38-0.01,0.56,0.01
			c0.49,0.05,0.86,0.29,1.05,0.74c0.24,0.56,0.25,1.12,0,1.69c-0.15,0.34-0.4,0.56-0.73,0.68c-0.57,0.22-1.68,0.2-2.05-0.43
			C127.98,24.71,127.93,24.39,127.95,23.94z"/>
		<path class="st0" d="M120.4,18.04c-0.11,1.15-0.61,1.78-1.91,1.7c-0.48-0.03-0.88-0.18-1.11-0.65c-0.28-0.59-0.14-1.99,0.81-2.36
			c0.74-0.29,1.62-0.17,1.96,0.43C120.32,17.44,120.36,17.76,120.4,18.04z"/>
		<path class="st0" d="M123.42,27.34c-0.1,0-0.29,0.01-0.48-0.04c-0.7-0.19-1.09-0.76-1.05-1.51c0.03-0.59,0.19-1.14,0.78-1.37
			c0.72-0.28,1.94-0.24,2.29,0.74c0.29,0.83,0.02,1.74-0.68,2.07C124.03,27.35,123.77,27.34,123.42,27.34z"/>
		<path class="st0" d="M121.36,24.21c0,0.56-0.1,1.08-0.65,1.35c-0.63,0.3-1.27,0.25-1.84-0.15c-0.55-0.39-0.6-0.99-0.53-1.59
			c0.15-1.17,1.08-1.41,2.02-1.17C121.09,22.84,121.36,23.32,121.36,24.21z"/>
		<path class="st0" d="M131.55,18.86c0.94-0.04,1.5,0.57,1.52,1.38c0.01,0.43,0.04,0.86-0.19,1.25c-0.29,0.49-0.92,0.67-1.45,0.57
			c-1.07-0.2-1.29-1.06-1.26-1.95C130.2,19.34,130.73,18.8,131.55,18.86z"/>
		<path class="st0" d="M127.15,25.71c0.56-0.01,1.06,0.09,1.34,0.63c0.27,0.52,0.23,1.74-0.44,2.11c-0.61,0.33-1.23,0.4-1.86,0.08
			c-0.56-0.29-0.64-0.82-0.63-1.39C125.57,26.06,126.31,25.65,127.15,25.71z"/>
		<path class="st0" d="M121.17,16.51c-1.38,0.06-1.61-0.93-1.35-1.88c0.11-0.39,0.35-0.69,0.75-0.85c0.53-0.21,1.07-0.27,1.61-0.08
			c0.61,0.2,0.9,1.01,0.65,1.72C122.56,16.23,122.13,16.51,121.17,16.51z"/>
		<path class="st0" d="M131.26,26.23c-0.07-1.24,0.74-1.81,1.65-1.77c0.66,0.03,1.05,0.36,1.17,1.01c0.08,0.48,0.01,0.93-0.22,1.34
			c-0.33,0.6-1.42,0.9-2.04,0.59c-0.36-0.18-0.52-0.49-0.56-0.87C131.25,26.4,131.26,26.27,131.26,26.23z"/>
		<path class="st0" d="M118.11,22.04c-0.01,0.65-0.09,1.21-0.66,1.44c-0.92,0.39-1.96,0.16-2.1-1.07c-0.03-0.25-0.02-0.49,0.02-0.73
			c0.08-0.49,0.47-0.92,0.94-1.03c0.69-0.15,1.29,0.03,1.58,0.5C118.06,21.45,118.14,21.78,118.11,22.04z"/>
		<path class="st0" d="M115.7,15.52c0.02-1.28,0.95-1.74,1.92-1.69c0.45,0.02,0.77,0.29,0.85,0.72c0.2,1.22-0.51,2.32-2.03,2.13
			C115.93,16.62,115.66,16.18,115.7,15.52z"/>
		<path class="st0" d="M135.83,22.47c0.01,0.47-0.04,0.94-0.42,1.27c-0.42,0.36-0.91,0.39-1.41,0.2c-0.47-0.18-0.65-0.59-0.71-1.04
			c-0.06-0.44-0.05-0.89,0.16-1.3c0.24-0.46,0.78-0.7,1.36-0.58c0.64,0.13,0.89,0.43,1.01,1.1
			C135.85,22.23,135.83,22.35,135.83,22.47z"/>
		<path class="st0" d="M115.68,19.34c0.01,0.36,0,0.71-0.19,1.03c-0.22,0.38-0.53,0.6-0.98,0.59c-0.11,0-0.22,0-0.32,0
			c-0.5,0-0.82-0.24-0.95-0.72c-0.16-0.58-0.08-1.14,0.19-1.66c0.26-0.49,0.72-0.62,1.25-0.62c0.42,0,0.72,0.17,0.9,0.54
			C115.72,18.77,115.67,19.06,115.68,19.34z"/>
		<path class="st0" d="M128.6,29.29c-0.02-1.38,1.49-1.8,2.34-1.39c0.4,0.19,0.52,0.58,0.51,1c-0.04,1.42-1.14,1.77-2.14,1.52
			C128.81,30.29,128.59,29.9,128.6,29.29z"/>
		<path class="st0" d="M120.54,13.26c-0.25,0.02-0.48-0.01-0.7-0.11c-0.28-0.13-0.45-0.34-0.47-0.66c-0.03-0.54-0.01-1.07,0.5-1.39
			c0.58-0.37,1.21-0.52,1.88-0.23c0.37,0.16,0.58,0.47,0.59,0.85c0.02,0.68-0.31,1.22-1.03,1.43
			C121.05,13.22,120.8,13.29,120.54,13.26z"/>
		<path class="st0" d="M121.11,7.67c0.4-0.27,0.83-0.23,1.26-0.23c0.36,0.01,0.56,0.13,0.66,0.44c0.1,0.3,0,0.57-0.23,0.74
			c-0.5,0.37-1.08,0.48-1.68,0.32c-0.5-0.13-0.62-0.61-0.32-1.03c0.05-0.06,0.1-0.12,0.2-0.24c-0.27,0.07-0.48,0.12-0.69,0.18
			c-0.32,0.1-0.65,0.14-0.99,0.08c-0.35-0.06-0.48-0.36-0.28-0.66c0.34-0.51,0.88-0.66,1.45-0.73c0.13-0.02,0.26-0.01,0.38-0.01
			c0.2,0,0.4,0.01,0.5,0.23c0.11,0.23-0.02,0.42-0.14,0.6C121.19,7.45,121.08,7.49,121.11,7.67z"/>
		<path class="st0" d="M135.19,28.7c-0.05,1.12-0.74,1.68-1.73,1.75c-0.48,0.03-0.85-0.27-0.87-0.77c-0.03-0.89,0.29-1.77,1.41-1.97
			C134.73,27.58,135.19,27.97,135.19,28.7z"/>
		<path class="st0" d="M113.51,17.93c-0.6,0-0.84-0.22-0.89-0.78c-0.07-0.73,0.1-1.38,0.77-1.79c0.26-0.16,0.55-0.26,0.87-0.23
			c0.27,0.02,0.49,0.14,0.61,0.4c0.33,0.74-0.08,1.9-0.79,2.26C113.88,17.9,113.67,17.93,113.51,17.93z"/>
		<path class="st0" d="M117.92,10.99c0.71,0,0.98,0.39,0.8,1.1c-0.23,0.96-1,1.28-1.77,1.33c-0.61,0.04-0.93-0.32-0.89-0.93
			C116.14,11.55,116.83,10.99,117.92,10.99z"/>
		<path class="st0" d="M136.51,23.57c0.63-0.03,0.94,0.23,0.99,0.78c0.04,0.51,0.05,1.02-0.21,1.49c-0.28,0.49-0.99,0.7-1.49,0.45
			c-0.22-0.11-0.34-0.3-0.4-0.52c-0.14-0.57-0.08-1.14,0.2-1.66C135.8,23.72,136.14,23.51,136.51,23.57z"/>
		<path class="st0" d="M128.16,7.15c-0.16-0.13-0.27-0.27-0.34-0.44c-0.08-0.21-0.02-0.4,0.21-0.44c0.71-0.13,1.37-0.02,1.92,0.48
			c0.06,0.06,0.11,0.14,0.15,0.21c0.14,0.27,0.01,0.49-0.3,0.5c-0.31,0.01-0.63,0.01-0.94-0.04c0,0.15,0.12,0.21,0.18,0.31
			c0.29,0.43,0.09,0.88-0.43,0.91c-0.5,0.03-1.01,0.02-1.45-0.27c-0.31-0.2-0.43-0.54-0.32-0.85c0.11-0.31,0.39-0.36,0.68-0.37
			C127.73,7.15,127.92,7.15,128.16,7.15z"/>
		<path class="st0" d="M116.57,35.45c-0.14-0.21-0.34-0.35-0.46-0.57c-0.08-0.16-0.13-0.33-0.1-0.51c0.03-0.18,0.12-0.31,0.32-0.32
			c0.53-0.03,1.02,0.07,1.45,0.39c0.26,0.19,0.41,0.45,0.47,0.76c0.06,0.3-0.15,0.55-0.47,0.59c-0.25,0.04-0.48-0.06-0.76-0.12
			c0.14,0.29,0.41,0.47,0.45,0.77c0.03,0.23-0.08,0.42-0.3,0.38c-0.61-0.12-1.2-0.3-1.62-0.81c-0.03-0.04-0.06-0.08-0.09-0.12
			c-0.11-0.17-0.22-0.36-0.09-0.55c0.12-0.18,0.32-0.13,0.51-0.09C116.12,35.32,116.35,35.35,116.57,35.45z"/>
		<path class="st0" d="M116.57,31.41c0.03,0.59-0.3,0.83-0.85,0.8c-0.95-0.05-1.5-0.6-1.64-1.55c-0.11-0.75,0.29-1.13,1.03-0.99
			C115.97,29.83,116.55,30.52,116.57,31.41z"/>
		<path class="st0" d="M123.32,10.85c-0.56-0.01-1,0.01-1.3-0.4c-0.26-0.35-0.23-0.94,0.09-1.21c0.49-0.41,1.06-0.55,1.7-0.41
			c0.17,0.04,0.35,0.03,0.51,0.13c0.34,0.21,0.48,0.57,0.4,1.06c-0.07,0.38-0.36,0.68-0.73,0.76
			C123.72,10.84,123.46,10.86,123.32,10.85z"/>
		<path class="st0" d="M132.43,11.34c1.07,0.01,1.89,0.85,1.81,1.85c-0.03,0.33-0.24,0.56-0.55,0.59c-0.92,0.08-1.88-0.39-2.05-1.51
			C131.55,11.76,131.77,11.28,132.43,11.34z"/>
		<path class="st0" d="M127.12,10.54c-0.49-0.06-1-0.03-1.41-0.4c-0.32-0.29-0.36-0.64-0.26-1.02c0.09-0.38,0.39-0.54,0.74-0.58
			c0.5-0.06,1-0.02,1.47,0.2c0.37,0.18,0.56,0.48,0.61,0.88c0.05,0.43-0.24,0.8-0.67,0.87C127.44,10.5,127.28,10.52,127.12,10.54z"
			/>
		<path class="st0" d="M129.91,33.49c-0.95,0.09-1.07-0.72-0.84-1.36c0.2-0.56,0.66-0.75,1.19-0.83c0.31-0.05,0.64-0.12,0.94,0.08
			c0.16,0.11,0.25,0.23,0.28,0.42C131.62,32.8,131,33.48,129.91,33.49z"/>
		<path class="st0" d="M133.81,31.01c0.56-0.02,0.86,0.31,0.77,0.86c-0.15,0.88-1.03,1.56-1.92,1.49c-0.37-0.03-0.66-0.34-0.6-0.73
			c0.1-0.66,0.34-1.23,1.03-1.5C133.32,31.05,133.56,31.03,133.81,31.01z"/>
		<path class="st0" d="M128.02,33.51c0.09,0,0.12,0,0.15,0c0.4-0.01,0.78,0.02,0.95,0.47c0.14,0.37-0.04,0.93-0.4,1.18
			c-0.54,0.37-1.15,0.44-1.77,0.24c-0.3-0.09-0.48-0.3-0.49-0.66c-0.01-0.46,0.12-0.81,0.54-1.03
			C127.34,33.54,127.7,33.48,128.02,33.51z"/>
		<path class="st0" d="M121.25,35.61c-0.51,0-1-0.08-1.36-0.5c-0.24-0.29-0.36-1.02,0.01-1.29c0.17-0.13,0.37-0.2,0.57-0.22
			c0.48-0.03,0.96,0.05,1.38,0.33c0.36,0.24,0.5,0.6,0.49,1.01c-0.01,0.35-0.3,0.62-0.67,0.66
			C121.53,35.62,121.39,35.61,121.25,35.61z"/>
		<path class="st0" d="M119.06,10.78c-0.08,0.01-0.1,0.01-0.12,0.01c-0.36,0.01-0.72-0.01-0.93-0.37c-0.15-0.27-0.03-0.83,0.25-1.09
			c0.53-0.52,1.2-0.64,1.91-0.55c0.43,0.06,0.59,0.53,0.42,1.02c-0.15,0.42-0.44,0.69-0.85,0.84
			C119.51,10.72,119.27,10.83,119.06,10.78z"/>
		<path class="st0" d="M117.41,32.1c0.56,0.03,1.15,0.16,1.52,0.78c0.13,0.22,0.16,0.47,0.17,0.71c0.01,0.27-0.13,0.49-0.41,0.59
			c-0.7,0.25-1.96-0.18-2.13-1.16C116.45,32.4,116.68,32.09,117.41,32.1z"/>
		<path class="st0" d="M124.36,36.03c-0.29-0.04-0.56-0.03-0.82-0.15c-0.41-0.19-0.59-0.49-0.55-0.94c0.03-0.36,0.31-0.61,0.72-0.72
			c0.42-0.11,0.83-0.12,1.25-0.01c0.5,0.13,0.77,0.42,0.76,0.9c-0.01,0.44-0.29,0.75-0.79,0.85
			C124.74,35.99,124.54,36.01,124.36,36.03z"/>
		<path class="st0" d="M115.33,12.91c-0.02,0.8-0.47,1.58-1.48,1.75c-0.45,0.08-0.83-0.2-0.82-0.65c0.01-0.88,0.6-1.7,1.54-1.79
			C115.13,12.16,115.33,12.35,115.33,12.91z"/>
		<path class="st0" d="M135.87,28.42c-0.03-0.52,0.09-0.98,0.42-1.36c0.27-0.31,0.61-0.49,1.04-0.45c0.26,0.02,0.47,0.16,0.5,0.42
			c0.09,0.61,0.04,1.2-0.33,1.72c-0.26,0.38-0.66,0.52-1.1,0.52c-0.31,0-0.51-0.21-0.53-0.52
			C135.86,28.63,135.87,28.51,135.87,28.42z"/>
		<path class="st0" d="M131.78,33.59c0.29-0.03,0.55,0.02,0.68,0.27c0.14,0.26,0.1,0.55-0.05,0.82c-0.4,0.72-1.08,0.91-1.82,0.92
			c-0.42,0.01-0.59-0.22-0.58-0.64c0.02-0.56,0.49-1.12,1.09-1.24C131.33,33.66,131.55,33.54,131.78,33.59z"/>
		<path class="st0" d="M137.43,30.27c-0.1,0.81-0.56,1.64-1.5,1.81c-0.35,0.06-0.6-0.13-0.57-0.48c0.07-0.81,0.35-1.56,1.27-1.87
			C137.07,29.57,137.44,29.81,137.43,30.27z"/>
		<path class="st0" d="M115.95,9.81c0.55-0.01,0.75,0.27,0.57,0.83c-0.22,0.66-0.68,1.06-1.37,1.2c-0.26,0.05-0.56,0.18-0.77-0.1
			c-0.19-0.26-0.09-0.54,0.02-0.81C114.68,10.24,115.27,9.81,115.95,9.81z"/>
		<path class="st0" d="M115.13,34.08c-0.64,0-1.45-0.64-1.6-1.28c-0.05-0.21-0.18-0.42-0.03-0.65c0.09-0.14,0.2-0.23,0.35-0.22
			c0.86,0.06,1.61,0.53,1.81,1.46C115.75,33.84,115.56,34.08,115.13,34.08z"/>
		<path class="st0" d="M134.84,11.18c0,0.37-0.1,0.47-0.47,0.48c-0.86,0.01-1.64-0.62-1.79-1.46c-0.07-0.37,0.1-0.59,0.47-0.57
			c0.72,0.04,1.43,0.43,1.73,1.14C134.83,10.91,134.84,11.04,134.84,11.18z"/>
		<path class="st0" d="M118.04,7.9c0.51-0.02,0.72,0.24,0.58,0.69c-0.1,0.33-0.34,0.54-0.63,0.71c-0.42,0.25-0.88,0.4-1.37,0.32
			c-0.36-0.05-0.46-0.29-0.32-0.62c0.28-0.64,0.81-0.92,1.46-1.06C117.86,7.91,117.97,7.91,118.04,7.9z"/>
		<path class="st0" d="M128.12,37.03c-0.2,0-0.38-0.05-0.54-0.14c-0.34-0.19-0.42-0.48-0.15-0.9c0.12-0.18,0.3-0.32,0.51-0.39
			c0.45-0.15,0.9-0.25,1.37-0.13c0.31,0.08,0.43,0.33,0.35,0.64c-0.05,0.21-0.17,0.37-0.34,0.5
			C128.97,36.89,128.54,36.93,128.12,37.03z"/>
		<path class="st0" d="M124.82,8.53c-0.21-0.01-0.49-0.03-0.74-0.15c-0.34-0.15-0.47-0.37-0.43-0.69c0.04-0.33,0.28-0.56,0.63-0.61
			c0.37-0.06,0.74-0.06,1.11,0c0.32,0.05,0.61,0.32,0.65,0.63c0.04,0.26-0.13,0.52-0.44,0.67C125.37,8.5,125.13,8.53,124.82,8.53z"
			/>
		<path class="st0" d="M135.69,32.45c0.32,0,0.46,0.18,0.38,0.51c-0.18,0.7-0.62,1.19-1.29,1.47c-0.08,0.03-0.17,0.06-0.25,0.08
			c-0.34,0.09-0.62-0.15-0.57-0.5C134.07,33.09,134.87,32.52,135.69,32.45z"/>
		<path class="st0" d="M132.27,36.39c-0.41,0-0.57-0.25-0.41-0.62c0.23-0.53,0.66-0.82,1.19-0.98c0.19-0.06,0.38-0.15,0.6-0.15
			c0.38,0.01,0.54,0.23,0.4,0.58C133.81,35.78,132.88,36.39,132.27,36.39z"/>
		<path class="st0" d="M122.57,36.08c0.29-0.06,0.55,0.05,0.81,0.13c0.27,0.08,0.46,0.36,0.46,0.59c-0.01,0.25-0.22,0.51-0.51,0.58
			c-0.43,0.11-0.84,0.07-1.23-0.12c-0.18-0.09-0.33-0.23-0.39-0.42c-0.14-0.39,0.05-0.68,0.49-0.75
			C122.31,36.06,122.44,36.08,122.57,36.08z"/>
		<path class="st0" d="M125.53,36.18c0.25-0.01,0.48-0.01,0.7,0.11c0.37,0.2,0.42,0.71,0.06,0.95c-0.52,0.34-1.08,0.31-1.64,0.13
			c-0.22-0.07-0.33-0.25-0.33-0.51c0-0.25,0.11-0.4,0.32-0.51C124.94,36.21,125.23,36.16,125.53,36.18z"/>
		<path class="st0" d="M127.28,38.45c-0.15-0.01-0.29-0.02-0.43-0.08c-0.37-0.15-0.44-0.39-0.19-0.7c0.05-0.06,0.1-0.13,0.17-0.16
			c0.6-0.32,1.23-0.44,1.89-0.25c0.25,0.07,0.33,0.32,0.2,0.54c-0.09,0.15-0.21,0.26-0.36,0.34
			C128.15,38.34,127.71,38.4,127.28,38.45z"/>
		<path class="st0" d="M122.91,7.1c-0.21,0.01-0.41,0.01-0.61-0.07c-0.41-0.16-0.46-0.54-0.12-0.83c0.21-0.18,0.47-0.19,0.71-0.25
			c0.42-0.1,0.84-0.09,1.24,0.08c0.3,0.13,0.35,0.51,0.09,0.73c-0.3,0.26-0.68,0.29-1.05,0.33C123.08,7.11,122.99,7.1,122.91,7.1z"
			/>
		<path class="st0" d="M129.88,37.75c-0.17-0.01-0.26,0-0.35-0.02c-0.29-0.05-0.36-0.21-0.27-0.48c0.09-0.26,0.26-0.45,0.49-0.6
			c0.46-0.28,0.96-0.38,1.49-0.31c0.3,0.04,0.36,0.21,0.25,0.49c-0.07,0.18-0.19,0.33-0.34,0.43
			C130.76,37.54,130.31,37.72,129.88,37.75z"/>
		<path class="st0" d="M126.38,7.05c-0.41-0.05-0.82-0.06-1.2-0.26c-0.2-0.11-0.33-0.25-0.29-0.49c0.04-0.23,0.22-0.32,0.42-0.37
			c0.56-0.12,1.12-0.08,1.65,0.14c0.2,0.09,0.39,0.22,0.37,0.48c-0.01,0.26-0.19,0.36-0.42,0.43
			C126.73,7.03,126.56,7.05,126.38,7.05z"/>
		<path class="st0" d="M121.39,37.31c0.45,0.02,0.9,0.06,1.3,0.29c0.21,0.12,0.3,0.31,0.26,0.55c-0.04,0.23-0.23,0.27-0.41,0.31
			c-0.52,0.1-1.02,0.01-1.5-0.18c-0.3-0.12-0.58-0.48-0.5-0.66c0.13-0.31,0.42-0.31,0.7-0.31
			C121.29,37.31,121.34,37.31,121.39,37.31z"/>
		<path class="st0" d="M120.28,36.8c-0.42-0.06-0.88-0.06-1.2-0.46c-0.19-0.24-0.26-0.54-0.13-0.73c0.13-0.19,0.45-0.27,0.72-0.19
			c0.27,0.08,0.57,0.02,0.82,0.21c0.05,0.04,0.12,0.07,0.17,0.11c0.22,0.18,0.36,0.54,0.29,0.76
			C120.89,36.7,120.67,36.8,120.28,36.8z"/>
		<path class="st0" d="M119.78,37.92c-0.55-0.1-1.1-0.19-1.57-0.53c-0.12-0.09-0.23-0.2-0.28-0.37c-0.07-0.24,0.04-0.47,0.29-0.47
			c0.64-0.01,1.25,0.12,1.76,0.53c0.07,0.05,0.12,0.13,0.16,0.2c0.08,0.13,0.18,0.28,0.09,0.44
			C120.15,37.9,119.97,37.92,119.78,37.92z"/>
		<path class="st0" d="M124.72,38.69c-0.32,0-0.63-0.03-0.92-0.18c-0.35-0.17-0.37-0.49-0.05-0.72c0.15-0.11,0.32-0.17,0.49-0.18
			c0.37-0.01,0.75-0.01,1.12,0c0.15,0,0.28,0.07,0.4,0.16c0.28,0.22,0.26,0.54-0.04,0.72C125.5,38.62,125.16,38.69,124.72,38.69z"/>
		<path class="st0" d="M134.92,10.13c-0.67,0-1.53-0.68-1.69-1.31c-0.08-0.3,0.09-0.51,0.36-0.42c0.58,0.2,1.14,0.44,1.47,1
			c0.07,0.12,0.12,0.24,0.14,0.38C135.23,10.04,135.14,10.16,134.92,10.13z"/>
		<path class="st0" d="M114.8,35.38c-0.64,0-1.62-0.87-1.68-1.49c-0.02-0.23,0.14-0.31,0.34-0.3c0.64,0.02,1.53,0.85,1.61,1.49
			C115.09,35.26,114.98,35.39,114.8,35.38z"/>
	</g>
	<path class="st1" d="M31.77,34.65h-4.61l-4.05-8.26c0.72-0.2,1.55-0.36,2.21-0.33c0,0-1.02-0.26-2.4-0.1l-0.03,0.03
		c-0.16,0-0.33,0.03-0.49,0.07c-4.08,0.76-7.24,2.53-9.38,4.15l-2.3,4.44H6.16L19.2,9.76l7.44,14.71c3.23,0.59,5.14,1.74,5.14,1.74
		c-1.58-0.33-3.09-0.49-4.51-0.53L31.77,34.65z M19.1,18.29l-3.36,6.52c-1.55,0.76-2.17,1.81-2.17,1.81
		c0.49-0.49,1.18-0.86,1.81-1.12c0,0,0,0,0.03,0c2.4-0.86,4.64-1.25,6.62-1.32c0.03,0,0.03,0,0.03,0l-2.93-5.96L19.1,18.29z"/>
	<path class="st1" d="M43.33,14.17v0.03h-2.34l2.34,0.46v19.98h-4.21V14.17h-5.96v-3.65h16.13v3.65H43.33z"/>
	<path class="st1" d="M75.29,34.65l-2.34-12.08l0.92-2.96l-1.12,2.04l-7.8,13.3L57.94,22.6l-1.61-3l0.89,2.86l-2.63,12.18h-4.48
		l0.03-0.16l5.69-24.16l9.22,17.28l9.51-17.28l5.17,24.32H75.29z"/>
	<path class="st1" d="M107.25,22.63c0,3.39-1.28,6.32-3.85,8.69c-2.53,2.37-5.66,3.59-9.25,3.59c-3.19,0-6.12-1.09-8.66-3.19
		c-2.8-2.34-4.21-5.43-4.21-9.25c0-3.32,1.28-6.22,3.85-8.62c2.53-2.37,5.63-3.59,9.18-3.59c3.52,0,6.58,1.22,9.12,3.62
		C105.97,16.31,107.25,19.24,107.25,22.63z M103.79,22.11c-0.2,0.66-0.43,1.19-0.66,1.55c-0.36,0.69-0.69,0.95-0.69,0.95
		c1.09-1.58,0.43-4.34,0.23-5.17c-0.46-1.15-1.12-2.17-2.04-3.06c-1.71-1.65-3.85-2.5-6.35-2.5c-1.09,0-2.07,0.17-3.03,0.46
		c-4.64,1.45-6.09,5.96-6.55,8.39c0.23-0.69,0.49-1.19,0.72-1.55c0.3-0.49,0.53-0.69,0.53-0.69c-0.76,1.12-0.66,2.83-0.43,4.02
		c0.33,1.68,1.18,3.13,2.47,4.35c1.78,1.61,3.85,2.47,6.19,2.47c2.53,0,4.67-0.86,6.42-2.54c0.72-0.72,1.32-1.51,1.74-2.37
		C103.2,24.84,103.6,23.23,103.79,22.11z"/>
	<path class="st1" d="M147.96,14.45v4.95l-1.88,0.39h1.88h8.53v3.59h-8.53v11.12h-4.14V10.83h13v3.62H147.96z"/>
	<path class="st1" d="M164.57,14.38v4.98l-1.88,0.39h1.88h9.92v3.59h-9.92v7.18l-1.88,0.39h1.88h10.22v3.59h-14.35v-23.7h14.35v3.59
		H164.57z"/>
	<path class="st1" d="M195.87,34.49h-5.08l-7.27-9.57h-0.45v9.57h-4.14v-23.7h4.66c3.36,0,5.85,0.58,7.37,1.78
		c1.68,1.33,2.52,3.07,2.52,5.24c0,1.68-0.52,3.14-1.58,4.36c-1,1.16-2.33,1.94-3.94,2.29L195.87,34.49z M184.13,21.56
		c1.68,0,2.97-0.29,3.85-0.84c2.04-1.1,2.39-3.59,2.39-3.59c-0.26,0.65-0.61,1.13-1,1.55c0.03-0.26,0.06-0.55,0.06-0.84
		c0-2.33-1.68-3.46-5.14-3.46h-1.23v7.18H184.13z"/>
	<path class="st1" d="M222.76,34.49h-4.53l-3.98-8.11c0.71-0.19,1.52-0.36,2.17-0.32c0,0-1-0.26-2.36-0.1l-0.03,0.03
		c-0.16,0-0.32,0.03-0.49,0.06c-4.01,0.74-7.11,2.49-9.21,4.07l-2.26,4.36h-4.46l12.8-24.44l7.31,14.45
		c3.17,0.58,5.04,1.71,5.04,1.71c-1.55-0.32-3.04-0.48-4.43-0.52L222.76,34.49z M210.31,18.42l-3.3,6.4
		c-1.52,0.74-2.13,1.78-2.13,1.78c0.48-0.49,1.16-0.84,1.78-1.1c0,0,0,0,0.03,0c2.36-0.84,4.56-1.23,6.5-1.29c0.03,0,0.03,0,0.03,0
		l-2.88-5.85L210.31,18.42z"/>
</g>
</svg>
