<svg xmlns="http://www.w3.org/2000/svg" width="48.838" height="63.407" viewBox="0 0 48.838 63.407">
  <g id="Сгруппировать_359" data-name="Сгруппировать 359" transform="translate(-780.075 -359)">
    <path id="Контур_958" data-name="Контур 958" d="M308.355,295.993c-.8-.7-1.431-1.483-.909-2.35.47-.785,1.36-.348,2.2-.155-.3-.357-.538-.613-.733-.9a.883.883,0,0,1-.16-.914c.16-.341.517-.312.8-.266a4.131,4.131,0,0,1,3.334,1.88c.341.608.136.94-.573.919a4.635,4.635,0,0,1-.789-.11c-.235-.04-.47-.106-.79-.176a10.047,10.047,0,0,1,.808,1.076.94.94,0,0,1-.874,1.492H309.5a3.5,3.5,0,0,1,.98,1.668c.2,1.227-.2,1.849-1.422,1.92a4.23,4.23,0,0,1-2.82-.724,2.6,2.6,0,0,1-.97-2.585A1.1,1.1,0,0,1,306.1,296a2.692,2.692,0,0,1,1.3-.07c.251.04.512.04.94.075" transform="translate(506.069 69.964)" fill="#fff"/>
    <path id="Контур_959" data-name="Контур 959" d="M309.962,300.081a2.892,2.892,0,0,1-3.48,3.1,3.358,3.358,0,0,1-2.46-5.369,2.349,2.349,0,0,1,1.21-.9,4.109,4.109,0,0,1,3.471.221,2.923,2.923,0,0,1,1.262,2.944" transform="translate(498.567 91.081)" fill="#fff"/>
    <path id="Контур_960" data-name="Контур 960" d="M305.149,302.369a2.82,2.82,0,0,1-3.184-3.17,3.036,3.036,0,0,1,3.44-3.266c2.246.066,2.944,1.285,2.954,3.25s-.778,3.29-3.21,3.184" transform="translate(492.916 88.184)" fill="#fff"/>
    <path id="Контур_961" data-name="Контур 961" d="M304.363,298.447a2.672,2.672,0,0,1,1.241-2.733,3.29,3.29,0,0,1,4.958,2.531,4.335,4.335,0,0,1-.089,1.527,2.39,2.39,0,0,1-2.15,1.828,4.737,4.737,0,0,1-2.411-.174,2.74,2.74,0,0,1-1.541-2.979" transform="translate(502.514 85.527)" fill="#fff"/>
    <path id="Контур_962" data-name="Контур 962" d="M305.816,300.866a3.024,3.024,0,0,1-2.26-.994,3.475,3.475,0,0,1-.3-3.759,2.843,2.843,0,0,1,2.975-1.361,3.289,3.289,0,0,1,1.819.388,3.008,3.008,0,0,1,1.337,2.733,2.684,2.684,0,0,1-1.356,2.585,4.144,4.144,0,0,1-2.216.423" transform="translate(496.519 83.362)" fill="#fff"/>
    <path id="Контур_963" data-name="Контур 963" d="M304.919,300.358a4.477,4.477,0,0,1,.167-1.266,2.383,2.383,0,0,1,2.486-1.833c.362,0,.728-.021,1.086,0a2.288,2.288,0,0,1,2.03,1.436,4.006,4.006,0,0,1,0,3.259,2.389,2.389,0,0,1-1.41,1.316c-1.109.423-3.245.4-3.952-.825a3.548,3.548,0,0,1-.4-2.1" transform="translate(504.817 93.563)" fill="#fff"/>
    <path id="Контур_964" data-name="Контур 964" d="M306.87,297.884c-.221,2.225-1.175,3.44-3.682,3.29a2.256,2.256,0,0,1-2.136-1.255,3.713,3.713,0,0,1,1.567-4.566,3.055,3.055,0,0,1,3.783.825,4.686,4.686,0,0,1,.47,1.713" transform="translate(488.287 84.633)" fill="#fff"/>
    <path id="Контур_965" data-name="Контур 965" d="M305.541,303.928a3.589,3.589,0,0,1-.919-.071,2.716,2.716,0,0,1-2.035-2.923,2.62,2.62,0,0,1,1.511-2.648c1.391-.547,3.76-.47,4.424,1.431a3.182,3.182,0,0,1-1.316,3.995,3.548,3.548,0,0,1-1.668.211" transform="translate(495.443 96.551)" fill="#fff"/>
    <path id="Контур_966" data-name="Контур 966" d="M307.115,300.525a2.547,2.547,0,0,1-1.262,2.606,3.36,3.36,0,0,1-3.562-.291,3,3,0,0,1-1.015-3.085c.287-2.265,2.084-2.716,3.9-2.256,1.436.367,1.939,1.306,1.939,3.024" transform="translate(489.883 93.913)" fill="#fff"/>
    <path id="Контур_967" data-name="Контур 967" d="M308.438,295.931a2.639,2.639,0,0,1,2.944,2.672,4.248,4.248,0,0,1-.362,2.42,2.7,2.7,0,0,1-2.82,1.1c-2.058-.383-2.481-2.054-2.437-3.774a2.35,2.35,0,0,1,2.662-2.427" transform="translate(508.266 88.173)" fill="#fff"/>
    <path id="Контур_968" data-name="Контур 968" d="M307.076,298.566a2.526,2.526,0,0,1,2.585,1.227c.517,1,.446,3.36-.853,4.074a3.651,3.651,0,0,1-3.593.15,3.019,3.019,0,0,1,1.859-5.451" transform="translate(501.121 98.759)" fill="#fff"/>
    <path id="Контур_969" data-name="Контур 969" d="M304.532,299.532c-2.667.12-3.1-1.788-2.6-3.621a2.35,2.35,0,0,1,1.447-1.645,4.4,4.4,0,0,1,3.12-.167,2.585,2.585,0,0,1,1.262,3.325,2.831,2.831,0,0,1-3.224,2.115" transform="translate(492.117 80.042)" fill="#fff"/>
    <path id="Контур_970" data-name="Контур 970" d="M306.209,301.5a2.935,2.935,0,0,1,3.184-3.421,2.138,2.138,0,0,1,2.251,1.955,3.885,3.885,0,0,1-.416,2.585,3.393,3.393,0,0,1-3.933,1.135,1.967,1.967,0,0,1-1.086-1.687,4.15,4.15,0,0,1,0-.573" transform="translate(509.926 96.847)" fill="#fff"/>
    <path id="Контур_971" data-name="Контур 971" d="M305.427,299.392c-.014,1.262-.176,2.331-1.271,2.789-1.788.75-3.8.317-4.07-2.075a5.312,5.312,0,0,1,.031-1.41,2.493,2.493,0,0,1,1.819-1.99,2.711,2.711,0,0,1,3.055.97,2.847,2.847,0,0,1,.442,1.718" transform="translate(485.298 90.851)" fill="#fff"/>
    <path id="Контур_972" data-name="Контур 972" d="M300.2,297.269a3.177,3.177,0,0,1,3.717-3.259,1.645,1.645,0,0,1,1.633,1.41,3.3,3.3,0,0,1-3.917,4.105c-.994-.125-1.506-.975-1.431-2.246" transform="translate(485.877 80.385)" fill="#fff"/>
    <path id="Контур_973" data-name="Контур 973" d="M311.923,299.6a2.923,2.923,0,0,1-.8,2.455,2.559,2.559,0,0,1-2.733.376,2.246,2.246,0,0,1-1.377-2,4.112,4.112,0,0,1,.317-2.507,2.35,2.35,0,0,1,2.632-1.126,2.195,2.195,0,0,1,1.955,2.115,3.812,3.812,0,0,1,0,.679" transform="translate(513.034 91.464)" fill="#fff"/>
    <path id="Контур_974" data-name="Контур 974" d="M304.091,298.234a3.591,3.591,0,0,1-.362,1.99,2.012,2.012,0,0,1-1.894,1.135h-.627a1.729,1.729,0,0,1-1.833-1.391,4.345,4.345,0,0,1,.367-3.21,2.446,2.446,0,0,1,2.416-1.175,1.8,1.8,0,0,1,1.748,1.041,3.74,3.74,0,0,1,.186,1.628" transform="translate(481.947 86.791)" fill="#fff"/>
    <path id="Контур_975" data-name="Контур 975" d="M305.156,302.333a3.116,3.116,0,0,1,4.516-2.683,1.913,1.913,0,0,1,.989,1.924,2.989,2.989,0,0,1-4.128,2.928c-.963-.235-1.382-.989-1.377-2.169" transform="translate(505.828 101.92)" fill="#fff"/>
    <path id="Контур_976" data-name="Контур 976" d="M303.908,297.683a2.572,2.572,0,0,1-1.351-.211,1.428,1.428,0,0,1-.9-1.271,2.634,2.634,0,0,1,.964-2.688,3.717,3.717,0,0,1,3.621-.446,1.767,1.767,0,0,1,1.135,1.645,2.62,2.62,0,0,1-1.983,2.768,3.51,3.51,0,0,1-1.483.212" transform="translate(491.514 75.596)" fill="#fff"/>
    <path id="Контур_977" data-name="Контур 977" d="M305.625,293.346a3.931,3.931,0,0,1,2.432-.437,1.156,1.156,0,0,1,1.271.839,1.248,1.248,0,0,1-.442,1.436,3.717,3.717,0,0,1-3.24.627,1.175,1.175,0,0,1-.613-1.983c.085-.115.19-.235.381-.458-.526.141-.94.235-1.325.357a3.973,3.973,0,0,1-1.908.15.764.764,0,0,1-.548-1.267,3.628,3.628,0,0,1,2.8-1.41,6.135,6.135,0,0,1,.743-.021c.388,0,.778.03.975.446s-.04.8-.27,1.156c-.1.146-.317.216-.256.557" transform="translate(490.899 69.14)" fill="#fff"/>
    <path id="Контур_978" data-name="Контур 978" d="M311.748,301.291a3.29,3.29,0,0,1-3.351,3.369,1.485,1.485,0,0,1-1.678-1.487,3.29,3.29,0,0,1,2.728-3.8,1.776,1.776,0,0,1,2.3,1.915" transform="translate(511.981 101.824)" fill="#fff"/>
    <path id="Контур_979" data-name="Контур 979" d="M300.77,299.892c-1.156,0-1.617-.432-1.713-1.506a3.334,3.334,0,0,1,1.487-3.456,2.694,2.694,0,0,1,1.678-.442,1.292,1.292,0,0,1,1.175.773,3.738,3.738,0,0,1-1.527,4.37,2.6,2.6,0,0,1-1.1.261" transform="translate(481.08 82.423)" fill="#fff"/>
    <path id="Контур_980" data-name="Контур 980" d="M303.935,292.9c1.377,0,1.88.759,1.553,2.136a3.391,3.391,0,0,1-3.417,2.573,1.485,1.485,0,0,1-1.708-1.8,3.158,3.158,0,0,1,3.572-2.9" transform="translate(486.423 75.993)" fill="#fff"/>
    <path id="Контур_981" data-name="Контур 981" d="M310.039,297.734c1.21-.066,1.819.451,1.9,1.5a4.819,4.819,0,0,1-.411,2.878,2.279,2.279,0,0,1-2.883.865,1.436,1.436,0,0,1-.764-1.01,4.464,4.464,0,0,1,.376-3.21,1.741,1.741,0,0,1,1.779-1.024" transform="translate(516.235 95.463)" fill="#fff"/>
    <path id="Контур_982" data-name="Контур 982" d="M307.058,292.852a2,2,0,0,1-.653-.848c-.155-.411-.031-.768.4-.844a4.213,4.213,0,0,1,3.717.923,1.62,1.62,0,0,1,.3.411.611.611,0,0,1-.578.97,8.906,8.906,0,0,1-1.823-.075c0,.3.235.411.357.587a1.043,1.043,0,0,1-.825,1.753,4.432,4.432,0,0,1-2.794-.522,1.384,1.384,0,0,1-.613-1.633c.221-.6.759-.7,1.306-.719.376-.014.754,0,1.205,0" transform="translate(503.073 68.643)" fill="#fff"/>
    <path id="Контур_983" data-name="Контур 983" d="M302.459,304.474a10.115,10.115,0,0,1-.879-1.109,1.614,1.614,0,0,1-.2-.985.618.618,0,0,1,.623-.613,4.18,4.18,0,0,1,2.8.743,2.328,2.328,0,0,1,.909,1.466.963.963,0,0,1-.9,1.144,4.446,4.446,0,0,1-1.462-.235c.27.569.782.9.869,1.5.066.446-.15.818-.569.738a4.962,4.962,0,0,1-3.135-1.563,1.922,1.922,0,0,1-.172-.235c-.2-.331-.432-.688-.176-1.055s.618-.256.989-.164a8.076,8.076,0,0,1,1.3.357" transform="translate(485.3 111.668)" fill="#fff"/>
    <path id="Контур_984" data-name="Контур 984" d="M304.417,303.483c.061,1.14-.583,1.593-1.645,1.532a3.165,3.165,0,0,1-3.175-2.994c-.216-1.447.552-2.185,1.983-1.908a3.386,3.386,0,0,1,2.82,3.369" transform="translate(483.328 104.854)" fill="#fff"/>
    <path id="Контур_985" data-name="Контур 985" d="M305.414,296.041c-1.09-.021-1.934.026-2.517-.768a1.821,1.821,0,0,1,.181-2.336,3.64,3.64,0,0,1,3.276-.794,3.054,3.054,0,0,1,.984.235,1.976,1.976,0,0,1-.649,3.51,5.476,5.476,0,0,1-1.276.141" transform="translate(495.377 72.59)" fill="#fff"/>
    <path id="Контур_986" data-name="Контур 986" d="M307.888,293.032a3.391,3.391,0,0,1,3.5,3.581,1.175,1.175,0,0,1-1.069,1.14,3.489,3.489,0,0,1-3.969-2.914c-.15-.994.27-1.929,1.541-1.809" transform="translate(510.5 76.55)" fill="#fff"/>
    <path id="Контур_987" data-name="Контур 987" d="M307.262,295.861a4.464,4.464,0,0,1-2.733-.778,1.854,1.854,0,0,1-.508-1.974,1.5,1.5,0,0,1,1.41-1.126,4.934,4.934,0,0,1,2.834.4,2.023,2.023,0,0,1,1.175,1.692,1.515,1.515,0,0,1-1.281,1.678c-.3.049-.6.071-.9.111" transform="translate(500.879 72.159)" fill="#fff"/>
    <path id="Контур_988" data-name="Контур 988" d="M307.115,305.022c-1.833.167-2.065-1.382-1.628-2.636a2.528,2.528,0,0,1,2.291-1.6,2.374,2.374,0,0,1,1.828.155,1.126,1.126,0,0,1,.543.818,2.737,2.737,0,0,1-3.034,3.266" transform="translate(506.397 107.328)" fill="#fff"/>
    <path id="Контур_989" data-name="Контур 989" d="M309.884,300.6a1.3,1.3,0,0,1,1.487,1.664,3.583,3.583,0,0,1-3.7,2.883,1.231,1.231,0,0,1-1.175-1.41,3.245,3.245,0,0,1,1.983-2.888,4.551,4.551,0,0,1,1.4-.235" transform="translate(511.166 106.977)" fill="#fff"/>
    <path id="Контур_990" data-name="Контур 990" d="M307.362,301.561h.287c.773-.031,1.511.035,1.833.9a2.136,2.136,0,0,1-.773,2.282,3.8,3.8,0,0,1-3.426.47,1.26,1.26,0,0,1-.94-1.276,1.96,1.96,0,0,1,1.039-1.983,3.583,3.583,0,0,1,1.979-.4" transform="translate(502.511 110.842)" fill="#fff"/>
    <path id="Контур_991" data-name="Контур 991" d="M304.784,305.462a3.1,3.1,0,0,1-2.618-.963c-.47-.557-.7-1.969.014-2.491a2.091,2.091,0,0,1,1.1-.411,4.229,4.229,0,0,1,2.658.627,2.167,2.167,0,0,1,.94,1.96,1.384,1.384,0,0,1-1.3,1.281c-.266.026-.533,0-.8,0" transform="translate(492.02 110.981)" fill="#fff"/>
    <path id="Контур_992" data-name="Контур 992" d="M303.2,295.973c-.155.014-.2.021-.235.021-.7.014-1.391-.026-1.783-.724a2.087,2.087,0,0,1,.482-2.115,4.229,4.229,0,0,1,3.682-1.064c.818.106,1.144,1.015.808,1.978a2.528,2.528,0,0,1-1.645,1.612,2.585,2.585,0,0,1-1.311.287" transform="translate(489.376 72.536)" fill="#fff"/>
    <path id="Контур_993" data-name="Контур 993" d="M302.2,301a3.254,3.254,0,0,1,2.928,1.518,2.764,2.764,0,0,1,.331,1.365,1.13,1.13,0,0,1-.782,1.144,3.289,3.289,0,0,1-4.105-2.239c-.211-1.205.235-1.793,1.628-1.788" transform="translate(487.172 108.661)" fill="#fff"/>
    <path id="Контур_994" data-name="Контур 994" d="M305.66,305.444a5.556,5.556,0,0,1-1.588-.3,1.663,1.663,0,0,1,.336-3.2,4.617,4.617,0,0,1,2.411,0,1.687,1.687,0,0,1,1.471,1.734,1.661,1.661,0,0,1-1.527,1.645c-.371.07-.754.1-1.1.136" transform="translate(497.143 111.816)" fill="#fff"/>
    <path id="Контур_995" data-name="Контур 995" d="M303.614,294.71a3.32,3.32,0,0,1-2.857,3.381,1.271,1.271,0,0,1-1.586-1.255,3.4,3.4,0,0,1,2.979-3.461c1.086-.111,1.478.256,1.466,1.337" transform="translate(481.742 77.901)" fill="#fff"/>
    <path id="Контур_996" data-name="Контур 996" d="M307.965,302.4a3.563,3.563,0,0,1,.808-2.636,2.3,2.3,0,0,1,2-.869.966.966,0,0,1,.975.818,4.448,4.448,0,0,1-.632,3.32,2.47,2.47,0,0,1-2.115,1.015,1,1,0,0,1-1.029-1c-.021-.235,0-.458,0-.644" transform="translate(517.07 100.159)" fill="#fff"/>
    <path id="Контур_997" data-name="Контур 997" d="M309.11,301.6a1.224,1.224,0,0,1,1.321.526,1.579,1.579,0,0,1-.1,1.572,3.68,3.68,0,0,1-3.51,1.779c-.82.014-1.144-.423-1.116-1.245a2.681,2.681,0,0,1,2.1-2.4,3.232,3.232,0,0,1,1.306-.235" transform="translate(508.023 110.943)" fill="#fff"/>
    <path id="Контур_998" data-name="Контур 998" d="M311.764,301.232a3.739,3.739,0,0,1-2.9,3.5.846.846,0,0,1-1.1-.94,3.705,3.705,0,0,1,2.451-3.616,1.069,1.069,0,0,1,1.553,1.05" transform="translate(516.269 104.905)" fill="#fff"/>
    <path id="Контур_999" data-name="Контур 999" d="M302.877,292.433c1.065,0,1.457.526,1.1,1.6a3.29,3.29,0,0,1-2.636,2.31c-.5.1-1.086.341-1.483-.19a1.516,1.516,0,0,1,.031-1.567,3.264,3.264,0,0,1,2.989-2.155" transform="translate(483.684 74.186)" fill="#fff"/>
    <path id="Контур_1000" data-name="Контур 1000" d="M302.6,305.1a3.612,3.612,0,0,1-3.085-2.477c-.1-.406-.345-.808-.066-1.262a.733.733,0,0,1,.684-.423,3.581,3.581,0,0,1,3.5,2.82c.186.879-.2,1.346-1.029,1.346" transform="translate(482.363 108.4)" fill="#fff"/>
    <path id="Контур_1001" data-name="Контур 1001" d="M311.072,295.345c0,.724-.186.919-.9.94a3.489,3.489,0,0,1-3.461-2.82c-.132-.7.186-1.13.909-1.09a3.734,3.734,0,0,1,3.334,2.195,1.831,1.831,0,0,1,.115.782" transform="translate(511.969 73.93)" fill="#fff"/>
    <path id="Контур_1002" data-name="Контур 1002" d="M303.88,291.7c.989-.049,1.391.47,1.121,1.33a2.434,2.434,0,0,1-1.215,1.36,4.02,4.02,0,0,1-2.643.627c-.689-.1-.9-.557-.618-1.205a3.614,3.614,0,0,1,2.82-2.054,3.722,3.722,0,0,1,.543-.061" transform="translate(486.709 71.233)" fill="#fff"/>
    <path id="Контур_1003" data-name="Контур 1003" d="M306.29,305.379a2.162,2.162,0,0,1-1.046-.282c-.648-.371-.808-.924-.282-1.734a1.857,1.857,0,0,1,.975-.747,4.551,4.551,0,0,1,2.648-.235.916.916,0,0,1,.679,1.231,1.8,1.8,0,0,1-.653.975,5.475,5.475,0,0,1-2.321.8" transform="translate(503.781 113.802)" fill="#fff"/>
    <path id="Контур_1004" data-name="Контур 1004" d="M305.53,294.237a3.666,3.666,0,0,1-1.431-.282,1.175,1.175,0,0,1-.834-1.325,1.347,1.347,0,0,1,1.21-1.175,6.955,6.955,0,0,1,2.141,0,1.541,1.541,0,0,1,1.266,1.222,1.3,1.3,0,0,1-.844,1.285,3.26,3.26,0,0,1-1.506.277" transform="translate(498.154 69.915)" fill="#fff"/>
    <path id="Контур_1005" data-name="Контур 1005" d="M310.582,301.141c.613,0,.893.341.724.985a4.057,4.057,0,0,1-2.491,2.838,4.887,4.887,0,0,1-.482.16.855.855,0,0,1-1.109-.966,3.593,3.593,0,0,1,3.36-3.019" transform="translate(514.094 109.213)" fill="#fff"/>
    <path id="Контур_1006" data-name="Контур 1006" d="M307.292,305.358c-.783,0-1.1-.47-.789-1.2a3.385,3.385,0,0,1,2.3-1.894,3.863,3.863,0,0,1,1.156-.282c.733.014,1.041.442.764,1.126a4.513,4.513,0,0,1-3.426,2.251" transform="translate(510.779 112.598)" fill="#fff"/>
    <path id="Контур_1007" data-name="Контур 1007" d="M304.252,302.552a3.008,3.008,0,0,1,1.558.251,1.271,1.271,0,0,1,.884,1.144,1.288,1.288,0,0,1-.985,1.116,3.318,3.318,0,0,1-2.38-.235,1.445,1.445,0,0,1-.759-.808,1.028,1.028,0,0,1,.94-1.457,5.094,5.094,0,0,1,.733,0" transform="translate(495.082 114.808)" fill="#fff"/>
    <path id="Контур_1008" data-name="Контур 1008" d="M305.829,302.586a2.584,2.584,0,0,1,1.356.207,1.064,1.064,0,0,1,.125,1.828,3.494,3.494,0,0,1-3.16.235.911.911,0,0,1-.627-.975,1,1,0,0,1,.623-.98,3.272,3.272,0,0,1,1.682-.327" transform="translate(499.231 114.964)" fill="#fff"/>
    <path id="Контур_1009" data-name="Контур 1009" d="M305.838,305.431a2.267,2.267,0,0,1-.834-.15c-.7-.3-.848-.759-.376-1.36a1.073,1.073,0,0,1,.327-.312,4.743,4.743,0,0,1,3.651-.487.679.679,0,0,1,.381,1.055,1.7,1.7,0,0,1-.7.653,7.285,7.285,0,0,1-2.455.6" transform="translate(502.594 116.508)" fill="#fff"/>
    <path id="Контур_1010" data-name="Контур 1010" d="M304.445,293.262a2.764,2.764,0,0,1-1.175-.127.876.876,0,0,1-.235-1.607,2.921,2.921,0,0,1,1.382-.47,3.76,3.76,0,0,1,2.406.16.827.827,0,0,1,.176,1.41,3.368,3.368,0,0,1-2.03.632c-.172.014-.345,0-.512,0" transform="translate(495.547 68.139)" fill="#fff"/>
    <path id="Контур_1011" data-name="Контур 1011" d="M306.662,305.391a6.307,6.307,0,0,1-.672-.035c-.547-.1-.7-.4-.512-.94a2.157,2.157,0,0,1,.954-1.151,4.244,4.244,0,0,1,2.878-.6c.583.08.7.4.482.94a1.784,1.784,0,0,1-.658.834,5.055,5.055,0,0,1-2.472.94" transform="translate(506.808 115.187)" fill="#fff"/>
    <path id="Контур_1012" data-name="Контур 1012" d="M306.621,293.224a6.271,6.271,0,0,1-2.317-.512.852.852,0,0,1,.235-1.659,5.169,5.169,0,0,1,3.184.277c.388.167.75.416.719.924s-.376.7-.8.829a3.335,3.335,0,0,1-1.02.146" transform="translate(500.079 68.081)" fill="#fff"/>
    <path id="Контур_1013" data-name="Контур 1013" d="M303.715,303.008a5.157,5.157,0,0,1,2.517.569.94.94,0,0,1,.5,1.055c-.07.437-.437.526-.8.6a5.142,5.142,0,0,1-2.893-.341c-.583-.235-1.109-.94-.959-1.281.251-.587.808-.609,1.351-.6Z" transform="translate(493.344 116.726)" fill="#fff"/>
    <path id="Контур_1014" data-name="Контур 1014" d="M304.108,305.01a3.1,3.1,0,0,1-2.322-.9,1.25,1.25,0,0,1-.235-1.41,1.281,1.281,0,0,1,1.391-.362c.517.16,1.109.04,1.577.4.106.075.235.132.336.211a1.567,1.567,0,0,1,.557,1.466c-.127.4-.543.592-1.3.592" transform="translate(490.816 113.747)" fill="#fff"/>
    <path id="Контур_1015" data-name="Контур 1015" d="M304.653,305.366a6.891,6.891,0,0,1-3.024-1.029,1.338,1.338,0,0,1-.543-.7c-.131-.458.085-.9.557-.909a5.2,5.2,0,0,1,3.4,1.02,1.5,1.5,0,0,1,.317.4c.155.261.341.538.181.848a.871.871,0,0,1-.9.388" transform="translate(489.303 115.548)" fill="#fff"/>
    <path id="Контур_1016" data-name="Контур 1016" d="M305.51,305.214a3.96,3.96,0,0,1-1.769-.348.742.742,0,0,1-.106-1.386,1.765,1.765,0,0,1,.954-.341c.719-.031,1.436-.021,2.159,0a1.278,1.278,0,0,1,.773.317.778.778,0,0,1-.08,1.386,3.929,3.929,0,0,1-1.934.376" transform="translate(497.984 117.18)" fill="#fff"/>
    <path id="Контур_1017" data-name="Контур 1017" d="M310.221,295.257a3.917,3.917,0,0,1-3.254-2.521c-.146-.587.172-.984.7-.8a4.847,4.847,0,0,1,2.843,1.934,1.881,1.881,0,0,1,.266.738c.061.47-.11.7-.552.653" transform="translate(512.968 71.994)" fill="#fff"/>
    <path id="Контур_1018" data-name="Контур 1018" d="M302.452,305.04a4.157,4.157,0,0,1-3.245-2.878c-.045-.451.266-.6.653-.583a4.037,4.037,0,0,1,3.113,2.878.482.482,0,0,1-.522.583" transform="translate(481.875 110.975)" fill="#fff"/>
  </g>
</svg>
